<?xml version="1.0" standalone="no"?>
<!DOCTYPE svg PUBLIC "-//W3C//DTD SVG 1.1//EN" "http://www.w3.org/Graphics/SVG/1.1/DTD/svg11.dtd" >
<svg>
<metadata>
Created by FontForge 20090622 at Mon Aug 14 04:24:08 2017
 By deploy user
&#194;&#169; 1992, 1994, 2002 Adobe Systems Incorporated. All rights reserved.
</metadata>
<defs>
<font id="ElectraLTStd-CursiveDisplay" horiz-adv-x="426" >
  <font-face 
    font-family="Electra LT Std Display"
    font-weight="400"
    font-style="italic"
    font-stretch="normal"
    units-per-em="1000"
    panose-1="2 7 5 2 7 5 5 9 9 3"
    ascent="746"
    descent="-254"
    x-height="426"
    cap-height="692"
    bbox="-148 -260 962 914"
    underline-thickness="50"
    underline-position="-50"
    slope="-7.5"
    unicode-range="U+0020-U+FB02"
  />
<missing-glyph horiz-adv-x="546" 
d="M46 0v700h500v-700h-500zM296 395l170 255h-340zM326 350l170 -255v510zM126 50h340l-170 255zM96 605v-510l170 255z" />
    <glyph glyph-name="f_i" unicode="fi" 
d="M93 374l-84 -3v21q35 2 90 12q23 108 37 151.5t45 83.5q67 81 134 81q37 0 82 -10l-15 -50q-84 18 -122 18q-23 0 -38 -30q-22 -48 -57 -242q18 -4 55 -4q48 0 82 15q41 15 52 15q18 0 26 -10.5t8 -23.5q0 -14 -8 -48l-69 -288q-1 -3 -2.5 -9.5l-2.5 -10.5t-1 -6
q0 -11 9 -11q11 0 70 38l8 -13q-87 -62 -119 -62q-34 0 -34 37q0 9 6 34l64 266q12 53 12 62q0 11 -8 11q-7 0 -34 -16l-90 -4q-22 -2 -27 -6.5t-10 -30.5l-61 -297l-14 -69.5t-9 -42.5q-11 -49 -25.5 -71t-70.5 -77l-12 8q18 35 30.5 83.5t33.5 155.5zM330 528
q0 31 13.5 58.5t39.5 27.5q14 0 24.5 -11t10.5 -25q0 -24 -26.5 -42t-53.5 -18q-8 0 -8 10z" />
    <glyph glyph-name="f_l" unicode="fl" 
d="M90 374l-84 -3v21l90 12q23 108 37 151.5t45 83.5q68 81 134 81q34 0 77 -8q14 -4 17 -4l57 12q4 0 4 -4q0 -2 -15 -62l-33 -130t-22 -89l-39 -170q-44 -203 -44 -230q0 -13 8 -13q9 0 84 48l7 -13q-87 -69 -126 -69q-18 0 -28.5 13.5t-10.5 35.5q0 27 24 133l107 476
q2 7 1.5 10t-5.5 4q-8 3 -52.5 10.5t-65.5 7.5q-23 0 -38 -30q-20 -42 -57 -242q17 -4 40 -4q30 0 57 9v-29l-73 -4q-22 -2 -27 -6.5t-10 -30.5l-61 -297q-17 -80 -23 -112q-11 -49 -25.5 -71t-70.5 -77l-12 8q18 35 30.5 83.5t33.5 155.5z" />
    <glyph glyph-name=".notdef" horiz-adv-x="546" 
d="M46 0v700h500v-700h-500zM296 395l170 255h-340zM326 350l170 -255v510zM126 50h340l-170 255zM96 605v-510l170 255z" />
    <glyph glyph-name=".null" horiz-adv-x="0" 
 />
    <glyph glyph-name="nonmarkingreturn" horiz-adv-x="333" 
 />
    <glyph glyph-name="space" unicode=" " horiz-adv-x="167" 
 />
    <glyph glyph-name="exclam" unicode="!" horiz-adv-x="185" 
d="M84 144h-18l27 484l79 10zM110 33q0 -19 -13 -32t-32 -13t-32 13t-13 32t13 32t32 13t32 -13t13 -32z" />
    <glyph glyph-name="quotedbl" unicode="&#x22;" horiz-adv-x="259" 
d="M100 423h-12l-22 204q-3 36 -3 41q0 40 31 40t31 -40q0 -27 -2 -41zM211 423h-12l-22 204q-3 36 -3 41q0 40 31 40t31 -40q0 -27 -2 -41z" />
    <glyph glyph-name="numbersign" unicode="#" 
d="M101 45h-42l36 198h-88l4 21h88l32 172h-88l4 21h88l37 198h42l-37 -198h111l37 198h42l-36 -198h88l-4 -21h-88l-32 -172h88l-4 -21h-88l-37 -198h-42l37 198h-111zM141 264h112l31 172h-111z" />
    <glyph glyph-name="dollar" unicode="$" horiz-adv-x="444" 
d="M178 -101h-20l12 104q-110 17 -171 97l30 30q37 -53 69.5 -76.5t74.5 -32.5l35 305q-148 69 -148 197q0 68 46 122.5t146 51.5l9 77h20l-10 -80q93 -14 153 -87l-33 -25q-28 46 -57 66.5t-65 27.5l-34 -291l47.5 -25t42 -28t39 -37t24 -46.5t10.5 -61.5q0 -30 -10 -60.5
t-32 -61t-65 -49t-101 -16.5zM227 316l-35 -296q70 0 109 47t39 100q0 31 -10 55.5t-30.5 43t-34 27.5t-38.5 23zM216 395l34 282q-67 -4 -102.5 -41t-35.5 -95q0 -93 104 -146z" />
    <glyph glyph-name="percent" unicode="%" horiz-adv-x="648" 
d="M121 -12h-41l410 662l-2 2q-59 -36 -129 -36q-3 0 -37 2q7 -101 -60.5 -172.5t-133.5 -71.5q-43 0 -75.5 30t-32.5 83q0 81 68.5 142.5t142.5 61.5q56 0 85 -54q36 -4 44 -4q94 0 175 75h30zM70 455q0 -28 17.5 -45.5t42.5 -17.5q58 0 116.5 67t58.5 135q0 10 -2 28
q-33 10 -60 46q-63 -9 -118 -85.5t-55 -127.5zM430 8q-41 0 -73 30t-32 81q0 84 68.5 145t140.5 61q48 0 71 -28.5t23 -70.5q0 -76 -63 -147t-135 -71zM437 27q55 0 114 65.5t59 134.5q0 40 -18.5 57t-41.5 17q-54 0 -114.5 -77t-60.5 -138q0 -26 18 -42.5t44 -16.5z" />
    <glyph glyph-name="ampersand" unicode="&#x26;" horiz-adv-x="741" 
d="M464 576l-207 -150q-80 -57 -140 -106q-9 -6 -9 -19q0 -88 62 -169.5t165 -81.5q98 0 162.5 75t64.5 176q0 47 -10 47l-44 -6q-44 -6 -53 -6q-32 0 -53.5 9t-30 22.5t-11.5 23t-3 17.5q0 32 25.5 53t60.5 21q33 0 59.5 -20.5t40 -41t14.5 -20.5t11.5 2.5t24.5 5t25 2.5
q46 0 73 -31t27 -72q0 -26 -11.5 -46t-26.5 -20q-22 0 -22 25q0 23 14 56.5t14 34.5q0 7 -20 7t-55 -5.5t-35 -9.5q0 -2 2 -14.5t4 -30.5t2 -32q0 -128 -81.5 -209t-190.5 -81q-108 0 -190 81.5t-82 211.5q0 132 87 221t192 89q22 0 43.5 -4.5t35 -9t16.5 -4.5q11 0 66 46.5
t97 93.5q21 23 27 23q4 0 6.5 -3t15.5 -20q-67 -63 -162 -131zM263 549q-68 0 -107 -58q-21 -31 -33.5 -73.5t-12.5 -59.5q0 -9 7 -9q1 0 13 6l53 39l86 63t55 41q30 22 30 27q0 9 -32.5 16.5t-58.5 7.5zM409 419q0 -37 57 -37q14 0 41 5.5t27 9.5q0 3 -8.5 16t-28.5 28
t-44 15q-21 0 -32.5 -11t-11.5 -26z" />
    <glyph glyph-name="quotesingle" unicode="'" horiz-adv-x="148" 
d="M100 423h-12l-22 204q-3 36 -3 41q0 40 31 40t31 -40q0 -27 -2 -41z" />
    <glyph glyph-name="parenleft" unicode="(" horiz-adv-x="259" 
d="M185 -216h-21q-116 190 -116 400q0 87 22.5 171t52.5 140t69 107.5t60.5 73t39.5 36.5h25q-221 -208 -221 -565q0 -201 89 -363z" />
    <glyph glyph-name="parenright" unicode=")" horiz-adv-x="259" 
d="M51 712h21q116 -190 116 -400q0 -87 -22.5 -171t-52.5 -140t-69 -107.5t-60.5 -73t-39.5 -36.5h-25q221 208 221 565q0 201 -89 363z" />
    <glyph glyph-name="asterisk" unicode="*" horiz-adv-x="407" 
d="M145 572l-48 27q-14 10 -14 18t5.5 14.5t14.5 6.5q4 0 14 -5l47 -28q14 -6 20 -6q22 0 22 31v55q0 23 20 23q19 0 19 -23v-55q0 -31 24 -31q6 0 18 6l48 28q9 5 14 5q8 0 13.5 -7t5.5 -13q0 -10 -14 -19l-48 -27q-17 -11 -17 -23q0 -15 17 -26l48 -27q14 -9 14 -18
q0 -7 -5.5 -14t-13.5 -7q-5 0 -14 5l-48 28q-9 6 -19 6q-8 0 -15.5 -7t-7.5 -23v-56q0 -23 -19 -23q-20 0 -20 23v56q0 30 -24 30q-3 0 -18 -6l-47 -28q-9 -5 -15 -5q-8 0 -13.5 7t-5.5 13q0 9 14 19l48 27q18 13 18 23q0 15 -18 26zM283 506q10 -1 10 7q0 4 -3 6
q-14 19 -14 28q0 11 8 21q9 11 9 15q0 7 -8 7q-1 0 -9 -1.5t-10 -1.5q-23 0 -29 21q-5 15 -12 15q-5 0 -11 -15q-6 -21 -29 -21q-1 0 -8.5 1.5t-9.5 1.5q-9 0 -9 -7q0 -4 3 -7q14 -17 14 -28q0 -12 -8 -21q-9 -11 -9 -14q0 -8 9 -8q1 0 9 1.5t10 1.5q22 0 28 -21
q6 -15 12 -15t11 15q8 21 29 21q5 0 17 -2z" />
    <glyph glyph-name="plus" unicode="+" horiz-adv-x="600" 
d="M269 0v191h-191v34h191v191h34v-191h191v-34h-191v-191h-34z" />
    <glyph glyph-name="comma" unicode="," horiz-adv-x="185" 
d="M2 11l24 63q107 -11 107 -69q0 -46 -124 -175l-12 11q78 90 78 125q0 40 -73 45z" />
    <glyph glyph-name="hyphen" unicode="-" horiz-adv-x="259" 
d="M250 178h-240v60h240v-60z" />
    <glyph glyph-name="period" unicode="." horiz-adv-x="185" 
d="M110 33q0 -19 -13 -32t-32 -13t-32 13t-13 32t13 32t32 13t32 -13t13 -32z" />
    <glyph glyph-name="slash" unicode="/" horiz-adv-x="241" 
d="M11 -18l235 726h42l-236 -726h-41z" />
    <glyph glyph-name="zero" unicode="0" horiz-adv-x="444" 
d="M253 708q79 0 122 -72.5t43 -211.5q0 -47 -6 -99.5t-23 -114t-42 -109.5t-68 -80.5t-96 -32.5q-80 0 -118.5 80t-38.5 210q0 104 27 201.5t80.5 163t119.5 65.5zM254 690q-43 0 -76.5 -47.5t-52 -124t-28 -159.5t-9.5 -166q0 -82 26 -134.5t75 -52.5q54 0 92.5 69
t56.5 181t18 252q0 83 -26.5 132.5t-75.5 49.5z" />
    <glyph glyph-name="one" unicode="1" horiz-adv-x="296" 
d="M230 15v-17q-112 2 -113 2q-7 0 -53 -1t-58 -1v17l77 7l81 642l-74 1v25l150 16l-83 -684z" />
    <glyph glyph-name="two" unicode="2" horiz-adv-x="389" 
d="M-41 -1v8l186 236q43 56 69 94t54 98.5t28 105.5q0 52 -36 76.5t-83 24.5q-67 0 -129 -37l-12 -7q-1 0 -1 7l27 78q58 25 128 25q77 0 120.5 -42.5t43.5 -107.5q0 -29 -6 -55t-27 -63.5t-38.5 -64.5t-65.5 -85.5l-80.5 -97l-109.5 -127.5h298l13 54h18l-21 -119h-160
q-4 0 -89 -0.5t-127 -0.5z" />
    <glyph glyph-name="three" unicode="3" horiz-adv-x="389" 
d="M66 616l16 70q52 22 112 22q64 0 107 -36t43 -91q0 -32 -14.5 -61t-44.5 -54.5t-53 -40.5t-62 -38q160 -43 160 -168q0 -143 -189 -204q-30 -9 -63.5 -17.5t-52 -12t-20.5 -3.5q-6 0 -6 11q0 7 2.5 8.5t14.5 3.5q246 55 246 198q0 114 -172 141q-19 3 -19 12q0 4 3 6.5
t18 8.5q198 84 198 187q0 38 -27 60t-68 22q-45 0 -127 -30q-5 0 -2 6z" />
    <glyph glyph-name="four" unicode="4" horiz-adv-x="463" 
d="M430 338v-52h-95l-37 -286h-71l40 286h-257v22l372 412h9l-50 -383zM59 333l215 3l40 276l-2 2z" />
    <glyph glyph-name="five" unicode="5" horiz-adv-x="389" 
d="M67 380l45 310h167q36 0 72 3l7 32h19l-16 -98l-238 -2l-26 -183q235 -30 235 -187q0 -50 -22 -93.5t-56.5 -72t-74 -50.5t-77.5 -34t-62.5 -17.5t-33.5 -5.5t-9 10q0 6 14 11l53 17t63.5 28.5t69 45.5t48 64t21.5 87q0 21 -6 38t-14 28.5t-25.5 22t-29.5 16t-38.5 12.5
t-40 9.5z" />
    <glyph glyph-name="six" unicode="6" horiz-adv-x="444" 
d="M448 714v-18q-97 -5 -185.5 -81t-132.5 -201q54 30 113 30q69 0 118 -51t49 -145q0 -109 -55.5 -184.5t-150.5 -75.5q-83 0 -131.5 64t-48.5 180q0 63 15 127t48.5 127t81.5 112t120.5 81t158.5 35zM90 194q0 -188 121 -188q41 0 72.5 41t46 98t14.5 114
q0 70 -29.5 115.5t-91.5 45.5q-30 0 -64 -13t-40 -24q-3 -5 -9 -28.5t-13 -70t-7 -90.5z" />
    <glyph glyph-name="seven" unicode="7" horiz-adv-x="389" 
d="M26 567l17 123h381q0 -8 -14 -35l-210 -419l-121 -254h-43l334 643l-313 -1l-14 -57h-17z" />
    <glyph glyph-name="eight" unicode="8" 
d="M384 188q0 -81 -55 -140.5t-142 -59.5q-84 0 -129.5 53t-45.5 125q0 133 160 199q-22 16 -34 27t-31 32.5t-28 48.5t-9 59q0 68 48 122t133 54q69 0 110 -39.5t41 -105.5q0 -40 -13 -71.5t-39 -53t-43.5 -31.5t-47.5 -24q33 -25 49 -38.5t37 -38.5t30 -53.5t9 -64.5z
M130 553q0 -38 17.5 -68.5t36.5 -47t57 -42.5q125 54 125 169q0 63 -35 94.5t-79 31.5q-55 0 -88.5 -41t-33.5 -96zM54 157q0 -45 13.5 -77t35 -47t40 -21t36.5 -6q61 0 102 50.5t41 117.5q0 32 -9 57.5t-30.5 48t-39 36.5t-52.5 38q-60 -26 -98.5 -71t-38.5 -126z" />
    <glyph glyph-name="nine" unicode="9" horiz-adv-x="444" 
d="M34 458q0 100 58 175t150 75q30 0 59 -10.5t58 -33.5t47 -69t18 -109q0 -21 -1.5 -45t-13.5 -77.5t-32 -102t-62.5 -107.5t-100.5 -104q-29 -22 -56.5 -39t-40.5 -23t-15 -6q-7 0 -7 10q0 4 19 18q64 44 117.5 115.5t85.5 157.5q-47 -23 -107 -23q-70 0 -123 51.5
t-53 146.5zM102 451q0 -83 37 -126t98 -43q47 0 89 30q32 110 32 199q0 83 -28.5 131t-82.5 48q-66 0 -105.5 -70t-39.5 -169z" />
    <glyph glyph-name="colon" unicode=":" horiz-adv-x="185" 
d="M110 33q0 -19 -13 -32t-32 -13t-32 13t-13 32t13 32t32 13t32 -13t13 -32zM142 319q0 -19 -13 -32t-32 -13t-32 13t-13 32t13 32t32 13t32 -13t13 -32z" />
    <glyph glyph-name="semicolon" unicode=";" horiz-adv-x="185" 
d="M2 11l24 63q107 -11 107 -69q0 -47 -124 -174l-12 10q78 90 78 125q0 40 -73 45zM138 319q0 -19 -13 -32t-32 -13t-32 13t-13 32t13 32t32 13t32 -13t13 -32z" />
    <glyph glyph-name="less" unicode="&#x3c;" horiz-adv-x="600" 
d="M528 -4l-484 206v13l484 205v-38l-419 -173l419 -175v-38z" />
    <glyph glyph-name="equal" unicode="=" horiz-adv-x="600" 
d="M78 265v34h416v-34h-416zM78 117v34h416v-34h-416z" />
    <glyph glyph-name="greater" unicode="&#x3e;" horiz-adv-x="600" 
d="M44 -4v38l418 175l-418 173v38l484 -205v-13z" />
    <glyph glyph-name="question" unicode="?" horiz-adv-x="296" 
d="M82 144h-18l13 164q79 42 128 84t49 92q0 39 -27.5 63.5t-86.5 24.5q-35 0 -103 -19l20 74q52 11 86 11q89 0 129 -38t40 -94q0 -33 -15 -63.5t-34.5 -51t-52 -41.5t-52.5 -31l-52 -25zM108 33q0 -19 -13 -32t-32 -13t-32 13t-13 32t13 32t32 13t32 -13t13 -32z" />
    <glyph glyph-name="at" unicode="@" horiz-adv-x="800" 
d="M683 91l10 -15q-127 -94 -281 -94q-157 0 -267.5 95.5t-110.5 248.5q0 155 117 268.5t289 113.5q148 0 237 -83t89 -206q0 -104 -62 -188.5t-133 -84.5q-11 0 -22 2t-27.5 10t-27.5 28t-13 50h-2q-38 -90 -116 -90q-51 0 -89.5 39.5t-38.5 102.5q0 93 67 164.5t140 71.5
q32 0 58 -17.5t34 -56.5h2l17 62h57q-49 -163 -66 -229q-8 -30 -8 -53q0 -27 15.5 -42.5t35.5 -15.5q56 0 107.5 77.5t51.5 167.5q0 120 -86 192.5t-210 72.5q-151 0 -259.5 -105.5t-108.5 -254.5q0 -136 95.5 -228t241.5 -92q135 0 264 89zM376 168q21 0 38.5 10t30.5 30
t17.5 28.5t11.5 25.5q11 27 27.5 85t16.5 88q0 28 -18.5 48.5t-48.5 20.5q-38 0 -74.5 -38.5t-58 -93t-21.5 -103.5q0 -44 19 -72.5t60 -28.5z" />
    <glyph glyph-name="A" unicode="A" horiz-adv-x="537" 
d="M548 21v-23q-98 2 -103 2q-27 0 -103 -2v18q40 3 51.5 7.5t11.5 14.5q0 19 -22 97l-16 58.5l-16 58t-9 28.5q-2 4 -19 4h-151q-36 0 -42 -3t-14.5 -20t-25 -55l-22.5 -52q-49 -107 -49 -120q0 -7 12 -10t67 -8v-18q-20 0 -39.5 0.5t-30 1t-18.5 0.5q-15 0 -44 -1t-39 -1
v23q35 3 51 22q11 14 81 153l242 512h9q62 -238 164 -589q19 -64 30 -80t44 -18zM260 571l-112 -240q-4 -10 -4 -14q0 -11 23 -11h157q10 0 10 8q0 6 -3 17l-62 238q-2 9 -5 9z" />
    <glyph glyph-name="B" unicode="B" horiz-adv-x="556" 
d="M-21 -2v18l70 4q14 88 44.5 328.5t38.5 322.5l-79 2v17q66 0 116 3q11 0 66.5 2.5t59.5 2.5q108 0 154 -44t46 -110q0 -101 -122 -168q131 -45 131 -166q0 -74 -44.5 -123.5t-106 -69t-133.5 -19.5q-11 0 -71 1t-70 1q-55 0 -100 -2zM426 201q0 80 -60 113.5t-196 33.5
q-34 -255 -34 -293q0 -20 16.5 -28.5t55.5 -8.5q99 0 158.5 53.5t59.5 129.5zM173 368h43q93 0 150 39t57 122q0 61 -43.5 105t-123.5 44q-35 0 -42 -15q-9 -23 -41 -295z" />
    <glyph glyph-name="C" unicode="C" horiz-adv-x="685" 
d="M631 230l-30 -170q-160 -78 -275 -78q-122 0 -207 83t-85 236q0 107 44 199.5t125.5 150t181.5 57.5q53 0 108.5 -18t90.5 -36t37 -18q5 0 14 21l28 -4l-24 -187l-20 1q-44 221 -221 221q-81 0 -147 -55.5t-100.5 -141.5t-34.5 -181q0 -141 72.5 -221.5t168.5 -80.5
q159 0 256 223z" />
    <glyph glyph-name="D" unicode="D" horiz-adv-x="713" 
d="M-12 -2v18l61 4q14 89 44.5 328.5t38.5 321.5l-76 2v18q22 0 147.5 4t152.5 4q153 0 237.5 -89t84.5 -230q0 -99 -34 -173.5t-93.5 -118.5t-133 -65.5t-159.5 -21.5q-209 0 -270 -2zM290 678q-45 0 -60.5 -6.5t-19.5 -23.5q-3 -18 -39.5 -298.5t-36.5 -298.5
q0 -12 7 -17.5t36.5 -9.5t90.5 -4q148 0 238 105t90 253q0 140 -79.5 220t-226.5 80z" />
    <glyph glyph-name="E" unicode="E" horiz-adv-x="574" 
d="M132 671l-74 3v18q80 -2 153 -2q274 0 343 2l-24 -163h-29l3 69q2 31 -9 45.5t-45 21.5t-107 7h-129q-8 -49 -41 -302h65q52 0 69 5t24 16q8 13 26 104h31q-23 -147 -38 -264h-30q0 1 1.5 19.5t3 40.5t1.5 29q0 18 -7.5 24t-31.5 6h-116q-8 -54 -21.5 -163t-13.5 -126
q0 -25 14.5 -33t71.5 -8h145q58 0 70 11q6 6 18.5 34t27.5 65t21 50h29l-35 -180h-381q-51 0 -129 -2v18l61 4q13 85 43.5 323t39.5 328z" />
    <glyph glyph-name="F" unicode="F" horiz-adv-x="500" 
d="M542 692l-24 -175h-32l2 28q6 94 -18 111q-7 4 -52.5 10t-90.5 6h-114l-41 -308h48q89 0 106 8q12 5 19.5 25.5t21.5 87.5h31q-30 -174 -36 -259h-32q6 81 6 89q0 16 -9 22.5t-31 6.5l-126 1l-39 -325l79 -4v-18q-66 2 -111 2q-42 0 -112 -2v18l62 4q14 90 44.5 329
t38.5 322l-65 3v18q5 0 53.5 -1t103.5 -1q247 0 318 2z" />
    <glyph glyph-name="G" unicode="G" horiz-adv-x="722" 
d="M645 666l21 -3l-28 -197l-19 1l-6.5 28.5t-11.5 37t-18.5 43.5t-27.5 40.5t-39 37.5t-52.5 24t-68.5 10q-62 0 -116 -33t-89 -86.5t-54.5 -118t-19.5 -129.5q0 -141 77.5 -230t176.5 -89q38 0 77.5 16.5t54.5 28l41 32.5q12 84 16 138l-80 6l1 19h207l-1 -19
q-11 -1 -16 -1.5t-11.5 -2.5t-8.5 -3t-5.5 -5.5t-4.5 -7.5t-3.5 -11.5t-3 -14.5t-2.5 -20.5t-4 -25.5l-8 -63q-103 -51 -162 -68.5t-112 -17.5q-134 0 -222 89.5t-88 244.5q0 164 103 278t248 114q54 0 110.5 -17t92 -33.5t38.5 -16.5q9 0 18 25z" />
    <glyph glyph-name="H" unicode="H" horiz-adv-x="685" 
d="M-12 -2v18l61 4q13 82 43.5 320.5t39.5 330.5l-65 3v18q13 0 48 -1t58 -1q39 0 105 2v-18l-64 -3q-4 -22 -42 -307h346q25 193 37 307l-66 3v18q13 0 47.5 -1t56.5 -1q37 0 105 2v-18l-62 -3q-13 -84 -43.5 -324t-39.5 -327l65 -4v-18q-13 0 -47.5 1t-57.5 1
q-38 0 -106 -2v18l65 4q15 92 43 324h-345q-34 -262 -38 -324l65 -4v-18q-13 0 -48 1t-57 1q-38 0 -104 -2z" />
    <glyph glyph-name="I" unicode="I" horiz-adv-x="278" 
d="M140 20l63 -4v-18q-13 0 -48 1t-57 1q-36 0 -106 -2v18l65 4q14 84 44.5 324t38.5 327l-67 3v18q13 0 47.5 -1t57.5 -1q38 0 106 2v-18l-62 -3q-14 -92 -44 -328.5t-38 -322.5z" />
    <glyph glyph-name="J" unicode="J" horiz-adv-x="278" 
d="M71 674v18q8 0 35 -0.5l53.5 -1t30.5 -0.5q15 0 51.5 1t42.5 1v-18l-58 -3l-78 -580q-21 -162 -85 -239q-56 -68 -73 -68q-6 0 -6 6q0 4 9 17t9 14q27 46 41 98t26 153l76 599z" />
    <glyph glyph-name="K" unicode="K" horiz-adv-x="537" 
d="M131 20l66 -4v-18q-13 0 -48 1t-57 1q-38 0 -104 -2v18l61 4q14 90 44.5 329t38.5 322l-65 3v18q13 0 47.5 -1t57.5 -1q38 0 106 2v-18l-65 -3l-42 -314l2 -2l172 173l38 37.5l36 35.5l28 28t21 22t7 11v2.5t-1 2l-3 1.5t-5.5 1.5t-9 1t-13.5 1t-18 0.5h-23v18
q120 0 182 2v-23q-51 -5 -131 -79l-220 -204l212 -269q47 -60 72 -79.5t50 -23.5v-16q-37 2 -129 2l-261 335l-10 -8z" />
    <glyph glyph-name="L" unicode="L" horiz-adv-x="537" 
d="M503 187h29l-53 -189q-56 2 -127 2h-212q-91 0 -152 -2v18l61 4q13 83 43.5 321.5t39.5 329.5l-65 3v18q13 0 47.5 -1t58.5 -1q39 0 105 2v-18l-64 -3q-14 -83 -46 -337t-32 -275q0 -28 17 -32q19 -5 159 -5q54 0 103 3z" />
    <glyph glyph-name="M" unicode="M" horiz-adv-x="815" 
d="M-18 -2v18l60 4q56 391 89 651l-66 3v19q75 -3 160 -3q12 -52 83 -314l73 -271l305 585h134v-18l-55 -2q-7 -41 -35 -268q-23 -183 -45 -382l64 -4v-18q-8 0 -34 0.5l-50 1t-25 0.5q-3 0 -48 -1.5t-51 -0.5v18l63 4q52 402 74 601l-2 2l-331 -635h-8l-96 341
q-80 275 -89 310h-2q-35 -257 -78 -619l63 -4v-18q-5 0 -23.5 0.5l-36.5 1t-20 0.5q-7 0 -16 -0.5t-25.5 -1t-31.5 -0.5z" />
    <glyph glyph-name="N" unicode="N" horiz-adv-x="685" 
d="M-8 -2v18l61 4q12 82 44.5 327.5t32.5 255.5q0 15 -30 48q-23 22 -61 23v18q90 -2 144 -2l359 -558l32 269q28 246 30 270l-59 3v18q15 0 32 -0.5t27 -1t18 -0.5q2 0 78 2v-18l-60 -3q-12 -68 -20 -127q-57 -395 -74 -556h-8q-104 172 -387 597l-66 -565l65 -4v-18
q-58 2 -79 2q-15 0 -79 -2z" />
    <glyph glyph-name="O" unicode="O" horiz-adv-x="741" 
d="M397 708q70 0 126 -23t89.5 -58.5t55.5 -82t30 -88.5t8 -82q0 -158 -105 -275t-264 -117q-81 0 -142.5 31t-95 82t-49.5 106.5t-16 113.5q0 164 102.5 278.5t260.5 114.5zM395 690q-51 0 -100 -26t-89.5 -74t-65 -124t-24.5 -168q0 -147 63 -222.5t148 -75.5q67 0 125 38
t94.5 97t57 126.5t20.5 130.5q0 72 -24 138t-78 113t-127 47z" />
    <glyph glyph-name="P" unicode="P" horiz-adv-x="500" 
d="M132 20l76 -4v-18q-64 2 -110 2q-42 0 -110 -2v18l61 4q13 86 43.5 323.5t39.5 326.5l-70 2v18q40 0 120.5 4t120.5 4q99 0 150.5 -49t51.5 -122q0 -55 -38.5 -107.5t-120.5 -75.5q-60 -17 -179 -20q-30 -239 -35 -304zM429 521q0 80 -51.5 118.5t-134.5 38.5
q-24 0 -26 -6q-13 -34 -47 -328q259 4 259 177z" />
    <glyph glyph-name="Q" unicode="Q" horiz-adv-x="741" 
d="M699 -107l7 -12q-60 -52 -91 -67.5t-58 -15.5q-80 0 -260.5 39.5t-204.5 43.5q-38 -23 -44 -23q-10 0 -13 17q-9 41 -9 57q0 25 36 25q13 0 35 -4t39.5 -8t19.5 -4q4 0 76 20t83 24q4 0 4 4q0 1 -15 4q-63 5 -112 28.5t-78 55.5t-47.5 75t-25.5 81.5t-7 79.5
q0 166 102.5 280.5t260.5 114.5q70 0 126 -23t89.5 -58.5t55.5 -82t30 -88.5t8 -82q0 -34 -7 -70t-24 -85t-56 -96t-96 -80q-48 -29 -102.5 -46.5t-221.5 -62.5v-2q225 -43 289.5 -53.5t104.5 -10.5q55 0 106 25zM395 690q-51 0 -100 -26t-89.5 -74t-65 -124t-24.5 -168
q0 -146 62.5 -217t148.5 -71q67 0 125 36.5t94.5 93.5t57 123t20.5 129q0 72 -24 138t-78 113t-127 47z" />
    <glyph glyph-name="R" unicode="R" horiz-adv-x="556" 
d="M432 533q0 69 -44.5 107.5t-115.5 38.5q-53 0 -59 -17q-9 -30 -41 -302q102 0 140 11q55 17 87.5 62t32.5 100zM132 20l65 -4v-18q-13 0 -48 1t-57 1q-38 0 -104 -2v18l61 4q14 89 44.5 328.5t38.5 321.5l-65 2v18q43 0 130 4t131 4q82 0 131 -42t49 -116q0 -54 -42 -106
t-106 -76l151 -264q32 -53 44 -66.5t30 -15.5v-12q-79 0 -100 7t-44 46l-153 280q-3 7 -8 9h-42h-69q-32 -250 -37 -322z" />
    <glyph glyph-name="S" unicode="S" horiz-adv-x="500" 
d="M4 0l25 186l19 -1q11 -79 58 -131t123 -52q71 0 106 45t35 101q0 40 -17 72t-44.5 53.5t-61 40.5l-67 38.5t-61 42t-44.5 56.5t-17 77q0 73 56 126.5t144 53.5q45 0 107 -16.5t65 -16.5q16 0 24 16l25 -2l-25 -182l-19 2q-5 49 -23.5 85.5t-45 56t-53 28.5t-52.5 9
q-63 0 -98 -40.5t-35 -89.5q0 -48 33 -84t79.5 -61l93 -52t79.5 -71.5t33 -105.5q0 -82 -61 -142t-153 -60q-45 0 -110.5 17t-72.5 17t-11 -2.5t-6 -5.5t-6 -11z" />
    <glyph glyph-name="T" unicode="T" horiz-adv-x="519" 
d="M22 526h-28l33 166q10 0 61.5 -1t71.5 -1h271q74 0 134 3l-22 -167h-31q8 88 8 105q0 18 -4.5 25.5t-17.5 9.5q-34 4 -163 4q-12 -73 -43 -317.5t-40 -332.5l70 -4v-18q-14 0 -49.5 1t-61.5 1q-43 0 -107 -2v18l66 4q13 81 44.5 326t38.5 324q-146 0 -164 -7
q-7 -3 -15 -14t-14.5 -24.5t-13.5 -31t-11.5 -30l-8.5 -24.5t-4 -13z" />
    <glyph glyph-name="U" unicode="U" horiz-adv-x="667" 
d="M61 674v18q9 1 53 -0.5t47 -1.5q2 0 26.5 0.5l50 1t33.5 0.5v-18l-65 -3l-51 -366q-11 -71 -11 -120q0 -83 46 -129t124 -46q77 0 128 50.5t73 130.5q24 87 63 480l-70 3v18q23 0 43 -0.5t29.5 -1t15.5 -0.5t41 1t43 1v-18l-50 -3l-51 -333q-17 -107 -35.5 -166
t-59.5 -105q-35 -40 -85.5 -62.5t-103.5 -22.5q-84 0 -153.5 59t-69.5 155q0 64 9 132l43 343z" />
    <glyph glyph-name="V" unicode="V" horiz-adv-x="556" 
d="M-8 674v18q1 0 61 -1t146 -1v-18q-26 0 -40 -1t-21.5 -2t-9.5 -2.5t-2 -4.5q0 -8 12 -50q32 -129 137 -507l164 341q100 207 100 217q0 7 -67 9v18q54 0 154 2v-23q-38 -3 -45 -12q-7 -10 -138 -265l-208 -410h-8l-194 689z" />
    <glyph glyph-name="W" unicode="W" horiz-adv-x="796" 
d="M200 692v-18q-32 0 -47 -2.5t-18 -5t-3 -7.5q0 -4 6 -34l13 -65t8 -39l81 -394h2l160 376l-30 167l-59 4v18q14 0 49.5 -1t51.5 -1q12 0 112 2v-18q-31 -1 -46.5 -3t-19 -4t-3.5 -7l1 -16l89 -517h2q230 517 230 531q0 9 -18 11l-49 3v18q98 0 156 2v-24
q-32 -1 -41.5 -8.5t-25.5 -40.5l-101 -217l-196 -420h-8l-86 476h-2l-207 -476h-9q-15 79 -70.5 338.5t-77.5 349.5l-38 4v18q17 0 48 -1t46 -1q6 0 100 2z" />
    <glyph glyph-name="X" unicode="X" horiz-adv-x="500" 
d="M-52 -2v23q27 4 41 17q24 21 65 78l159 215l-95 194q-61 127 -79 138q-10 7 -51 11v18q17 0 55 -1t63 -1q27 0 61.5 1t46.5 1v-18q-29 -1 -42.5 -3t-16.5 -4.5t-3 -8.5q0 -10 36 -91.5t51 -109.5l28 -56l89 129l25 36l42.5 65t17.5 33q0 3 -1.5 4.5t-9 2.5t-20 1h-38.5
v18q84 0 180 2v-23q-41 -1 -57 -9.5t-42 -43.5l-176 -236l96 -190q72 -140 91 -156q16 -14 66 -18v-18q-64 2 -110 2q-40 0 -82 -1t-49 -1v18q39 2 51.5 5t12.5 10q0 5 -9.5 27t-23 50t-14.5 31l-81 171q-141 -202 -165 -243q-17 -29 -17 -35q0 -4 3 -6.5t12 -4t25.5 -2.5
t44.5 -1v-18q-141 0 -180 -2z" />
    <glyph glyph-name="Y" unicode="Y" horiz-adv-x="444" 
d="M-30 674v18q78 -2 106 -2q6 0 112 2v-18q-69 1 -69 -11q0 -2 14 -32l119 -253l129 202q49 76 49 85q0 8 -84 7v18q50 0 164 2v-24q-22 0 -34.5 -9.5t-40.5 -50.5l-166 -241q-6 -9 -7 -20l-40 -327l83 -4v-18q-21 0 -63 1t-61 1q-34 0 -124 -2v18l83 4l43 321l-79 159
q-75 150 -89 161q-12 10 -45 13z" />
    <glyph glyph-name="Z" unicode="Z" horiz-adv-x="500" 
d="M-35 0v9l371 533l84 129l-202 -3q-91 -1 -120.5 -29.5t-37.5 -116.5h-32l19 170q116 -2 194 -2h116q58 0 170 2v-8l-456 -664l223 4q64 2 97.5 35t59.5 127h31l-33 -188q-107 2 -143 2h-341z" />
    <glyph glyph-name="bracketleft" unicode="[" horiz-adv-x="259" 
d="M23 -216l115 928h146q11 0 11 -8t-9.5 -17t-23.5 -9t-38.5 10t-35.5 10q-5 0 -11 -3l-111 -895q8 -2 10 -2q7 0 39 10t38 10q13 0 23 -6.5t10 -16.5q0 -11 -12 -11h-151z" />
    <glyph glyph-name="backslash" unicode="\" horiz-adv-x="241" 
d="M163 -18h-42l-100 726h42z" />
    <glyph glyph-name="bracketright" unicode="]" horiz-adv-x="259" 
d="M217 712l-115 -928h-146q-11 0 -11 8t9.5 17t23.5 9t38.5 -10t35.5 -10q5 0 11 3l111 895q-8 2 -10 2q-7 0 -39 -10t-38 -10q-13 0 -23 6.5t-10 16.5q0 11 12 11h151z" />
    <glyph glyph-name="asciicircum" unicode="^" horiz-adv-x="333" 
d="M53 385h-18l141 323h8l141 -323h-18l-127 222z" />
    <glyph glyph-name="underscore" unicode="_" horiz-adv-x="500" 
d="M0 -125v50h500v-50h-500z" />
    <glyph glyph-name="grave" unicode="`" horiz-adv-x="204" 
d="M204 464h-18l-134 103q-18 13 -18 30q0 11 8.5 20t22.5 9q15 0 31 -21z" />
    <glyph glyph-name="a" unicode="a" 
d="M392 65l9 -12q-94 -69 -130 -69q-27 0 -27 38q0 5 2.5 19.5t1.5 17.5q-2 -1 -27 -20t-58 -37t-59 -18q-40 0 -73 34t-33 98q0 26 7 57.5t29.5 73.5t57 76t96.5 59.5t142 30.5q8 25 18 30.5t55 6.5l-61 -265q-4 -19 -13 -57.5l-15 -64.5t-6 -29q0 -11 7 -11q9 0 77 42z
M269 150l35 152q14 60 14 66q0 22 -29 22q-75 0 -147 -77t-72 -185q0 -47 20 -70.5t56 -23.5q47 0 95 44q14 13 28 72z" />
    <glyph glyph-name="b" unicode="b" horiz-adv-x="444" 
d="M4 -18l-7 4q14 47 26 106l99 466q21 89 21 110q0 10 -12 10t-54 -6v20l157 28q-22 -71 -45 -171l-38 -163q-4 -20 -4 -21q0 -3 3 -3l20 18q20 17 54 34.5t69 17.5q53 0 86 -41.5t33 -112.5q0 -66 -29 -133t-87 -114t-128 -47q-28 0 -61.5 10.5t-38.5 10.5q-11 0 -64 -23z
M125 265l-43 -199q0 -2 -1.5 -8t-2.5 -11.5t-1 -8.5q0 -28 63 -28q80 0 140 78t60 184q0 52 -22 83t-65 31q-29 0 -60.5 -16.5t-42.5 -32.5q-12 -15 -25 -72z" />
    <glyph glyph-name="c" unicode="c" horiz-adv-x="370" 
d="M312 121l11 -10q-77 -127 -173 -127q-64 0 -102 48t-38 126q0 104 65 189t166 85q51 0 81 -25.5t30 -58.5q0 -31 -20.5 -46.5t-47.5 -15.5q-16 0 -16 11q0 6 12 41.5t12 46.5q0 13 -13 21t-29 8q-67 0 -117.5 -80t-50.5 -179q0 -69 30 -96t67 -27t66.5 22.5t66.5 66.5z
" />
    <glyph glyph-name="d" unicode="d" horiz-adv-x="444" 
d="M410 66l9 -13q-90 -69 -126 -69q-31 0 -31 39v19q-2 0 -21 -13.5t-47.5 -27t-55.5 -13.5q-56 0 -92 47.5t-36 121.5q0 106 71 190.5t171 84.5q36 0 84 -21l46 229q5 25 5 31q0 10 -11 10q-23 0 -53 -5l-3 19l150 25l-139 -658q-5 -22 -5 -31q0 -10 9 -10q8 0 75 45z
M267 68l54 268q5 26 5 35q0 37 -57 37q-80 0 -133.5 -84.5t-53.5 -169.5q0 -56 27.5 -89t69.5 -33q36 0 88 36z" />
    <glyph glyph-name="e" unicode="e" horiz-adv-x="370" 
d="M309 128l13 -9q-80 -135 -178 -135q-67 0 -102 50t-35 120q0 105 72 191.5t175 86.5q44 0 68 -20t24 -53q0 -53 -57.5 -100.5t-183.5 -115.5q-24 -13 -24 -20q0 -34 25 -61.5t66 -27.5q70 0 137 94zM286 366q0 48 -40 48q-63 0 -116 -81.5t-53 -171.5q0 -9 6 -9
q3 0 23.5 11.5t50.5 32.5t59 46.5t49.5 59t20.5 64.5z" />
    <glyph glyph-name="f" unicode="f" horiz-adv-x="241" 
d="M9 360v17l92 29q23 143 62 206q24 40 65.5 74t86.5 34q36 0 83 -10l-16 -50q-84 18 -122 18q-31 0 -46 -50q-19 -62 -47 -216q40 8 58 8t38 -4v-33q-45 5 -51 5q-27 0 -40 -9.5t-17 -34.5l-43 -229q-41 -216 -53 -242q-10 -22 -77 -89l-12 8q30 68 57 211l68 369z" />
    <glyph glyph-name="g" unicode="g" horiz-adv-x="407" 
d="M358 465l18 -4q0 -67 -3 -78q-5 -15 -20 -17q-5 -108 -35.5 -156.5t-119.5 -65.5l-42 -8.5t-34 -8t-30.5 -10t-19.5 -11.5t-15 -15t-4 -19q0 -14 7 -21.5t34 -13t80 -5.5q67 -1 108.5 -7.5t61.5 -20.5t26.5 -30.5t6.5 -42.5q0 -75 -80.5 -133t-184.5 -58q-62 0 -99 29
t-37 82q0 54 50 105q1 1 7.5 7l11.5 10.5t5 5.5q0 3 -13 10q-9 5 -19.5 20.5t-10.5 33.5q0 71 98 98q22 5 22 12q0 3 -21 15q-56 33 -56 102q0 67 50 114.5t124 47.5q37 0 67 -8q32 -8 33 -8q18 0 34 49zM112 259q0 -47 25.5 -71.5t55.5 -24.5q43 0 72 57t29 150
q0 23 -11.5 32.5t-38.5 9.5q-56 0 -94 -46t-38 -107zM321 -87q0 34 -36 44.5t-135 10.5q-24 0 -52 -4q-102 -52 -102 -115q0 -35 33 -55t77 -20q83 0 149 45.5t66 93.5z" />
    <glyph glyph-name="h" unicode="h" 
d="M65 0h-68q7 34 26.5 116l26.5 112l89 420q5 20 5 26q0 8 -10 8l-50 -5v19l147 24q-26 -83 -40 -152l-48 -211q0 -2 -1 -5q-1 -4 -1 -5q0 -2 3 -2q1 0 33 21.5t74.5 43.5t71.5 22q30 0 44.5 -20t14.5 -44q0 -27 -8 -61l-57 -237q-7 -32 -7 -38q0 -8 7 -8q12 0 79 49
l10 -12q-80 -67 -121 -67q-16 0 -27.5 10t-11.5 30q0 7 12 60l51 214q9 36 9 48q0 28 -38 28q-29 0 -66 -16t-59 -32q-15 -11 -21.5 -25t-15.5 -57z" />
    <glyph glyph-name="i" unicode="i" horiz-adv-x="204" 
d="M22 359l-8 13q73 60 118 60q15 0 25 -10t10 -24t-8 -48l-70 -288q-5 -22 -5 -26q0 -12 9 -12t70 39l8 -13q-87 -62 -119 -62q-34 0 -34 37q0 10 6 34l64 266q13 57 13 62q0 11 -9 11q-12 0 -70 -39zM108 528q0 31 13.5 58.5t39.5 27.5q14 0 24.5 -11t10.5 -25
q0 -24 -26.5 -42t-53.5 -18q-8 0 -8 10z" />
    <glyph glyph-name="j" unicode="j" horiz-adv-x="204" 
d="M-26 -216l-10 9q22 45 40 129l88 402q10 48 10 55q0 13 -11 13q-16 0 -78 -44l-10 14q84 70 121 70q44 0 44 -49q0 -26 -21 -117l-82 -360q-8 -34 -22 -53.5t-69 -68.5zM114 528q0 31 13.5 58.5t39.5 27.5q14 0 24.5 -11t10.5 -25q0 -24 -26.5 -42t-53.5 -18q-8 0 -8 10z
" />
    <glyph glyph-name="k" unicode="k" horiz-adv-x="370" 
d="M66 0h-66q59 266 63 286l78 373q2 8 2 13q0 6 -10 6q-11 0 -53 -5v19l151 28q-24 -88 -52 -208l-36 -158q-2 -6 -2 -9q0 -2 1 -2t4 3q13 13 29.5 27t58 36.5t76.5 22.5q60 0 60 -56q0 -23 -10 -42t-32 -36t-40.5 -27.5t-51.5 -26.5q-49 -24 -49 -30q0 -2 4 -9l58 -98
q25 -42 44 -65.5t26.5 -28.5t16.5 -9l-2 -9q-30 -15 -51 -15q-20 0 -38.5 18.5t-54.5 79.5l-61 102q-5 10 -5 13q0 7 9 13.5t52 30.5q75 42 100 63t25 49q0 45 -40 45q-31 0 -66.5 -24t-52.5 -42q-17 -19 -31 -80z" />
    <glyph glyph-name="l" unicode="l" horiz-adv-x="204" 
d="M174 70l8 -13q-89 -69 -126 -69q-39 0 -39 49q0 30 23 133l107 475q4 18 4 23q0 8 -12 8t-55 -4v20l153 28q-4 -17 -35.5 -140t-36.5 -145l-39 -170q-45 -197 -45 -230q0 -13 10 -13q14 0 83 48z" />
    <glyph glyph-name="m" unicode="m" horiz-adv-x="667" 
d="M12 361l-8 12q76 59 109 59q43 0 43 -58q0 -6 -1 -16t-1 -13.5t1 -5.5q2 0 32.5 23.5t72.5 46.5t72 23q27 0 41.5 -19t14.5 -38q0 -7 -1 -17t-1.5 -13.5t0.5 -5.5q1 0 13.5 9.5t32.5 23.5t42.5 27.5t48 23t43.5 9.5q29 0 42.5 -20t13.5 -43q0 -35 -7 -62l-58 -237
q-7 -32 -7 -38q0 -8 7 -8q12 0 79 49l10 -12q-83 -67 -120 -67q-16 0 -28 10t-12 29q0 11 12 61l52 214q8 35 8 48q0 28 -35 28q-27 0 -62.5 -16t-56.5 -32q-14 -11 -20.5 -26t-14.5 -56l-54 -254h-65l65 308q9 45 9 48q0 28 -35 28q-26 0 -60.5 -16t-55.5 -32
q-14 -11 -20 -25.5t-15 -56.5l-54 -254h-64l68 325q8 35 8 54q0 17 -14 17q-17 0 -70 -35z" />
    <glyph glyph-name="n" unicode="n" horiz-adv-x="444" 
d="M11 361l-9 12q77 59 110 59q42 0 42 -58q0 -4 -1 -16.5t-1 -17.5q0 -2 1 -2q2 0 16 10q121 84 172 84q30 0 44.5 -20t14.5 -44q0 -28 -8 -61l-57 -237q-7 -32 -7 -38q0 -8 7 -8q12 0 79 49l10 -12q-80 -67 -121 -67q-16 0 -27.5 10t-11.5 30q0 7 12 60l51 214q9 36 9 48
q0 28 -38 28q-29 0 -66 -16t-59 -32q-15 -11 -21.5 -25t-15.5 -57l-53 -254h-65l69 325q7 34 7 54q0 17 -14 17q-17 0 -69 -35z" />
    <glyph glyph-name="o" unicode="o" 
d="M10 174q0 97 60.5 177.5t157.5 80.5q78 0 119 -56.5t41 -137.5q0 -108 -63.5 -181t-149.5 -73q-46 0 -80 19t-51.5 49t-25.5 60.5t-8 61.5zM78 143q0 -57 22 -99t69 -42q40 0 71 30.5t47.5 76t24.5 88t8 75.5q0 61 -23.5 101.5t-64.5 40.5q-62 0 -108 -88.5t-46 -182.5z
" />
    <glyph glyph-name="p" unicode="p" horiz-adv-x="444" 
d="M197 549l13 -6q-23 -55 -42 -148q0 -2 -2.5 -12t-2.5 -12q0 -5 2 -5q1 0 22.5 16.5t53.5 33t58 16.5q50 0 81.5 -44.5t31.5 -117.5q0 -111 -66.5 -196.5t-164.5 -85.5q-45 0 -96 18l-53 -250h-50q-15 0 -11 16l106 497l-2 2l-80 -77l-17 21l105 87l33 154q5 25 22 40z
M145 285l-56 -261q28 -8 54 -8q64 0 110.5 41.5t66.5 96t20 109.5q0 56 -22 87.5t-58 31.5q-22 0 -52 -12.5t-43 -27.5q-8 -8 -11 -16.5t-9 -40.5z" />
    <glyph glyph-name="q" unicode="q" 
d="M261 -244h-41q-24 0 -24 13l2 14l62 280l-2 2q-77 -77 -140 -77q-48 0 -79 43.5t-31 115.5q0 107 70.5 196t170.5 89q24 0 86 -19q9 37 20.5 45t60.5 8q-22 -79 -55 -232zM274 128l57 265q-29 11 -59 11q-81 0 -136.5 -84t-55.5 -178q0 -106 78 -106q39 0 82 35
q26 21 34 57z" />
    <glyph glyph-name="r" unicode="r" horiz-adv-x="259" 
d="M16 360l-8 13q77 59 107 59q38 0 38 -55q0 -4 -2.5 -22t-2.5 -20q0 -4 3 -4q1 0 7.5 11t18 27.5t25.5 32.5t31 27t33 11q31 0 31 -41q0 -11 -5 -33q-27 1 -47.5 -1t-35.5 -5t-26 -13.5t-18 -18.5t-13.5 -28t-10 -34l-10.5 -44l-49 -222h-65l66 296q12 52 12 71
q0 25 -17 25q-13 0 -62 -32z" />
    <glyph glyph-name="s" unicode="s" horiz-adv-x="296" 
d="M190 90q0 27 -16.5 49t-39.5 38.5l-46 33.5t-39.5 42.5t-16.5 57.5q0 46 34 83.5t99 37.5q51 0 82 -26.5t31 -62.5q0 -23 -12 -37.5t-25 -14.5q-8 0 -15.5 7.5t-7.5 23.5q0 22 16 60q-6 12 -27.5 22t-41.5 10q-35 0 -54 -24t-19 -52q0 -26 16.5 -48t39.5 -39l46 -35
t39.5 -44.5t16.5 -58.5q0 -54 -40.5 -91.5t-99.5 -37.5q-53 0 -85.5 28.5t-32.5 67.5q0 26 15.5 45.5t32.5 19.5q20 0 20 -26q0 -21 -24 -76q38 -41 73 -41q34 0 57.5 26.5t23.5 61.5z" />
    <glyph glyph-name="t" unicode="t" horiz-adv-x="241" 
d="M11 383v24l87 4l39 166h65l-35 -152q-2 -10 8 -10l85 5v-30l-88 -3q-10 0 -13 -3t-6 -16l-25 -109q-1 -4 -8 -36.5l-13 -61.5t-11.5 -62t-5.5 -47q0 -36 23 -36q21 0 95 42l8 -14q-48 -31 -78.5 -45.5t-57.5 -14.5q-54 0 -54 70q0 37 22 136l38 167q1 4 2 9.5t2 8.5t1 4
q0 4 -10 4h-70z" />
    <glyph glyph-name="u" unicode="u" horiz-adv-x="444" 
d="M7 348l-8 13q89 65 123 65q36 0 36 -40q0 -12 -9 -49l-44 -200q-8 -35 -8 -51q0 -54 48 -54q39 0 106 35q11 5 14 18l80 335h65l-86 -359q-4 -12 -4 -26q0 -11 7 -11t86 53l9 -13q-94 -76 -134 -76q-34 0 -34 39q0 5 1.5 12t2 9t-1.5 4q-3 0 -29 -16t-62.5 -32t-64.5 -16
q-67 0 -67 90q0 29 7 59l47 210q5 22 5 28q0 11 -11 11q-9 0 -74 -38z" />
    <glyph glyph-name="v" unicode="v" horiz-adv-x="315" 
d="M73 -22l-8 4q3 33 3 92q0 127 -20.5 218.5t-53.5 91.5q-13 0 -37 -16l-5 12q45 52 79 52q74 0 94 -201q7 -74 5 -152l2 -2q104 154 129 214q15 35 15 56q0 50 -64 53l-2 16q31 24 57 24q22 0 34.5 -17.5t12.5 -42.5q0 -105 -241 -402z" />
    <glyph glyph-name="w" unicode="w" horiz-adv-x="556" 
d="M-19 368l-4 15q61 49 91 49q14 0 25 -12.5t17.5 -37.5t11.5 -51.5t7.5 -65t4 -66t2.5 -67t2 -57.5q17 22 76.5 111.5t60.5 98.5v4q0 2 -2 20l-15 100q24 4 39 4q18 0 27 -17t13 -69l21 -265q162 213 162 290q0 19 -11.5 30t-22 13.5t-30.5 4.5l-2 16q41 24 60 24
q24 0 35 -19.5t11 -39.5q0 -103 -248 -403l-8 3l-25 262l-190 -265l-9 3q3 117 -27 359q-3 25 -9 34.5t-19 9.5q-14 0 -44 -16z" />
    <glyph glyph-name="x" unicode="x" horiz-adv-x="333" 
d="M-41 -12l6 62q40 -3 63 -2q29 36 100 147q-7 26 -14.5 59.5t-12.5 54t-11 40t-14 28.5t-20 9t-49 -24l-8 13q68 57 95 57q12 0 22.5 -6.5t18 -19.5t13.5 -26t11 -31.5t7.5 -30t5.5 -29t4 -20.5q5 7 19.5 32.5t27 44.5t30 40.5t36.5 33.5t37 12q15 0 27 -5q-4 -26 -12 -55
l-63 7q-49 -54 -95 -133q5 -19 14 -60.5t14.5 -62t14 -46.5t17 -37.5t17.5 -11.5q23 0 55 28l10 -12q-53 -56 -92 -56q-13 0 -24 5.5t-20 18t-15 24.5t-12 32.5t-9.5 34t-8.5 36.5t-8 34q-3 -6 -19 -34.5l-29.5 -50.5t-31.5 -48t-36 -41t-33 -15q-16 0 -28 4z" />
    <glyph glyph-name="y" unicode="y" horiz-adv-x="333" 
d="M-47 362l-9 12q33 32 52.5 45t40.5 13q56 0 85 -118q25 -103 38 -244h2q103 177 123 240q7 23 7 38q0 48 -62 51l-2 13q36 28 58 28q20 0 33 -17.5t13 -40.5q0 -42 -28.5 -100t-114.5 -201q-159 -266 -215 -341l-27 42q88 85 138 162q15 21 15 51q0 84 -28.5 238.5
t-69.5 154.5q-16 0 -49 -26z" />
    <glyph glyph-name="z" unicode="z" horiz-adv-x="352" 
d="M324 83l12 -10q-26 -32 -38.5 -46t-33 -28.5t-38.5 -14.5q-26 0 -80 36q-56 35 -88 35q-25 0 -42 -17q8 -22 8 -39q0 -14 -7.5 -25.5t-21.5 -11.5q-23 0 -23 26q0 35 45 83l268 289l-2 2q-16 -4 -35 -4q-9 0 -55 3t-54 3q-39 0 -57 -11t-40 -47l-14 7l55 99q30 12 66 12
q4 0 22.5 -1.5t28.5 -1.5q42 -4 50 -4q63 0 116 25l10 -10l-302 -327l2 -2q10 2 21 2q35 0 87 -32.5t71 -32.5q14 0 27 7t19.5 13.5z" />
    <glyph glyph-name="braceleft" unicode="{" horiz-adv-x="278" 
d="M0 243v9q71 17 97 48t35 103l10 77q6 46 10 69t16.5 58t30.5 53t52 33.5t82 18.5v-18q-76 -9 -105 -45t-41 -132l-7 -55q-5 -37 -7.5 -53.5t-7.5 -42.5t-11.5 -37.5t-17 -27.5t-25 -24t-34.5 -15.5t-47 -12.5v-2q107 -14 107 -112q0 -43 -11 -111q-11 -81 -11 -111
q0 -59 26 -82t81 -29v-18q-146 9 -146 133q0 44 11 110q10 74 10 110q0 50 -24.5 71.5t-72.5 34.5z" />
    <glyph glyph-name="bar" unicode="|" horiz-adv-x="222" 
d="M94 -214v1000h34v-1000h-34z" />
    <glyph glyph-name="braceright" unicode="}" horiz-adv-x="278" 
d="M263 253v-9q-71 -17 -97 -48t-35 -103l-10 -77q-6 -46 -10 -69t-16.5 -58t-30.5 -53t-52 -33.5t-82 -18.5v18q76 9 105 45t41 132l7 55q5 37 7.5 53.5t7.5 42.5t11.5 37.5t17 27.5t25 24t34.5 15.5t47 12.5v2q-107 14 -107 112q0 30 11 111q11 68 11 111q0 59 -26 82
t-81 29v18q146 -9 146 -133q0 -36 -10 -110q-11 -66 -11 -110q0 -50 24.5 -71.5t72.5 -34.5z" />
    <glyph glyph-name="asciitilde" unicode="~" horiz-adv-x="600" 
d="M64 136h-18q16 72 49 101t67 29q36 0 129.5 -38t124.5 -38q61 0 92 92h18q-7 -24 -13 -40.5t-19.5 -41t-35.5 -37.5t-50 -13q-37 0 -128 38t-125 38q-39 0 -60.5 -28t-30.5 -62z" />
    <glyph glyph-name="uni00A0" unicode="&#xa0;" horiz-adv-x="167" 
 />
    <glyph glyph-name="exclamdown" unicode="&#xa1;" horiz-adv-x="185" 
d="M77 276h18l-27 -484l-79 -10zM51 387q0 19 13 32t32 13t32 -13t13 -32t-13 -32t-32 -13t-32 13t-13 32z" />
    <glyph glyph-name="cent" unicode="&#xa2;" horiz-adv-x="407" 
d="M131 73l132 355q-66 -1 -115.5 -80.5t-49.5 -176.5q0 -65 33 -98zM283 427l-135 -367q21 -12 47 -12q37 0 66.5 22.5t66.5 66.5l11 -10q-77 -127 -173 -127q-18 0 -38 6l-40 -107h-21l42 114q-39 18 -61 60.5t-22 100.5q0 104 65 189t166 85q9 0 12 -1l34 91h21l-35 -94
q37 -7 58 -30t21 -50q0 -31 -20.5 -46.5t-47.5 -15.5q-16 0 -16 11q0 6 12 41.5t12 46.5q0 20 -25 26z" />
    <glyph glyph-name="sterling" unicode="&#xa3;" 
d="M373 116l46 -37q-42 -91 -135 -91q-41 0 -76.5 18t-66.5 37.5t-58 21.5q-27 -77 -61 -77q-11 0 -18.5 8t-7.5 21q0 9 4 19t21.5 24t48.5 21q10 21 15 36.5t9 49t4 83.5q0 62 -1 92h-89v24h87q-1 43 -0.5 81t8 78.5t22.5 73.5q54 109 168 109q46 0 82.5 -19.5t55.5 -51.5
l-29 -46q-27 99 -112 99q-55 0 -87 -41.5t-38 -108.5q-1 -16 -2.5 -91.5t-1.5 -82.5h118v-24h-119q-10 -108 -22.5 -155t-46.5 -105q40 -1 97.5 -26.5t81.5 -25.5q29 0 61.5 20.5t41.5 65.5z" />
    <glyph glyph-name="currency" unicode="&#xa4;" horiz-adv-x="370" 
d="M272 345q0 36 -25.5 61.5t-61.5 25.5t-61.5 -25.5t-25.5 -61.5t25.5 -61.5t61.5 -25.5t61.5 25.5t25.5 61.5zM90 427l-43 43l13 13l43 -43q38 31 82 31q43 0 83 -31l43 43l12 -13l-42 -43q30 -39 30 -82t-30 -82l42 -43l-12 -13l-43 43q-40 -31 -83 -31q-44 0 -82 31
l-43 -43l-13 13l43 43q-31 38 -31 82t31 82z" />
    <glyph glyph-name="yen" unicode="&#xa5;" horiz-adv-x="444" 
d="M301 464l70 118q45 76 45 83q0 3 -1.5 4t-10 2t-23 1h-42.5v18q45 0 91 1t51 1v-23q-7 0 -14 -4t-12.5 -8.5t-12 -14l-9.5 -14t-9 -15t-7 -11.5l-88 -138h94v-24h-108l-43 -67q-14 -21 -17 -37h144v-24h-147l-35 -292l81 -4v-18q-90 2 -115 2q-32 0 -118 -2v18l80 4
l39 292h-148v24h151l-46 104h-107v24h97l-66 151q-11 25 -21 37t-16.5 14t-19.5 3v23q4 0 24 -0.5t40 -1.5h20h22q23 1 46 1.5t30 0.5v-18q-23 0 -35 -1t-18.5 -2t-8 -3t-1.5 -5q0 -4 12 -36l69 -163h93zM247 372l41 68h-71z" />
    <glyph glyph-name="brokenbar" unicode="&#xa6;" horiz-adv-x="222" 
d="M94 -89v250h34v-250h-34zM94 411v250h34v-250h-34z" />
    <glyph glyph-name="section" unicode="&#xa7;" horiz-adv-x="407" 
d="M198 616l11 -4q-13 -27 -13 -59q0 -56 31 -148l61.5 -191t30.5 -173q0 -101 -48 -167t-118 -66q-54 0 -83.5 33.5t-29.5 73.5q0 29 13.5 51.5t32.5 22.5q22 0 22 -23q0 -11 -30 -110q9 -13 32 -23.5t43 -10.5q51 0 95.5 49t44.5 152q0 57 -19 129.5t-41.5 130.5
t-41.5 125t-19 115q0 54 26 93zM196 -119l-10 8q36 51 36 111q0 59 -29 152l-57.5 189.5t-28.5 163.5q0 99 44 151t102 52q49 0 78.5 -31.5t29.5 -75.5q0 -28 -12.5 -49t-28.5 -21q-21 0 -21 29q0 26 27 99q-25 35 -71 35q-47 0 -85.5 -41t-38.5 -124q0 -57 18.5 -129.5
t41 -130.5t41 -130.5t18.5 -129.5q0 -74 -54 -128z" />
    <glyph glyph-name="dieresis" unicode="&#xa8;" horiz-adv-x="204" 
d="M69 574q10 0 21.5 -9t11.5 -24q0 -24 -25 -40.5t-49 -16.5q-9 0 -9 9q0 29 12.5 55t37.5 26zM249 574q10 0 21.5 -9t11.5 -24q0 -24 -25 -40.5t-50 -16.5q-8 0 -8 9q0 29 12.5 55t37.5 26z" />
    <glyph glyph-name="copyright" unicode="&#xa9;" horiz-adv-x="800" 
d="M545 263l15 -7q-55 -110 -162 -110q-82 0 -137 56.5t-55 141.5q0 86 56 148t138 62q37 0 74 -17t39 -17q14 0 17 23h16l3 -138h-16q-27 131 -128 131q-60 0 -99.5 -53.5t-39.5 -137.5q0 -75 37.5 -126t109.5 -51q35 0 64 18t41.5 35t26.5 42zM763 346
q0 -151 -106.5 -257.5t-256.5 -106.5t-256.5 106.5t-106.5 257.5q0 150 106.5 256t256.5 106t256.5 -106t106.5 -256zM735 346q0 139 -98 236.5t-237 97.5t-237 -97.5t-98 -236.5t98 -237.5t237 -98.5t237 98.5t98 237.5z" />
    <glyph glyph-name="ordfeminine" unicode="&#xaa;" horiz-adv-x="278" 
d="M288 494l8 -13q-68 -43 -87 -43q-20 0 -20 25q0 1 0.5 8.5t0.5 9.5l-26 -18q-39 -25 -64 -25q-28 0 -48 22.5t-20 57.5q0 15 4 33.5t18.5 44t36.5 46t62.5 36.5t93.5 19q6 15 13 18t35 3l-38 -151q-23 -85 -23 -91q0 -7 5 -7q4 0 49 25zM201 539l23 89q8 32 8 38
q0 12 -16 12q-44 0 -87 -44t-43 -107q0 -23 12 -39t32 -16q29 0 55 26q8 8 16 41z" />
    <glyph glyph-name="guillemotleft" unicode="&#xab;" horiz-adv-x="370" 
d="M134 208v5l177 139q10 7 12 7q9 0 9 -9q0 -5 -48.5 -58t-81.5 -86l64 -125q6 -10 6 -16q0 -8 -8 -8q-2 0 -10 8zM4 208v5l177 139q10 7 12 7q9 0 9 -9q0 -5 -48.5 -58t-81.5 -86l64 -125q6 -10 6 -16q0 -8 -8 -8q-2 0 -10 8z" />
    <glyph glyph-name="logicalnot" unicode="&#xac;" horiz-adv-x="600" 
d="M78 265v34h416v-183h-34v149h-382z" />
    <glyph glyph-name="uni00AD" unicode="&#xad;" horiz-adv-x="259" 
d="M250 178h-240v60h240v-60z" />
    <glyph glyph-name="registered" unicode="&#xae;" horiz-adv-x="800" 
d="M388 155h-170v17q37 3 48 12.5t11 37.5v256q0 29 -10.5 38.5t-48.5 10.5v16h167q79 0 125 -26t46 -75q0 -28 -14.5 -48t-38.5 -30t-38 -13.5t-29 -5.5v-3q76 -21 93 -107q11 -44 19 -51q5 -3 12 -3q25 0 34 56h16q-7 -89 -71 -89q-33 0 -44.5 21.5t-23.5 85.5
q-5 25 -14 41t-18 25t-29 13t-34.5 4.5t-46.5 0.5v-121q0 -21 13 -31.5t46 -14.5v-17zM329 455v-100h44q63 0 96.5 24.5t34.5 64.5q0 43 -27.5 63t-85.5 20q-39 0 -50.5 -13.5t-11.5 -58.5zM763 346q0 -151 -106.5 -257.5t-256.5 -106.5t-256.5 106.5t-106.5 257.5
q0 150 106.5 256t256.5 106t256.5 -106t106.5 -256zM735 346q0 139 -98 236.5t-237 97.5t-237 -97.5t-98 -236.5t98 -237.5t237 -98.5t237 98.5t98 237.5z" />
    <glyph glyph-name="macron" unicode="&#xaf;" horiz-adv-x="204" 
d="M274 506h-272l6 46h272z" />
    <glyph glyph-name="degree" unicode="&#xb0;" horiz-adv-x="259" 
d="M256 599q0 -46 -32 -78t-77 -32q-46 0 -78 32t-32 78q0 45 32 77t78 32q45 0 77 -32t32 -77zM226 599q0 33 -23 56t-56 23t-56.5 -23t-23.5 -56t23.5 -56.5t56.5 -23.5t56 23.5t23 56.5z" />
    <glyph glyph-name="plusminus" unicode="&#xb1;" horiz-adv-x="600" 
d="M269 68v156h-191v34h191v158h34v-158h191v-34h-191v-156h-34zM78 0v34h416v-34h-416z" />
    <glyph glyph-name="twosuperior" unicode="&#xb2;" horiz-adv-x="296" 
d="M268 297h-109q-121 0 -157 -2v9l2 2q155 149 187 189q38 48 38 84q0 29 -17.5 48.5t-56.5 19.5q-19 0 -44 -6.5t-43 -13.5t-19 -7q-2 0 -2 2q0 3 2 7l19 60q53 20 102 20q61 0 89 -29.5t28 -69.5q0 -56 -60 -116q-20 -20 -150 -137h182l10 42h18z" />
    <glyph glyph-name="threesuperior" unicode="&#xb3;" horiz-adv-x="296" 
d="M71 635l13 57q53 16 94 16q54 0 81 -22t27 -55q0 -25 -19 -45.5t-38 -30.5t-50 -23v-2q45 -5 73 -27t28 -63q0 -35 -24.5 -64t-57.5 -45t-69.5 -27t-58 -14.5t-25.5 -3.5q-10 0 -10 9q0 6 3.5 8t14.5 4q161 31 161 119q0 23 -10 37t-31.5 20.5t-36.5 8t-44 2.5
q-16 2 -16 9q0 5 19 12q135 44 135 102q0 19 -14.5 30t-40.5 11q-40 0 -85 -19q-15 -7 -18 -7q-1 0 -1.5 1t0.5 2z" />
    <glyph glyph-name="acute" unicode="&#xb4;" horiz-adv-x="204" 
d="M110 468h-20l128 129q29 29 45 29q12 0 20.5 -8.5t8.5 -20.5q0 -19 -26 -34z" />
    <glyph glyph-name="mu" unicode="&#xb5;" horiz-adv-x="444" 
d="M7 348l-8 13q89 65 123 65q36 0 36 -40q0 -12 -9 -49l-44 -200q-8 -35 -8 -51q0 -54 48 -54q39 0 106 35q11 5 14 18l80 335h65l-86 -359q-4 -12 -4 -26q0 -11 7 -11t86 53l9 -13q-94 -76 -134 -76q-34 0 -34 39q0 5 1.5 12t2 9t-1.5 4q-3 0 -28.5 -16t-58.5 -31.5
t-55 -15.5q-2 0 -20 5q-10 5 -16 5q-4 0 -7 -15l-47 -212q-2 -10 -6.5 -13t-18.5 -3h-29q-12 0 -12 6q0 9 2 15l127 570q5 20 5 28q0 11 -11 11q-9 0 -74 -38z" />
    <glyph glyph-name="paragraph" unicode="&#xb6;" horiz-adv-x="481" 
d="M318 -216h-105v30h86l112 876h89v-28h-70zM334 686l-65 -513q-96 27 -162.5 93.5t-66.5 166.5q0 106 80 178t214 75z" />
    <glyph glyph-name="periodcentered" unicode="&#xb7;" horiz-adv-x="185" 
d="M124 208q0 -19 -13 -32t-32 -13t-32 13t-13 32t13 32t32 13t32 -13t13 -32z" />
    <glyph glyph-name="cedilla" unicode="&#xb8;" horiz-adv-x="204" 
d="M-38 -181l9 16q35 -15 59 -15q23 0 40.5 14t17.5 36q0 19 -13 30t-31 11q-10 0 -29 -7l-4 5l57 91h19l-37 -62q10 3 25 3q37 0 55 -19t18 -44q0 -32 -29.5 -56t-73.5 -24q-36 0 -83 21z" />
    <glyph glyph-name="onesuperior" unicode="&#xb9;" horiz-adv-x="278" 
d="M43 295v18l67 5l46 347l-63 1v25l130 15l-49 -388l67 -5v-18q-30 2 -101 2q-41 0 -97 -2z" />
    <glyph glyph-name="ordmasculine" unicode="&#xba;" horiz-adv-x="278" 
d="M36 553q0 59 40.5 107t100.5 48q50 0 78.5 -33t28.5 -83q0 -61 -40 -107.5t-100 -46.5q-54 0 -81 34t-27 81zM88 534q0 -36 14 -59t39 -23q36 0 63.5 49.5t27.5 110.5q0 38 -15.5 60t-35.5 22q-36 0 -64.5 -50.5t-28.5 -109.5z" />
    <glyph glyph-name="guillemotright" unicode="&#xbb;" horiz-adv-x="370" 
d="M337 208v-5l-177 -139q-10 -7 -12 -7q-9 0 -9 9q0 5 48.5 58t81.5 86l-64 125q-6 10 -6 16q0 8 8 8q2 0 10 -8zM208 208v-5l-177 -139q-10 -7 -12 -7q-9 0 -9 9q0 5 48.5 58t81.5 86l-64 125q-6 10 -6 16q0 8 8 8q2 0 10 -8z" />
    <glyph glyph-name="onequarter" unicode="&#xbc;" horiz-adv-x="685" 
d="M519 173l23 150l-2 2l-153 -153zM492 -12l20 138h-179v18l271 268h9l-32 -239l64 1v-48h-70l-18 -138h-65zM122 -12l404 720h40l-404 -720h-40zM43 295v18l67 5l46 347l-63 1v25l130 15l-49 -388l67 -5v-18q-30 2 -101 2q-41 0 -97 -2z" />
    <glyph glyph-name="onehalf" unicode="&#xbd;" horiz-adv-x="685" 
d="M621 0h-109q-121 0 -157 -2v9l2 2q155 149 187 189q38 48 38 84q0 29 -17.5 48.5t-56.5 19.5q-19 0 -44 -7t-43 -13.5t-19 -6.5q-2 0 -2 2q0 3 2 7l19 60q53 20 102 20q61 0 89 -29.5t28 -69.5q0 -56 -60 -116q-20 -20 -150 -137h182l10 42h18zM114 -12l404 720h40
l-404 -720h-40zM43 295v18l67 5l46 347l-63 1v25l130 15l-49 -388l67 -5v-18q-30 2 -101 2q-41 0 -97 -2z" />
    <glyph glyph-name="threequarters" unicode="&#xbe;" horiz-adv-x="685" 
d="M519 173l23 150l-2 2l-153 -153zM122 -12l404 720h40l-404 -720h-40zM492 -12l20 138h-179v18l271 268h9l-32 -239l64 1v-48h-70l-18 -138h-65zM71 635l13 57q53 16 94 16q54 0 81 -22t27 -55q0 -25 -19 -45.5t-38 -30.5t-50 -23v-2q45 -5 73 -27t28 -63q0 -35 -24.5 -64
t-57.5 -45t-69.5 -27t-58 -14.5t-25.5 -3.5q-10 0 -10 9q0 6 3.5 8t14.5 4q161 31 161 119q0 23 -10 37t-31.5 20.5t-36.5 8t-44 2.5q-16 2 -16 9q0 5 19 12q135 44 135 102q0 19 -14.5 30t-40.5 11q-40 0 -85 -19q-15 -7 -18 -7q-1 0 -1.5 1t0.5 2z" />
    <glyph glyph-name="questiondown" unicode="&#xbf;" horiz-adv-x="296" 
d="M188 276h18l-13 -164q-79 -42 -128 -84t-49 -92q0 -39 27.5 -63.5t86.5 -24.5q35 0 103 19l-20 -74q-52 -11 -86 -11q-89 0 -129 38t-40 94q0 33 15 63.5t34.5 51t52 41.5t52.5 31l52 25zM162 387q0 19 13 32t32 13t32 -13t13 -32t-13 -32t-32 -13t-32 13t-13 32z" />
    <glyph glyph-name="Agrave" unicode="&#xc0;" horiz-adv-x="537" 
d="M548 21v-23q-98 2 -103 2q-27 0 -103 -2v18q40 3 51.5 7.5t11.5 14.5q0 19 -22 97l-16 58.5l-16 58t-9 28.5q-2 4 -19 4h-151q-36 0 -42 -3t-14.5 -20t-25 -55l-22.5 -52q-49 -107 -49 -120q0 -7 12 -10t67 -8v-18q-20 0 -39.5 0.5t-30 1t-18.5 0.5q-15 0 -44 -1t-39 -1
v23q35 3 51 22q11 14 81 153l242 512h9q62 -238 164 -589q19 -64 30 -80t44 -18zM260 571l-112 -240q-4 -10 -4 -14q0 -11 23 -11h157q10 0 10 8q0 6 -3 17l-62 238q-2 9 -5 9zM371 724h-18l-134 103q-18 14 -18 30q0 11 8.5 20t22.5 9q15 0 31 -21z" />
    <glyph glyph-name="Aacute" unicode="&#xc1;" horiz-adv-x="537" 
d="M548 21v-23q-98 2 -103 2q-27 0 -103 -2v18q40 3 51.5 7.5t11.5 14.5q0 19 -22 97l-16 58.5l-16 58t-9 28.5q-2 4 -19 4h-151q-36 0 -42 -3t-14.5 -20t-25 -55l-22.5 -52q-49 -107 -49 -120q0 -7 12 -10t67 -8v-18q-20 0 -39.5 0.5t-30 1t-18.5 0.5q-15 0 -44 -1t-39 -1
v23q35 3 51 22q11 14 81 153l242 512h9q62 -238 164 -589q19 -64 30 -80t44 -18zM260 571l-112 -240q-4 -10 -4 -14q0 -11 23 -11h157q10 0 10 8q0 6 -3 17l-62 238q-2 9 -5 9zM277 728h-20l128 129q29 29 45 29q12 0 20.5 -8.5t8.5 -20.5q0 -19 -26 -34z" />
    <glyph glyph-name="Acircumflex" unicode="&#xc2;" horiz-adv-x="537" 
d="M548 21v-23q-98 2 -103 2q-27 0 -103 -2v18q40 3 51.5 7.5t11.5 14.5q0 19 -22 97l-16 58.5l-16 58t-9 28.5q-2 4 -19 4h-151q-36 0 -42 -3t-14.5 -20t-25 -55l-22.5 -52q-49 -107 -49 -120q0 -7 12 -10t67 -8v-18q-20 0 -39.5 0.5t-30 1t-18.5 0.5q-15 0 -44 -1t-39 -1
v23q35 3 51 22q11 14 81 153l242 512h9q62 -238 164 -589q19 -64 30 -80t44 -18zM260 571l-112 -240q-4 -10 -4 -14q0 -11 23 -11h157q10 0 10 8q0 6 -3 17l-62 238q-2 9 -5 9zM171 728l142 156h44l76 -156h-18l-87 98l-137 -98h-20z" />
    <glyph glyph-name="Atilde" unicode="&#xc3;" horiz-adv-x="537" 
d="M548 21v-23q-98 2 -103 2q-27 0 -103 -2v18q40 3 51.5 7.5t11.5 14.5q0 19 -22 97l-16 58.5l-16 58t-9 28.5q-2 4 -19 4h-151q-36 0 -42 -3t-14.5 -20t-25 -55l-22.5 -52q-49 -107 -49 -120q0 -7 12 -10t67 -8v-18q-20 0 -39.5 0.5t-30 1t-18.5 0.5q-15 0 -44 -1t-39 -1
v23q35 3 51 22q11 14 81 153l242 512h9q62 -238 164 -589q19 -64 30 -80t44 -18zM260 571l-112 -240q-4 -10 -4 -14q0 -11 23 -11h157q10 0 10 8q0 6 -3 17l-62 238q-2 9 -5 9zM449 848h16q-26 -94 -95 -94q-27 0 -67 23q-40 22 -61 22q-33 0 -53 -44h-16q24 90 89 90
q27 0 71 -22q44 -23 60 -23q12 0 21.5 4.5t17.5 15.5t9.5 13.5t7.5 14.5z" />
    <glyph glyph-name="Adieresis" unicode="&#xc4;" horiz-adv-x="537" 
d="M548 21v-23q-98 2 -103 2q-27 0 -103 -2v18q40 3 51.5 7.5t11.5 14.5q0 19 -22 97l-16 58.5l-16 58t-9 28.5q-2 4 -19 4h-151q-36 0 -42 -3t-14.5 -20t-25 -55l-22.5 -52q-49 -107 -49 -120q0 -7 12 -10t67 -8v-18q-20 0 -39.5 0.5t-30 1t-18.5 0.5q-15 0 -44 -1t-39 -1
v23q35 3 51 22q11 14 81 153l242 512h9q62 -238 164 -589q19 -64 30 -80t44 -18zM260 571l-112 -240q-4 -10 -4 -14q0 -11 23 -11h157q10 0 10 8q0 6 -3 17l-62 238q-2 9 -5 9zM236 834q10 0 21.5 -9t11.5 -24q0 -24 -25 -40.5t-49 -16.5q-9 0 -9 9q0 29 12.5 55t37.5 26z
M416 834q10 0 21.5 -9t11.5 -24q0 -24 -25 -40.5t-50 -16.5q-8 0 -8 9q0 29 12.5 55t37.5 26z" />
    <glyph glyph-name="Aring" unicode="&#xc5;" horiz-adv-x="537" 
d="M548 21v-23q-98 2 -103 2q-27 0 -103 -2v18q40 3 51.5 7.5t11.5 14.5q0 19 -22 97l-16 58.5l-16 58t-9 28.5q-2 4 -19 4h-151q-36 0 -42 -3t-14.5 -20t-25 -55l-22.5 -52q-49 -107 -49 -120q0 -7 12 -10t67 -8v-18q-20 0 -39.5 0.5t-30 1t-18.5 0.5q-15 0 -44 -1t-39 -1
v23q35 3 51 22q11 14 81 153l242 512h9q62 -238 164 -589q19 -64 30 -80t44 -18zM260 571l-112 -240q-4 -10 -4 -14q0 -11 23 -11h157q10 0 10 8q0 6 -3 17l-62 238q-2 9 -5 9zM415 821q0 -38 -27.5 -65.5t-65.5 -27.5t-65.5 27.5t-27.5 65.5q0 39 27.5 66t65.5 27t65.5 -27
t27.5 -66zM389 821q0 28 -19.5 47.5t-47.5 19.5t-47.5 -19.5t-19.5 -47.5t19.5 -47t47.5 -19t47.5 19t19.5 47z" />
    <glyph glyph-name="AE" unicode="&#xc6;" horiz-adv-x="815" 
d="M-122 -2v23q32 8 48 28q17 20 71 95l352 508q9 13 9 15q0 4 -68 7v18q100 -2 141 -2h101q45 0 149 1t114 1l-25 -163h-28l3 59q3 50 -20 66t-111 16h-141l-41 -300l82 1q56 1 65 20q2 3 25 104h32q-21 -121 -38 -264h-31q5 60 5 91q0 16 -7 22t-32 6h-103
q-1 -4 -6.5 -46.5l-11.5 -85t-11 -89.5t-5 -68q0 -22 17 -31.5t59 -9.5h135q59 0 70 11q8 8 68 149h29l-35 -180h-362q-51 0 -131 -2v18l62 4l41 304h-196l-179 -275q-7 -14 -7 -15q0 -5 4.5 -7.5t24 -5t60.5 -3.5v-18q-128 0 -178 -2zM165 344h187l32 257q4 26 4 47
q0 10 -4 10t-11 -10z" />
    <glyph glyph-name="Ccedilla" unicode="&#xc7;" horiz-adv-x="685" 
d="M613 231l18 -1l-30 -170q-160 -78 -275 -78q-7 0 -9 1l-27 -45q10 3 25 3q37 0 55 -19t18 -44q0 -32 -29.5 -56t-73.5 -24q-36 0 -83 21l9 16q35 -15 59 -15q23 0 40.5 14t17.5 36q0 19 -13 30t-31 11q-10 0 -29 -7l-4 5l48 76q-113 9 -189 90.5t-76 225.5
q0 107 44 199.5t125.5 150t181.5 57.5q53 0 108.5 -18t90.5 -36t37 -18q5 0 14 21l28 -4l-24 -187l-20 1q-44 221 -221 221q-81 0 -147 -55.5t-100.5 -141.5t-34.5 -181q0 -141 72.5 -221.5t168.5 -80.5q159 0 256 223z" />
    <glyph glyph-name="Egrave" unicode="&#xc8;" horiz-adv-x="574" 
d="M132 671l-74 3v18q80 -2 153 -2q274 0 343 2l-24 -163h-29l3 69q2 31 -9 45.5t-45 21.5t-107 7h-129q-8 -49 -41 -302h65q52 0 69 5t24 16q8 13 26 104h31q-23 -147 -38 -264h-30q0 1 1.5 19.5t3 40.5t1.5 29q0 18 -7.5 24t-31.5 6h-116q-8 -54 -21.5 -163t-13.5 -126
q0 -25 14.5 -33t71.5 -8h145q58 0 70 11q6 6 18.5 34t27.5 65t21 50h29l-35 -180h-381q-51 0 -129 -2v18l61 4q13 85 43.5 323t39.5 328zM389 724h-18l-134 103q-18 14 -18 30q0 11 8.5 20t22.5 9q15 0 31 -21z" />
    <glyph glyph-name="Eacute" unicode="&#xc9;" horiz-adv-x="574" 
d="M132 671l-74 3v18q80 -2 153 -2q274 0 343 2l-24 -163h-29l3 69q2 31 -9 45.5t-45 21.5t-107 7h-129q-8 -49 -41 -302h65q52 0 69 5t24 16q8 13 26 104h31q-23 -147 -38 -264h-30q0 1 1.5 19.5t3 40.5t1.5 29q0 18 -7.5 24t-31.5 6h-116q-8 -54 -21.5 -163t-13.5 -126
q0 -25 14.5 -33t71.5 -8h145q58 0 70 11q6 6 18.5 34t27.5 65t21 50h29l-35 -180h-381q-51 0 -129 -2v18l61 4q13 85 43.5 323t39.5 328zM295 728h-20l128 129q29 29 45 29q12 0 20.5 -8.5t8.5 -20.5q0 -19 -26 -34z" />
    <glyph glyph-name="Ecircumflex" unicode="&#xca;" horiz-adv-x="574" 
d="M132 671l-74 3v18q80 -2 153 -2q274 0 343 2l-24 -163h-29l3 69q2 31 -9 45.5t-45 21.5t-107 7h-129q-8 -49 -41 -302h65q52 0 69 5t24 16q8 13 26 104h31q-23 -147 -38 -264h-30q0 1 1.5 19.5t3 40.5t1.5 29q0 18 -7.5 24t-31.5 6h-116q-8 -54 -21.5 -163t-13.5 -126
q0 -25 14.5 -33t71.5 -8h145q58 0 70 11q6 6 18.5 34t27.5 65t21 50h29l-35 -180h-381q-51 0 -129 -2v18l61 4q13 85 43.5 323t39.5 328zM193 728l142 156h44l76 -156h-18l-87 98l-137 -98h-20z" />
    <glyph glyph-name="Edieresis" unicode="&#xcb;" horiz-adv-x="574" 
d="M132 671l-74 3v18q80 -2 153 -2q274 0 343 2l-24 -163h-29l3 69q2 31 -9 45.5t-45 21.5t-107 7h-129q-8 -49 -41 -302h65q52 0 69 5t24 16q8 13 26 104h31q-23 -147 -38 -264h-30q0 1 1.5 19.5t3 40.5t1.5 29q0 18 -7.5 24t-31.5 6h-116q-8 -54 -21.5 -163t-13.5 -126
q0 -25 14.5 -33t71.5 -8h145q58 0 70 11q6 6 18.5 34t27.5 65t21 50h29l-35 -180h-381q-51 0 -129 -2v18l61 4q13 85 43.5 323t39.5 328zM254 834q10 0 21.5 -9t11.5 -24q0 -24 -25 -40.5t-49 -16.5q-9 0 -9 9q0 29 12.5 55t37.5 26zM434 834q10 0 21.5 -9t11.5 -24
q0 -24 -25 -40.5t-50 -16.5q-8 0 -8 9q0 29 12.5 55t37.5 26z" />
    <glyph glyph-name="Igrave" unicode="&#xcc;" horiz-adv-x="278" 
d="M140 20l63 -4v-18q-13 0 -48 1t-57 1q-36 0 -106 -2v18l65 4q14 84 44.5 324t38.5 327l-67 3v18q13 0 47.5 -1t57.5 -1q38 0 106 2v-18l-62 -3q-14 -92 -44 -328.5t-38 -322.5zM241 724h-18l-134 103q-18 14 -18 30q0 11 8.5 20t22.5 9q15 0 31 -21z" />
    <glyph glyph-name="Iacute" unicode="&#xcd;" horiz-adv-x="278" 
d="M140 20l63 -4v-18q-13 0 -48 1t-57 1q-36 0 -106 -2v18l65 4q14 84 44.5 324t38.5 327l-67 3v18q13 0 47.5 -1t57.5 -1q38 0 106 2v-18l-62 -3q-14 -92 -44 -328.5t-38 -322.5zM147 728h-20l128 129q29 29 45 29q12 0 20.5 -8.5t8.5 -20.5q0 -19 -26 -34z" />
    <glyph glyph-name="Icircumflex" unicode="&#xce;" horiz-adv-x="278" 
d="M140 20l63 -4v-18q-13 0 -48 1t-57 1q-36 0 -106 -2v18l65 4q14 84 44.5 324t38.5 327l-67 3v18q13 0 47.5 -1t57.5 -1q38 0 106 2v-18l-62 -3q-14 -92 -44 -328.5t-38 -322.5zM45 728l142 156h44l76 -156h-18l-87 98l-137 -98h-20z" />
    <glyph glyph-name="Idieresis" unicode="&#xcf;" horiz-adv-x="278" 
d="M140 20l63 -4v-18q-13 0 -48 1t-57 1q-36 0 -106 -2v18l65 4q14 84 44.5 324t38.5 327l-67 3v18q13 0 47.5 -1t57.5 -1q38 0 106 2v-18l-62 -3q-14 -92 -44 -328.5t-38 -322.5zM106 834q10 0 21.5 -9t11.5 -24q0 -24 -25 -40.5t-49 -16.5q-9 0 -9 9q0 29 12.5 55t37.5 26
zM286 834q10 0 21.5 -9t11.5 -24q0 -24 -25 -40.5t-50 -16.5q-8 0 -8 9q0 29 12.5 55t37.5 26z" />
    <glyph glyph-name="Eth" unicode="&#xd0;" horiz-adv-x="713" 
d="M0 340v28h96q31 253 36 302l-76 2v18q22 0 147.5 4t152.5 4q153 0 237.5 -89t84.5 -230q0 -99 -34 -173.5t-93.5 -118.5t-133 -65.5t-159.5 -21.5q-209 0 -270 -2v18l61 4q20 139 43 320h-92zM400 368v-28h-231q-35 -274 -35 -289q0 -12 7 -17.5t36.5 -9.5t90.5 -4
q148 0 238 105t90 253q0 140 -79.5 220t-226.5 80q-45 0 -60.5 -6.5t-19.5 -23.5q-3 -11 -37 -280h227z" />
    <glyph glyph-name="Ntilde" unicode="&#xd1;" horiz-adv-x="685" 
d="M-8 -2v18l61 4q12 82 44.5 327.5t32.5 255.5q0 15 -30 48q-23 22 -61 23v18q90 -2 144 -2l359 -558l32 269q28 246 30 270l-59 3v18q15 0 32 -0.5t27 -1t18 -0.5q2 0 78 2v-18l-60 -3q-12 -68 -20 -127q-57 -395 -74 -556h-8q-104 172 -387 597l-66 -565l65 -4v-18
q-58 2 -79 2q-15 0 -79 -2zM523 848h16q-26 -94 -95 -94q-27 0 -67 23q-40 22 -61 22q-33 0 -53 -44h-16q24 90 89 90q27 0 71 -22q44 -23 60 -23q12 0 21.5 4.5t17.5 15.5t9.5 13.5t7.5 14.5z" />
    <glyph glyph-name="Ograve" unicode="&#xd2;" horiz-adv-x="741" 
d="M397 708q70 0 126 -23t89.5 -58.5t55.5 -82t30 -88.5t8 -82q0 -158 -105 -275t-264 -117q-81 0 -142.5 31t-95 82t-49.5 106.5t-16 113.5q0 164 102.5 278.5t260.5 114.5zM395 690q-51 0 -100 -26t-89.5 -74t-65 -124t-24.5 -168q0 -147 63 -222.5t148 -75.5q67 0 125 38
t94.5 97t57 126.5t20.5 130.5q0 72 -24 138t-78 113t-127 47zM473 724h-18l-134 103q-18 14 -18 30q0 11 8.5 20t22.5 9q15 0 31 -21z" />
    <glyph glyph-name="Oacute" unicode="&#xd3;" horiz-adv-x="741" 
d="M397 708q70 0 126 -23t89.5 -58.5t55.5 -82t30 -88.5t8 -82q0 -158 -105 -275t-264 -117q-81 0 -142.5 31t-95 82t-49.5 106.5t-16 113.5q0 164 102.5 278.5t260.5 114.5zM395 690q-51 0 -100 -26t-89.5 -74t-65 -124t-24.5 -168q0 -147 63 -222.5t148 -75.5q67 0 125 38
t94.5 97t57 126.5t20.5 130.5q0 72 -24 138t-78 113t-127 47zM379 728h-20l128 129q29 29 45 29q12 0 20.5 -8.5t8.5 -20.5q0 -19 -26 -34z" />
    <glyph glyph-name="Ocircumflex" unicode="&#xd4;" horiz-adv-x="741" 
d="M397 708q70 0 126 -23t89.5 -58.5t55.5 -82t30 -88.5t8 -82q0 -158 -105 -275t-264 -117q-81 0 -142.5 31t-95 82t-49.5 106.5t-16 113.5q0 164 102.5 278.5t260.5 114.5zM395 690q-51 0 -100 -26t-89.5 -74t-65 -124t-24.5 -168q0 -147 63 -222.5t148 -75.5q67 0 125 38
t94.5 97t57 126.5t20.5 130.5q0 72 -24 138t-78 113t-127 47zM277 728l142 156h44l76 -156h-18l-87 98l-137 -98h-20z" />
    <glyph glyph-name="Otilde" unicode="&#xd5;" horiz-adv-x="741" 
d="M397 708q70 0 126 -23t89.5 -58.5t55.5 -82t30 -88.5t8 -82q0 -158 -105 -275t-264 -117q-81 0 -142.5 31t-95 82t-49.5 106.5t-16 113.5q0 164 102.5 278.5t260.5 114.5zM395 690q-51 0 -100 -26t-89.5 -74t-65 -124t-24.5 -168q0 -147 63 -222.5t148 -75.5q67 0 125 38
t94.5 97t57 126.5t20.5 130.5q0 72 -24 138t-78 113t-127 47zM551 848h16q-26 -94 -95 -94q-27 0 -67 23q-40 22 -61 22q-33 0 -53 -44h-16q24 90 89 90q27 0 71 -22q44 -23 60 -23q12 0 21.5 4.5t17.5 15.5t9.5 13.5t7.5 14.5z" />
    <glyph glyph-name="Odieresis" unicode="&#xd6;" horiz-adv-x="741" 
d="M397 708q70 0 126 -23t89.5 -58.5t55.5 -82t30 -88.5t8 -82q0 -158 -105 -275t-264 -117q-81 0 -142.5 31t-95 82t-49.5 106.5t-16 113.5q0 164 102.5 278.5t260.5 114.5zM395 690q-51 0 -100 -26t-89.5 -74t-65 -124t-24.5 -168q0 -147 63 -222.5t148 -75.5q67 0 125 38
t94.5 97t57 126.5t20.5 130.5q0 72 -24 138t-78 113t-127 47zM338 834q10 0 21.5 -9t11.5 -24q0 -24 -25 -40.5t-49 -16.5q-9 0 -9 9q0 29 12.5 55t37.5 26zM518 834q10 0 21.5 -9t11.5 -24q0 -24 -25 -40.5t-50 -16.5q-8 0 -8 9q0 29 12.5 55t37.5 26z" />
    <glyph glyph-name="multiply" unicode="&#xd7;" horiz-adv-x="600" 
d="M457 13l-171 171l-171 -171l-24 24l171 171l-171 171l24 24l171 -171l171 171l24 -24l-171 -171l171 -171z" />
    <glyph glyph-name="Oslash" unicode="&#xd8;" horiz-adv-x="741" 
d="M174 82l358 553q-57 55 -137 55q-51 0 -100 -26t-89.5 -74t-65 -124t-24.5 -168q0 -136 58 -216zM555 610l-359 -554q56 -56 131 -56q67 0 125 38t94.5 97t57 126.5t20.5 130.5q0 130 -69 218zM176 25l-73 -112h-39l85 130q-59 47 -87 120.5t-28 151.5q0 164 102.5 278.5
t260.5 114.5q92 0 157 -39l57 87h39l-68 -104q65 -50 94.5 -127t29.5 -151q0 -158 -105 -275t-264 -117q-94 0 -161 43z" />
    <glyph glyph-name="Ugrave" unicode="&#xd9;" horiz-adv-x="667" 
d="M61 674v18q9 1 53 -0.5t47 -1.5q2 0 26.5 0.5l50 1t33.5 0.5v-18l-65 -3l-51 -366q-11 -71 -11 -120q0 -83 46 -129t124 -46q77 0 128 50.5t73 130.5q24 87 63 480l-70 3v18q23 0 43 -0.5t29.5 -1t15.5 -0.5t41 1t43 1v-18l-50 -3l-51 -333q-17 -107 -35.5 -166
t-59.5 -105q-35 -40 -85.5 -62.5t-103.5 -22.5q-84 0 -153.5 59t-69.5 155q0 64 9 132l43 343zM440 724h-18l-134 103q-18 14 -18 30q0 11 8.5 20t22.5 9q15 0 31 -21z" />
    <glyph glyph-name="Uacute" unicode="&#xda;" horiz-adv-x="667" 
d="M61 674v18q9 1 53 -0.5t47 -1.5q2 0 26.5 0.5l50 1t33.5 0.5v-18l-65 -3l-51 -366q-11 -71 -11 -120q0 -83 46 -129t124 -46q77 0 128 50.5t73 130.5q24 87 63 480l-70 3v18q23 0 43 -0.5t29.5 -1t15.5 -0.5t41 1t43 1v-18l-50 -3l-51 -333q-17 -107 -35.5 -166
t-59.5 -105q-35 -40 -85.5 -62.5t-103.5 -22.5q-84 0 -153.5 59t-69.5 155q0 64 9 132l43 343zM346 728h-20l128 129q29 29 45 29q12 0 20.5 -8.5t8.5 -20.5q0 -19 -26 -34z" />
    <glyph glyph-name="Ucircumflex" unicode="&#xdb;" horiz-adv-x="667" 
d="M61 674v18q9 1 53 -0.5t47 -1.5q2 0 26.5 0.5l50 1t33.5 0.5v-18l-65 -3l-51 -366q-11 -71 -11 -120q0 -83 46 -129t124 -46q77 0 128 50.5t73 130.5q24 87 63 480l-70 3v18q23 0 43 -0.5t29.5 -1t15.5 -0.5t41 1t43 1v-18l-50 -3l-51 -333q-17 -107 -35.5 -166
t-59.5 -105q-35 -40 -85.5 -62.5t-103.5 -22.5q-84 0 -153.5 59t-69.5 155q0 64 9 132l43 343zM244 728l142 156h44l76 -156h-18l-87 98l-137 -98h-20z" />
    <glyph glyph-name="Udieresis" unicode="&#xdc;" horiz-adv-x="667" 
d="M61 674v18q9 1 53 -0.5t47 -1.5q2 0 26.5 0.5l50 1t33.5 0.5v-18l-65 -3l-51 -366q-11 -71 -11 -120q0 -83 46 -129t124 -46q77 0 128 50.5t73 130.5q24 87 63 480l-70 3v18q23 0 43 -0.5t29.5 -1t15.5 -0.5t41 1t43 1v-18l-50 -3l-51 -333q-17 -107 -35.5 -166
t-59.5 -105q-35 -40 -85.5 -62.5t-103.5 -22.5q-84 0 -153.5 59t-69.5 155q0 64 9 132l43 343zM305 834q10 0 21.5 -9t11.5 -24q0 -24 -25 -40.5t-49 -16.5q-9 0 -9 9q0 29 12.5 55t37.5 26zM485 834q10 0 21.5 -9t11.5 -24q0 -24 -25 -40.5t-50 -16.5q-8 0 -8 9
q0 29 12.5 55t37.5 26z" />
    <glyph glyph-name="Yacute" unicode="&#xdd;" horiz-adv-x="444" 
d="M-30 674v18q78 -2 106 -2q6 0 112 2v-18q-69 1 -69 -11q0 -2 14 -32l119 -253l129 202q49 76 49 85q0 8 -84 7v18q50 0 164 2v-24q-22 0 -34.5 -9.5t-40.5 -50.5l-166 -241q-6 -9 -7 -20l-40 -327l83 -4v-18q-21 0 -63 1t-61 1q-34 0 -124 -2v18l83 4l43 321l-79 159
q-75 150 -89 161q-12 10 -45 13zM230 728h-20l128 129q29 29 45 29q12 0 20.5 -8.5t8.5 -20.5q0 -19 -26 -34z" />
    <glyph glyph-name="Thorn" unicode="&#xde;" horiz-adv-x="500" 
d="M192 518l-43 -334q259 2 259 177q0 47 -17.5 79.5t-50 48.5t-68 22.5t-80.5 6.5zM131 20l77 -4v-18q-64 2 -110 2q-42 0 -110 -2v18l61 4q13 87 44 328t39 323l-67 3v18q14 0 50 -1t63 -1q44 0 114 2v-18l-78 -3q-12 -69 -20 -137q72 4 91 4q90 0 144.5 -46.5
t54.5 -124.5q0 -55 -38 -108t-120 -76q-56 -16 -179 -19z" />
    <glyph glyph-name="germandbls" unicode="&#xdf;" 
d="M-43 -216l-11 8q31 68 59 211l102 529q38 190 182 190q56 0 88.5 -36.5t32.5 -97.5q0 -68 -36.5 -115t-84.5 -58q-12 -3 -12 -9q0 -2 19 -12q16 -9 25.5 -16t28 -27t28.5 -53.5t10 -77.5q0 -82 -51 -156t-113 -74q-40 0 -62 24t-22 65q0 14 3.5 19t13.5 5q42 0 42 -16
q0 -3 -2.5 -20.5t-2.5 -20.5q0 -38 33 -38q17 0 32 17t32 68q31 85 31 175q0 55 -17 87.5t-66 35.5q-31 2 -32 7q-1 2 -1 5q0 7 7 9.5t43 7.5q34 4 63 57t29 149q0 78 -64 78q-79 0 -108 -154l-85 -435q-45 -220 -55 -242q-10 -20 -79 -89z" />
    <glyph glyph-name="agrave" unicode="&#xe0;" 
d="M392 65l9 -12q-94 -69 -130 -69q-27 0 -27 38q0 5 2.5 19.5t1.5 17.5q-2 -1 -27 -20t-58 -37t-59 -18q-40 0 -73 34t-33 98q0 26 7 57.5t29.5 73.5t57 76t96.5 59.5t142 30.5q8 25 18 30.5t55 6.5l-61 -265q-4 -19 -13 -57.5l-15 -64.5t-6 -29q0 -11 7 -11q9 0 77 42z
M269 150l35 152q14 60 14 66q0 22 -29 22q-75 0 -147 -77t-72 -185q0 -47 20 -70.5t56 -23.5q47 0 95 44q14 13 28 72zM315 464h-18l-134 103q-18 13 -18 30q0 11 8.5 20t22.5 9q15 0 31 -21z" />
    <glyph glyph-name="aacute" unicode="&#xe1;" 
d="M392 65l9 -12q-94 -69 -130 -69q-27 0 -27 38q0 5 2.5 19.5t1.5 17.5q-2 -1 -27 -20t-58 -37t-59 -18q-40 0 -73 34t-33 98q0 26 7 57.5t29.5 73.5t57 76t96.5 59.5t142 30.5q8 25 18 30.5t55 6.5l-61 -265q-4 -19 -13 -57.5l-15 -64.5t-6 -29q0 -11 7 -11q9 0 77 42z
M269 150l35 152q14 60 14 66q0 22 -29 22q-75 0 -147 -77t-72 -185q0 -47 20 -70.5t56 -23.5q47 0 95 44q14 13 28 72zM221 468h-20l128 129q29 29 45 29q12 0 20.5 -8.5t8.5 -20.5q0 -19 -26 -34z" />
    <glyph glyph-name="acircumflex" unicode="&#xe2;" 
d="M392 65l9 -12q-94 -69 -130 -69q-27 0 -27 38q0 5 2.5 19.5t1.5 17.5q-2 -1 -27 -20t-58 -37t-59 -18q-40 0 -73 34t-33 98q0 26 7 57.5t29.5 73.5t57 76t96.5 59.5t142 30.5q8 25 18 30.5t55 6.5l-61 -265q-4 -19 -13 -57.5l-15 -64.5t-6 -29q0 -11 7 -11q9 0 77 42z
M269 150l35 152q14 60 14 66q0 22 -29 22q-75 0 -147 -77t-72 -185q0 -47 20 -70.5t56 -23.5q47 0 95 44q14 13 28 72zM119 468l142 156h44l76 -156h-18l-87 98l-137 -98h-20z" />
    <glyph glyph-name="atilde" unicode="&#xe3;" 
d="M392 65l9 -12q-94 -69 -130 -69q-27 0 -27 38q0 5 2.5 19.5t1.5 17.5q-2 -1 -27 -20t-58 -37t-59 -18q-40 0 -73 34t-33 98q0 26 7 57.5t29.5 73.5t57 76t96.5 59.5t142 30.5q8 25 18 30.5t55 6.5l-61 -265q-4 -19 -13 -57.5l-15 -64.5t-6 -29q0 -11 7 -11q9 0 77 42z
M269 150l35 152q14 60 14 66q0 22 -29 22q-75 0 -147 -77t-72 -185q0 -47 20 -70.5t56 -23.5q47 0 95 44q14 13 28 72zM393 588h16q-26 -94 -95 -94q-27 0 -67 23q-40 22 -61 22q-33 0 -53 -44h-16q24 90 89 90q27 0 71 -22q44 -23 60 -23q12 0 21.5 4.5t17.5 15.5t9.5 13.5
t7.5 14.5z" />
    <glyph glyph-name="adieresis" unicode="&#xe4;" 
d="M392 65l9 -12q-94 -69 -130 -69q-27 0 -27 38q0 5 2.5 19.5t1.5 17.5q-2 -1 -27 -20t-58 -37t-59 -18q-40 0 -73 34t-33 98q0 26 7 57.5t29.5 73.5t57 76t96.5 59.5t142 30.5q8 25 18 30.5t55 6.5l-61 -265q-4 -19 -13 -57.5l-15 -64.5t-6 -29q0 -11 7 -11q9 0 77 42z
M269 150l35 152q14 60 14 66q0 22 -29 22q-75 0 -147 -77t-72 -185q0 -47 20 -70.5t56 -23.5q47 0 95 44q14 13 28 72zM180 574q10 0 21.5 -9t11.5 -24q0 -24 -25 -40.5t-49 -16.5q-9 0 -9 9q0 29 12.5 55t37.5 26zM360 574q10 0 21.5 -9t11.5 -24q0 -24 -25 -40.5
t-50 -16.5q-8 0 -8 9q0 29 12.5 55t37.5 26z" />
    <glyph glyph-name="aring" unicode="&#xe5;" 
d="M392 65l9 -12q-94 -69 -130 -69q-27 0 -27 38q0 5 2.5 19.5t1.5 17.5q-2 -1 -27 -20t-58 -37t-59 -18q-40 0 -73 34t-33 98q0 26 7 57.5t29.5 73.5t57 76t96.5 59.5t142 30.5q8 25 18 30.5t55 6.5l-61 -265q-4 -19 -13 -57.5l-15 -64.5t-6 -29q0 -11 7 -11q9 0 77 42z
M269 150l35 152q14 60 14 66q0 22 -29 22q-75 0 -147 -77t-72 -185q0 -47 20 -70.5t56 -23.5q47 0 95 44q14 13 28 72zM377 561q0 -38 -27.5 -65.5t-65.5 -27.5t-65.5 27.5t-27.5 65.5q0 39 27.5 66t65.5 27t65.5 -27t27.5 -66zM351 561q0 28 -19.5 47.5t-47.5 19.5
t-47.5 -19.5t-19.5 -47.5t19.5 -47t47.5 -19t47.5 19t19.5 47z" />
    <glyph glyph-name="ae" unicode="&#xe6;" horiz-adv-x="611" 
d="M234 107l54 239q3 10 3 27q0 18 -17 18q-25 0 -58.5 -18.5t-66.5 -50t-56 -83.5t-23 -110q0 -52 22 -73.5t53 -21.5q25 0 43 7t27 21t12 22.5t7 22.5zM371 450l-11 -59q-3 -9 2 -9l18 12q19 13 52 25.5t69 12.5q49 0 71 -21.5t22 -50.5q0 -24 -14.5 -48.5t-33 -43
t-58.5 -44.5t-67.5 -41.5l-82.5 -45.5q-14 -8 -17 -10.5t-3 -7.5q0 -31 29.5 -57.5t71.5 -26.5q35 0 67 22t70 71l13 -9q-15 -24 -27 -40t-35.5 -41.5t-53 -39t-62.5 -13.5q-23 0 -45 8.5t-36.5 19.5t-27 24.5t-17 21t-6.5 10.5q-1 0 -20 -15l-39 -29.5t-48 -27t-49 -12.5
q-42 0 -73.5 35.5t-31.5 98.5q0 45 17.5 91t52 89.5t96 74.5t139.5 39q6 26 12 29q9 4 56 8zM534 369q0 45 -42 45q-58 0 -118 -79t-60 -178q0 -10 4 -10q3 0 25 11.5t54 33.5t63 48t52.5 61t21.5 68z" />
    <glyph glyph-name="ccedilla" unicode="&#xe7;" horiz-adv-x="370" 
d="M312 121l11 -10q-72 -120 -162 -126l-28 -47q11 3 25 3q37 0 55 -19t18 -44q0 -32 -29.5 -56t-73.5 -24q-36 0 -83 21l9 16q35 -15 59 -15q23 0 40.5 14t17.5 36q0 19 -13 30t-31 11q-10 0 -29 -7l-4 5l48 76q-61 3 -96.5 50t-35.5 123q0 104 65 189t166 85
q51 0 81 -25.5t30 -58.5q0 -31 -20.5 -46.5t-47.5 -15.5q-16 0 -16 11q0 6 12 41.5t12 46.5q0 13 -13 21t-29 8q-67 0 -117.5 -80t-50.5 -179q0 -69 30 -96t67 -27t66.5 22.5t66.5 66.5z" />
    <glyph glyph-name="egrave" unicode="&#xe8;" horiz-adv-x="370" 
d="M309 128l13 -9q-80 -135 -178 -135q-67 0 -102 50t-35 120q0 105 72 191.5t175 86.5q44 0 68 -20t24 -53q0 -53 -57.5 -100.5t-183.5 -115.5q-24 -13 -24 -20q0 -34 25 -61.5t66 -27.5q70 0 137 94zM286 366q0 48 -40 48q-63 0 -116 -81.5t-53 -171.5q0 -9 6 -9
q3 0 23.5 11.5t50.5 32.5t59 46.5t49.5 59t20.5 64.5zM287 464h-18l-134 103q-18 13 -18 30q0 11 8.5 20t22.5 9q15 0 31 -21z" />
    <glyph glyph-name="eacute" unicode="&#xe9;" horiz-adv-x="370" 
d="M309 128l13 -9q-80 -135 -178 -135q-67 0 -102 50t-35 120q0 105 72 191.5t175 86.5q44 0 68 -20t24 -53q0 -53 -57.5 -100.5t-183.5 -115.5q-24 -13 -24 -20q0 -34 25 -61.5t66 -27.5q70 0 137 94zM286 366q0 48 -40 48q-63 0 -116 -81.5t-53 -171.5q0 -9 6 -9
q3 0 23.5 11.5t50.5 32.5t59 46.5t49.5 59t20.5 64.5zM193 468h-20l128 129q29 29 45 29q12 0 20.5 -8.5t8.5 -20.5q0 -19 -26 -34z" />
    <glyph glyph-name="ecircumflex" unicode="&#xea;" horiz-adv-x="370" 
d="M309 128l13 -9q-80 -135 -178 -135q-67 0 -102 50t-35 120q0 105 72 191.5t175 86.5q44 0 68 -20t24 -53q0 -53 -57.5 -100.5t-183.5 -115.5q-24 -13 -24 -20q0 -34 25 -61.5t66 -27.5q70 0 137 94zM286 366q0 48 -40 48q-63 0 -116 -81.5t-53 -171.5q0 -9 6 -9
q3 0 23.5 11.5t50.5 32.5t59 46.5t49.5 59t20.5 64.5zM91 468l142 156h44l76 -156h-18l-87 98l-137 -98h-20z" />
    <glyph glyph-name="edieresis" unicode="&#xeb;" horiz-adv-x="370" 
d="M309 128l13 -9q-80 -135 -178 -135q-67 0 -102 50t-35 120q0 105 72 191.5t175 86.5q44 0 68 -20t24 -53q0 -53 -57.5 -100.5t-183.5 -115.5q-24 -13 -24 -20q0 -34 25 -61.5t66 -27.5q70 0 137 94zM286 366q0 48 -40 48q-63 0 -116 -81.5t-53 -171.5q0 -9 6 -9
q3 0 23.5 11.5t50.5 32.5t59 46.5t49.5 59t20.5 64.5zM152 574q10 0 21.5 -9t11.5 -24q0 -24 -25 -40.5t-49 -16.5q-9 0 -9 9q0 29 12.5 55t37.5 26zM332 574q10 0 21.5 -9t11.5 -24q0 -24 -25 -40.5t-50 -16.5q-8 0 -8 9q0 29 12.5 55t37.5 26z" />
    <glyph glyph-name="igrave" unicode="&#xec;" horiz-adv-x="204" 
d="M22 359l-8 13q73 60 118 60q15 0 25 -10t10 -24t-8 -48l-70 -288q-5 -22 -5 -26q0 -12 9 -12t70 39l8 -13q-87 -62 -119 -62q-34 0 -34 37q0 10 6 34l64 266q13 57 13 62q0 11 -9 11q-12 0 -70 -39zM204 464h-18l-134 103q-18 13 -18 30q0 11 8.5 20t22.5 9q15 0 31 -21z
" />
    <glyph glyph-name="iacute" unicode="&#xed;" horiz-adv-x="204" 
d="M22 359l-8 13q73 60 118 60q15 0 25 -10t10 -24t-8 -48l-70 -288q-5 -22 -5 -26q0 -12 9 -12t70 39l8 -13q-87 -62 -119 -62q-34 0 -34 37q0 10 6 34l64 266q13 57 13 62q0 11 -9 11q-12 0 -70 -39zM110 468h-20l128 129q29 29 45 29q12 0 20.5 -8.5t8.5 -20.5
q0 -19 -26 -34z" />
    <glyph glyph-name="icircumflex" unicode="&#xee;" horiz-adv-x="204" 
d="M22 359l-8 13q73 60 118 60q15 0 25 -10t10 -24t-8 -48l-70 -288q-5 -22 -5 -26q0 -12 9 -12t70 39l8 -13q-87 -62 -119 -62q-34 0 -34 37q0 10 6 34l64 266q13 57 13 62q0 11 -9 11q-12 0 -70 -39zM4 468l142 156h44l76 -156h-18l-87 98l-137 -98h-20z" />
    <glyph glyph-name="idieresis" unicode="&#xef;" horiz-adv-x="204" 
d="M22 359l-8 13q73 60 118 60q15 0 25 -10t10 -24t-8 -48l-70 -288q-5 -22 -5 -26q0 -12 9 -12t70 39l8 -13q-87 -62 -119 -62q-34 0 -34 37q0 10 6 34l64 266q13 57 13 62q0 11 -9 11q-12 0 -70 -39zM69 574q10 0 21.5 -9t11.5 -24q0 -24 -25 -40.5t-49 -16.5q-9 0 -9 9
q0 29 12.5 55t37.5 26zM249 574q10 0 21.5 -9t11.5 -24q0 -24 -25 -40.5t-50 -16.5q-8 0 -8 9q0 29 12.5 55t37.5 26z" />
    <glyph glyph-name="eth" unicode="&#xf0;" 
d="M220 568l-140 -55l-7 21l137 55l-54 109l59 23l54 -109l137 54l8 -21l-134 -53q64 -132 86.5 -195.5t23.5 -135.5q0 -123 -62.5 -200t-150.5 -77q-46 0 -80 19t-51.5 49t-25.5 60.5t-8 61.5q0 95 57 176.5t141 81.5q24 0 63 -12q2 -1 6 -1q5 0 5 4q0 8 -64 145zM80 143
q0 -57 22 -99t69 -42q40 0 71 30.5t47.5 76t24.5 88t8 75.5q0 61 -23.5 101.5t-64.5 40.5q-62 0 -108 -88.5t-46 -182.5z" />
    <glyph glyph-name="ntilde" unicode="&#xf1;" horiz-adv-x="444" 
d="M11 361l-9 12q77 59 110 59q42 0 42 -58q0 -4 -1 -16.5t-1 -17.5q0 -2 1 -2q2 0 16 10q121 84 172 84q30 0 44.5 -20t14.5 -44q0 -28 -8 -61l-57 -237q-7 -32 -7 -38q0 -8 7 -8q12 0 79 49l10 -12q-80 -67 -121 -67q-16 0 -27.5 10t-11.5 30q0 7 12 60l51 214q9 36 9 48
q0 28 -38 28q-29 0 -66 -16t-59 -32q-15 -11 -21.5 -25t-15.5 -57l-53 -254h-65l69 325q7 34 7 54q0 17 -14 17q-17 0 -69 -35zM402 588h16q-26 -94 -95 -94q-27 0 -67 23q-40 22 -61 22q-33 0 -53 -44h-16q24 90 89 90q27 0 71 -22q44 -23 60 -23q12 0 21.5 4.5t17.5 15.5
t9.5 13.5t7.5 14.5z" />
    <glyph glyph-name="ograve" unicode="&#xf2;" 
d="M10 174q0 97 60.5 177.5t157.5 80.5q78 0 119 -56.5t41 -137.5q0 -108 -63.5 -181t-149.5 -73q-46 0 -80 19t-51.5 49t-25.5 60.5t-8 61.5zM78 143q0 -57 22 -99t69 -42q40 0 71 30.5t47.5 76t24.5 88t8 75.5q0 61 -23.5 101.5t-64.5 40.5q-62 0 -108 -88.5t-46 -182.5z
M315 464h-18l-134 103q-18 13 -18 30q0 11 8.5 20t22.5 9q15 0 31 -21z" />
    <glyph glyph-name="oacute" unicode="&#xf3;" 
d="M10 174q0 97 60.5 177.5t157.5 80.5q78 0 119 -56.5t41 -137.5q0 -108 -63.5 -181t-149.5 -73q-46 0 -80 19t-51.5 49t-25.5 60.5t-8 61.5zM78 143q0 -57 22 -99t69 -42q40 0 71 30.5t47.5 76t24.5 88t8 75.5q0 61 -23.5 101.5t-64.5 40.5q-62 0 -108 -88.5t-46 -182.5z
M221 468h-20l128 129q29 29 45 29q12 0 20.5 -8.5t8.5 -20.5q0 -19 -26 -34z" />
    <glyph glyph-name="ocircumflex" unicode="&#xf4;" 
d="M10 174q0 97 60.5 177.5t157.5 80.5q78 0 119 -56.5t41 -137.5q0 -108 -63.5 -181t-149.5 -73q-46 0 -80 19t-51.5 49t-25.5 60.5t-8 61.5zM78 143q0 -57 22 -99t69 -42q40 0 71 30.5t47.5 76t24.5 88t8 75.5q0 61 -23.5 101.5t-64.5 40.5q-62 0 -108 -88.5t-46 -182.5z
M119 468l142 156h44l76 -156h-18l-87 98l-137 -98h-20z" />
    <glyph glyph-name="otilde" unicode="&#xf5;" 
d="M10 174q0 97 60.5 177.5t157.5 80.5q78 0 119 -56.5t41 -137.5q0 -108 -63.5 -181t-149.5 -73q-46 0 -80 19t-51.5 49t-25.5 60.5t-8 61.5zM78 143q0 -57 22 -99t69 -42q40 0 71 30.5t47.5 76t24.5 88t8 75.5q0 61 -23.5 101.5t-64.5 40.5q-62 0 -108 -88.5t-46 -182.5z
M393 588h16q-26 -94 -95 -94q-27 0 -67 23q-40 22 -61 22q-33 0 -53 -44h-16q24 90 89 90q27 0 71 -22q44 -23 60 -23q12 0 21.5 4.5t17.5 15.5t9.5 13.5t7.5 14.5z" />
    <glyph glyph-name="odieresis" unicode="&#xf6;" 
d="M10 174q0 97 60.5 177.5t157.5 80.5q78 0 119 -56.5t41 -137.5q0 -108 -63.5 -181t-149.5 -73q-46 0 -80 19t-51.5 49t-25.5 60.5t-8 61.5zM78 143q0 -57 22 -99t69 -42q40 0 71 30.5t47.5 76t24.5 88t8 75.5q0 61 -23.5 101.5t-64.5 40.5q-62 0 -108 -88.5t-46 -182.5z
M180 574q10 0 21.5 -9t11.5 -24q0 -24 -25 -40.5t-49 -16.5q-9 0 -9 9q0 29 12.5 55t37.5 26zM360 574q10 0 21.5 -9t11.5 -24q0 -24 -25 -40.5t-50 -16.5q-8 0 -8 9q0 29 12.5 55t37.5 26z" />
    <glyph glyph-name="divide" unicode="&#xf7;" horiz-adv-x="600" 
d="M323 356q0 -15 -10.5 -25.5t-25.5 -10.5t-25.5 10.5t-10.5 25.5q0 14 10.5 25t25.5 11t25.5 -11t10.5 -25zM323 59q0 -14 -10.5 -24.5t-25.5 -10.5t-25.5 10.5t-10.5 24.5q0 15 10.5 26t25.5 11t25.5 -11t10.5 -26zM78 191v34h416v-34h-416z" />
    <glyph glyph-name="oslash" unicode="&#xf8;" 
d="M90 67l204 310q-26 37 -62 37q-62 0 -108 -88.5t-46 -182.5q0 -44 12 -76zM308 349l-204 -311q25 -36 65 -36t71 30.5t47.5 76t24.5 88t8 75.5q0 44 -12 77zM85 9l-63 -96h-32l74 114q-54 54 -54 147q0 97 60.5 177.5t157.5 80.5q51 0 86 -25l54 84h32l-66 -101
q54 -54 54 -152q0 -108 -63.5 -181t-149.5 -73q-52 0 -90 25z" />
    <glyph glyph-name="ugrave" unicode="&#xf9;" horiz-adv-x="444" 
d="M7 348l-8 13q89 65 123 65q36 0 36 -40q0 -12 -9 -49l-44 -200q-8 -35 -8 -51q0 -54 48 -54q39 0 106 35q11 5 14 18l80 335h65l-86 -359q-4 -12 -4 -26q0 -11 7 -11t86 53l9 -13q-94 -76 -134 -76q-34 0 -34 39q0 5 1.5 12t2 9t-1.5 4q-3 0 -29 -16t-62.5 -32t-64.5 -16
q-67 0 -67 90q0 29 7 59l47 210q5 22 5 28q0 11 -11 11q-9 0 -74 -38zM320 464h-18l-134 103q-18 13 -18 30q0 11 8.5 20t22.5 9q15 0 31 -21z" />
    <glyph glyph-name="uacute" unicode="&#xfa;" horiz-adv-x="444" 
d="M7 348l-8 13q89 65 123 65q36 0 36 -40q0 -12 -9 -49l-44 -200q-8 -35 -8 -51q0 -54 48 -54q39 0 106 35q11 5 14 18l80 335h65l-86 -359q-4 -12 -4 -26q0 -11 7 -11t86 53l9 -13q-94 -76 -134 -76q-34 0 -34 39q0 5 1.5 12t2 9t-1.5 4q-3 0 -29 -16t-62.5 -32t-64.5 -16
q-67 0 -67 90q0 29 7 59l47 210q5 22 5 28q0 11 -11 11q-9 0 -74 -38zM230 468h-20l128 129q29 29 45 29q12 0 20.5 -8.5t8.5 -20.5q0 -19 -26 -34z" />
    <glyph glyph-name="ucircumflex" unicode="&#xfb;" horiz-adv-x="444" 
d="M7 348l-8 13q89 65 123 65q36 0 36 -40q0 -12 -9 -49l-44 -200q-8 -35 -8 -51q0 -54 48 -54q39 0 106 35q11 5 14 18l80 335h65l-86 -359q-4 -12 -4 -26q0 -11 7 -11t86 53l9 -13q-94 -76 -134 -76q-34 0 -34 39q0 5 1.5 12t2 9t-1.5 4q-3 0 -29 -16t-62.5 -32t-64.5 -16
q-67 0 -67 90q0 29 7 59l47 210q5 22 5 28q0 11 -11 11q-9 0 -74 -38zM124 468l142 156h44l76 -156h-18l-87 98l-137 -98h-20z" />
    <glyph glyph-name="udieresis" unicode="&#xfc;" horiz-adv-x="444" 
d="M7 348l-8 13q89 65 123 65q36 0 36 -40q0 -12 -9 -49l-44 -200q-8 -35 -8 -51q0 -54 48 -54q39 0 106 35q11 5 14 18l80 335h65l-86 -359q-4 -12 -4 -26q0 -11 7 -11t86 53l9 -13q-94 -76 -134 -76q-34 0 -34 39q0 5 1.5 12t2 9t-1.5 4q-3 0 -29 -16t-62.5 -32t-64.5 -16
q-67 0 -67 90q0 29 7 59l47 210q5 22 5 28q0 11 -11 11q-9 0 -74 -38zM189 574q10 0 21.5 -9t11.5 -24q0 -24 -25 -40.5t-49 -16.5q-9 0 -9 9q0 29 12.5 55t37.5 26zM369 574q10 0 21.5 -9t11.5 -24q0 -24 -25 -40.5t-50 -16.5q-8 0 -8 9q0 29 12.5 55t37.5 26z" />
    <glyph glyph-name="yacute" unicode="&#xfd;" horiz-adv-x="333" 
d="M-47 362l-9 12q33 32 52.5 45t40.5 13q56 0 85 -118q25 -103 38 -244h2q103 177 123 240q7 23 7 38q0 48 -62 51l-2 13q36 28 58 28q20 0 33 -17.5t13 -40.5q0 -42 -28.5 -100t-114.5 -201q-159 -266 -215 -341l-27 42q88 85 138 162q15 21 15 51q0 84 -28.5 238.5
t-69.5 154.5q-16 0 -49 -26zM169 468h-20l128 129q29 29 45 29q12 0 20.5 -8.5t8.5 -20.5q0 -19 -26 -34z" />
    <glyph glyph-name="thorn" unicode="&#xfe;" 
d="M67 6l-53 -250h-51q-15 0 -11 16l97 456q94 439 94 446q0 8 -9 8q-1 0 -50 -6v18l145 26q-5 -17 -14 -52l-17 -66t-9 -34l-43 -191q-2 -8 -2 -9q0 -2 2 -2q1 0 22.5 16.5t53.5 33t59 16.5q50 0 81.5 -44.5t31.5 -117.5q0 -111 -66.5 -196.5t-164.5 -85.5q-45 0 -96 18z
M127 285l-56 -261q28 -8 54 -8q64 0 110.5 41.5t66.5 96t20 109.5q0 56 -22 87.5t-58 31.5q-22 0 -52 -12.5t-43 -27.5q-8 -8 -11 -16.5t-9 -40.5z" />
    <glyph glyph-name="ydieresis" unicode="&#xff;" horiz-adv-x="333" 
d="M-47 362l-9 12q33 32 52.5 45t40.5 13q56 0 85 -118q25 -103 38 -244h2q103 177 123 240q7 23 7 38q0 48 -62 51l-2 13q36 28 58 28q20 0 33 -17.5t13 -40.5q0 -42 -28.5 -100t-114.5 -201q-159 -266 -215 -341l-27 42q88 85 138 162q15 21 15 51q0 84 -28.5 238.5
t-69.5 154.5q-16 0 -49 -26zM130 574q10 0 21.5 -9t11.5 -24q0 -24 -25 -40.5t-49 -16.5q-9 0 -9 9q0 29 12.5 55t37.5 26zM310 574q10 0 21.5 -9t11.5 -24q0 -24 -25 -40.5t-50 -16.5q-8 0 -8 9q0 29 12.5 55t37.5 26z" />
    <glyph glyph-name="dotlessi" unicode="&#x131;" horiz-adv-x="204" 
d="M22 359l-8 13q73 60 118 60q15 0 25 -10t10 -24t-8 -48l-70 -288q-5 -22 -5 -26q0 -12 9 -12t70 39l8 -13q-87 -62 -119 -62q-34 0 -34 37q0 10 6 34l64 266q13 57 13 62q0 11 -9 11q-12 0 -70 -39z" />
    <glyph glyph-name="Lslash" unicode="&#x141;" horiz-adv-x="537" 
d="M415 25l88 162h29l-53 -189q-56 2 -127 2h-212q-91 0 -152 -2v18l61 4q17 116 36 267l-96 -59v33l101 62q32 247 42 348l-65 3v18q13 0 47.5 -1t58.5 -1q39 0 105 2v-18l-64 -3q-18 -119 -40 -297l174 107v-33l-179 -110q-33 -251 -33 -279t17 -32q19 -5 159 -5
q54 0 103 3z" />
    <glyph glyph-name="lslash" unicode="&#x142;" horiz-adv-x="204" 
d="M174 70l8 -13q-89 -69 -126 -69q-39 0 -39 49q0 30 23 133l39 173l-90 -53v27l97 57l61 271q4 18 4 23q0 8 -12 8t-55 -4v20l153 28q-4 -17 -35.5 -140t-36.5 -145l-4 -17l90 53v-27l-97 -57l-28 -122q-45 -197 -45 -230q0 -13 10 -13q14 0 83 48z" />
    <glyph glyph-name="OE" unicode="&#x152;" horiz-adv-x="944" 
d="M922 692l-24 -163h-29l3 59q3 49 -23.5 65.5t-120.5 16.5h-128l-40 -300h53q56 2 71 4.5t22 16.5q3 6 26 104h31q-23 -133 -37 -264h-31q5 60 5 88q0 19 -7.5 25t-35.5 6h-100q-34 -264 -34 -289t15.5 -33t75.5 -8h121q58 0 70 11q6 6 18 34.5l26.5 64t22.5 50.5h29
l-35 -180h-277q-53 0 -141 -8t-116 -8q-135 0 -216.5 87.5t-81.5 241.5q0 60 15 117t45.5 106.5t74 87.5t103.5 59.5t130 21.5q11 0 107 -7q82 -8 144 -8h26q207 0 243 2zM442 59l43 331q30 240 30 250q0 22 -31.5 34.5t-86.5 12.5q-67 0 -123 -37.5t-89 -96t-51 -124.5
t-18 -128q0 -134 60 -216.5t158 -82.5q55 0 89 16q9 4 12.5 12t6.5 29z" />
    <glyph glyph-name="oe" unicode="&#x153;" horiz-adv-x="685" 
d="M601 366q0 48 -42 48q-61 0 -124 -77.5t-63 -173.5q0 -19 8 -19q9 4 24 12t53 33t67 50t53 60t24 67zM624 128l13 -9q-15 -24 -26 -39t-35 -41.5t-54 -40.5t-64 -14q-30 0 -55.5 11.5t-38.5 24.5t-24.5 27t-13.5 15q-27 -35 -67.5 -56.5t-83.5 -21.5q-46 0 -80 19
t-51.5 49t-25.5 60.5t-8 61.5q0 97 60.5 177.5t157.5 80.5t141 -97q32 36 87 66.5t112 30.5q50 0 71.5 -21.5t21.5 -51.5q0 -54 -59 -102t-187 -115q-24 -12 -29 -16t-5 -11q0 -6 5.5 -17.5t16 -26.5t32.5 -26t49 -11q74 0 140 94zM78 143q0 -57 22 -99t69 -42q40 0 71 30.5
t47.5 76t24.5 88t8 75.5q0 61 -23.5 101.5t-64.5 40.5q-62 0 -108 -88.5t-46 -182.5z" />
    <glyph glyph-name="Scaron" unicode="&#x160;" horiz-adv-x="500" 
d="M4 0l25 186l19 -1q11 -79 58 -131t123 -52q71 0 106 45t35 101q0 40 -17 72t-44.5 53.5t-61 40.5l-67 38.5t-61 42t-44.5 56.5t-17 77q0 73 56 126.5t144 53.5q45 0 107 -16.5t65 -16.5q16 0 24 16l25 -2l-25 -182l-19 2q-5 49 -23.5 85.5t-45 56t-53 28.5t-52.5 9
q-63 0 -98 -40.5t-35 -89.5q0 -48 33 -84t79.5 -61l93 -52t79.5 -71.5t33 -105.5q0 -82 -61 -142t-153 -60q-45 0 -110.5 17t-72.5 17t-11 -2.5t-6 -5.5t-6 -11zM446 884l-142 -156h-45l-77 156h19l87 -98l137 98h21z" />
    <glyph glyph-name="scaron" unicode="&#x161;" horiz-adv-x="296" 
d="M190 90q0 27 -16.5 49t-39.5 38.5l-46 33.5t-39.5 42.5t-16.5 57.5q0 46 34 83.5t99 37.5q51 0 82 -26.5t31 -62.5q0 -23 -12 -37.5t-25 -14.5q-8 0 -15.5 7.5t-7.5 23.5q0 22 16 60q-6 12 -27.5 22t-41.5 10q-35 0 -54 -24t-19 -52q0 -26 16.5 -48t39.5 -39l46 -35
t39.5 -44.5t16.5 -58.5q0 -54 -40.5 -91.5t-99.5 -37.5q-53 0 -85.5 28.5t-32.5 67.5q0 26 15.5 45.5t32.5 19.5q20 0 20 -26q0 -21 -24 -76q38 -41 73 -41q34 0 57.5 26.5t23.5 61.5zM344 624l-142 -156h-45l-77 156h19l87 -98l137 98h21z" />
    <glyph glyph-name="Ydieresis" unicode="&#x178;" horiz-adv-x="444" 
d="M-30 674v18q78 -2 106 -2q6 0 112 2v-18q-69 1 -69 -11q0 -2 14 -32l119 -253l129 202q49 76 49 85q0 8 -84 7v18q50 0 164 2v-24q-22 0 -34.5 -9.5t-40.5 -50.5l-166 -241q-6 -9 -7 -20l-40 -327l83 -4v-18q-21 0 -63 1t-61 1q-34 0 -124 -2v18l83 4l43 321l-79 159
q-75 150 -89 161q-12 10 -45 13zM193 834q10 0 21.5 -9t11.5 -24q0 -24 -25 -40.5t-49 -16.5q-9 0 -9 9q0 29 12.5 55t37.5 26zM373 834q10 0 21.5 -9t11.5 -24q0 -24 -25 -40.5t-50 -16.5q-8 0 -8 9q0 29 12.5 55t37.5 26z" />
    <glyph glyph-name="Zcaron" unicode="&#x17d;" horiz-adv-x="500" 
d="M-35 0v9l371 533l84 129l-202 -3q-91 -1 -120.5 -29.5t-37.5 -116.5h-32l19 170q116 -2 194 -2h116q58 0 170 2v-8l-456 -664l223 4q64 2 97.5 35t59.5 127h31l-33 -188q-107 2 -143 2h-341zM442 884l-142 -156h-45l-77 156h19l87 -98l137 98h21z" />
    <glyph glyph-name="zcaron" unicode="&#x17e;" horiz-adv-x="352" 
d="M324 83l12 -10q-26 -32 -38.5 -46t-33 -28.5t-38.5 -14.5q-26 0 -80 36q-56 35 -88 35q-25 0 -42 -17q8 -22 8 -39q0 -14 -7.5 -25.5t-21.5 -11.5q-23 0 -23 26q0 35 45 83l268 289l-2 2q-16 -4 -35 -4q-9 0 -55 3t-54 3q-39 0 -57 -11t-40 -47l-14 7l55 99q30 12 66 12
q4 0 22.5 -1.5t28.5 -1.5q42 -4 50 -4q63 0 116 25l10 -10l-302 -327l2 -2q10 2 21 2q35 0 87 -32.5t71 -32.5q14 0 27 7t19.5 13.5zM372 624l-142 -156h-45l-77 156h19l87 -98l137 98h21z" />
    <glyph glyph-name="florin" unicode="&#x192;" horiz-adv-x="352" 
d="M38 361v34h98q9 67 15 100t21.5 74t40.5 73q63 80 138 80q14 0 32 -2l-11 -51q-49 7 -79 7q-21 0 -31 -8t-18 -34q-14 -48 -26 -152l-11 -87h96v-34h-100l-38 -296q-12 -92 -33.5 -142t-63.5 -90q-25 -24 -55 -36.5t-50 -12.5q-24 0 -62 6l8 51l49 -5q49 -6 61 -6
q18 0 26 7.5t16 32.5q15 50 26 133l45 358h-94z" />
    <glyph glyph-name="circumflex" unicode="&#x2c6;" horiz-adv-x="204" 
d="M8 468l142 156h44l76 -156h-18l-87 98l-137 -98h-20z" />
    <glyph glyph-name="caron" unicode="&#x2c7;" horiz-adv-x="204" 
d="M298 624l-142 -156h-45l-77 156h19l87 -98l137 98h21z" />
    <glyph glyph-name="uni02C9" unicode="&#x2c9;" horiz-adv-x="204" 
d="M274 506h-272l6 46h272z" />
    <glyph glyph-name="breve" unicode="&#x2d8;" horiz-adv-x="204" 
d="M28 605h20q0 -43 21.5 -65t72.5 -22q89 0 122 87h18q-3 -14 -7 -26.5t-15.5 -34.5t-26 -37t-39.5 -27t-56 -12q-58 0 -82.5 32.5t-27.5 104.5z" />
    <glyph glyph-name="dotaccent" unicode="&#x2d9;" horiz-adv-x="204" 
d="M156 575q10 0 22 -9t12 -25q0 -24 -26 -41t-52 -17q-8 0 -8 8q0 31 13 57.5t39 26.5z" />
    <glyph glyph-name="ring" unicode="&#x2da;" horiz-adv-x="204" 
d="M266 561q0 -38 -27.5 -65.5t-65.5 -27.5t-65.5 27.5t-27.5 65.5q0 39 27.5 66t65.5 27t65.5 -27t27.5 -66zM240 561q0 28 -19.5 47.5t-47.5 19.5t-47.5 -19.5t-19.5 -47.5t19.5 -47t47.5 -19t47.5 19t19.5 47z" />
    <glyph glyph-name="ogonek" unicode="&#x2db;" horiz-adv-x="204" 
d="M163 11v-9q-143 -50 -143 -120q0 -22 16.5 -34.5t37.5 -12.5q31 0 97 32l9 -15l-43.5 -26t-41 -18t-52.5 -10q-37 0 -60 20t-23 52q0 17 7 34t26.5 38t63 39.5t106.5 29.5z" />
    <glyph glyph-name="tilde" unicode="&#x2dc;" horiz-adv-x="204" 
d="M282 588h16q-26 -94 -95 -94q-27 0 -67 23q-40 22 -61 22q-33 0 -53 -44h-16q24 90 89 90q27 0 71 -22q44 -23 60 -23q12 0 21.5 4.5t17.5 15.5t9.5 13.5t7.5 14.5z" />
    <glyph glyph-name="hungarumlaut" unicode="&#x2dd;" horiz-adv-x="204" 
d="M192 468h-20l128 129q1 1 5.5 5t5.5 5.5t5 4.5t5 4t4 3.5t5 3t5 1.5t5 1.5t5 0.5q11 0 19.5 -8t8.5 -21q0 -19 -23 -34zM77 464h-18l108 141q17 21 32 21q13 0 21 -9t8 -18q0 -20 -17 -32z" />
    <glyph glyph-name="uni03A9" unicode="&#x3a9;" horiz-adv-x="581" 
d="M522 121l-34 -121h-186l-2 14l32 54t41.5 73l35.5 71.5t35 89t18 86.5q19 144 -20 217.5t-109 73.5q-74 0 -130.5 -73t-75.5 -222q-9 -68 2 -145.5t23.5 -116.5t37.5 -108l-8 -14h-182l-1 121l18 1q6 -46 17 -60t35 -14h88q-117 162 -94 341q19 143 97 229t178 86
q101 0 154 -83t35 -226q-22 -165 -185 -347h87q28 0 40.5 12t31.5 62z" />
    <glyph glyph-name="uni03BC" unicode="&#x3bc;" horiz-adv-x="444" 
d="M7 348l-8 13q89 65 123 65q36 0 36 -40q0 -12 -9 -49l-44 -200q-8 -35 -8 -51q0 -54 48 -54q39 0 106 35q11 5 14 18l80 335h65l-86 -359q-4 -12 -4 -26q0 -11 7 -11t86 53l9 -13q-94 -76 -134 -76q-34 0 -34 39q0 5 1.5 12t2 9t-1.5 4q-3 0 -28.5 -16t-58.5 -31.5
t-55 -15.5q-2 0 -20 5q-10 5 -16 5q-4 0 -7 -15l-47 -212q-2 -10 -6.5 -13t-18.5 -3h-29q-12 0 -12 6q0 9 2 15l127 570q5 20 5 28q0 11 -11 11q-9 0 -74 -38z" />
    <glyph glyph-name="pi" unicode="&#x3c0;" horiz-adv-x="472" 
d="M440 462l19 -8q-11 -33 -38 -68q-15 -4 -63 -4q-6 -27 -38 -255q-12 -94 29 -94q22 0 51 33l10 -15q-39 -63 -91 -63q-35 0 -49.5 27.5t-5.5 96.5q16 121 46 273q-106 2 -139 2l-3 -24q-14 -104 -38 -189.5t-41 -121t-27 -47.5q-30 -14 -51 -17l-3 14q95 106 134 386
q-30 0 -53 -6.5t-34.5 -14t-32.5 -24.5l-10 17q1 1 8.5 9t11 11l12 10.5t14.5 11.5t16 10t19 9.5t20.5 7t24.5 5t27 1.5q28 0 100 -2t119 -2q21 0 32 6t24 25z" />
    <glyph glyph-name="uni2010" unicode="&#x2010;" horiz-adv-x="259" 
d="M250 178h-240v60h240v-60z" />
    <glyph glyph-name="endash" unicode="&#x2013;" horiz-adv-x="500" 
d="M-11 229h500l-5 -42h-500z" />
    <glyph glyph-name="emdash" unicode="&#x2014;" horiz-adv-x="1000" 
d="M119 229h740l-5 -42h-740z" />
    <glyph glyph-name="quoteleft" unicode="&#x2018;" horiz-adv-x="167" 
d="M163 555l-25 -61q-40 6 -65.5 24t-25.5 44t22.5 56t88.5 102l13 -8q-68 -80 -68 -116q0 -35 60 -41z" />
    <glyph glyph-name="quoteright" unicode="&#x2019;" horiz-adv-x="167" 
d="M59 648l26 60q42 -6 66.5 -24t24.5 -43q0 -14 -8 -31t-24 -37.5l-27 -34t-30.5 -34l-21.5 -22.5l-13 9q68 80 68 116q0 35 -61 41z" />
    <glyph glyph-name="quotesinglbase" unicode="&#x201a;" horiz-adv-x="167" 
d="M8 14l26 60q42 -6 66.5 -24.5t24.5 -42.5q0 -14 -8 -31.5t-23.5 -37l-27.5 -33.5t-31 -33.5t-22 -23.5l-12 8q24 29 33.5 42t21.5 36t12 39q0 35 -60 41z" />
    <glyph glyph-name="quotedblleft" unicode="&#x201c;" horiz-adv-x="315" 
d="M163 555l-25 -61q-40 6 -65.5 24t-25.5 44t22.5 56t88.5 102l13 -8q-68 -80 -68 -116q0 -35 60 -41zM312 555l-26 -61q-40 6 -65.5 24t-25.5 44t22.5 56t88.5 102l13 -8q-68 -80 -68 -116q0 -13 6 -21.5t17.5 -12t18.5 -5t19 -2.5z" />
    <glyph glyph-name="quotedblright" unicode="&#x201d;" horiz-adv-x="315" 
d="M59 648l26 60q42 -6 66.5 -24t24.5 -43q0 -14 -8 -31t-24 -37.5l-27 -34t-30.5 -34l-21.5 -22.5l-13 9q68 80 68 116q0 35 -61 41zM207 648l26 60q42 -6 66.5 -24t24.5 -43q0 -14 -8 -31t-24 -37.5l-27 -34t-30.5 -34l-21.5 -22.5l-13 9q68 80 68 116q0 35 -61 41z" />
    <glyph glyph-name="quotedblbase" unicode="&#x201e;" horiz-adv-x="315" 
d="M8 14l26 60q42 -6 66.5 -24.5t24.5 -42.5q0 -18 -15 -44t-28.5 -41.5t-40 -43.5l-28.5 -30l-12 8q24 29 33.5 42t21.5 36t12 39q0 35 -60 41zM156 14l26 60q42 -6 66.5 -24.5t24.5 -42.5q0 -15 -7.5 -32.5t-23.5 -38t-27 -33t-31 -33l-22 -22.5l-13 8q68 82 68 117
t-61 41z" />
    <glyph glyph-name="dagger" unicode="&#x2020;" horiz-adv-x="407" 
d="M158 -54l-17 2l29 464h80zM312 444h-201q-10 0 -10 -4l4 -7q4 -7 4 -16q0 -11 -6 -19t-15 -8q-7 0 -12.5 7t-5.5 17q0 65 114 67q19 0 23 1t4 6q0 1 -3.5 10.5t-7.5 24.5t-4 28q0 15 3.5 29.5t8.5 24.5t10 17.5t8 11.5l4 5q0 1 -13 9.5t-13 24.5t11 25.5t28 9.5
q16 0 28.5 -9.5t12.5 -26.5q0 -20 -17.5 -28t-17.5 -9l1 -3q2 -4 4 -10t4 -13t3.5 -16t1.5 -18q0 -22 -8 -43t-16 -33.5t-8 -14.5q0 -3 17 -3q49 0 75 -16.5t26 -45.5q0 -12 -6 -22t-16 -10q-8 0 -12.5 7t-4.5 15t3 15t5.5 11.5t2.5 5.5q0 3 -9 3z" />
    <glyph glyph-name="daggerdbl" unicode="&#x2021;" horiz-adv-x="407" 
d="M209 342h-14l-4 188h-68q-7 0 -7 -2l2 -8q2 -9 2 -11q0 -12 -6 -18t-13 -6q-17 0 -17 21q0 6 2 12t9.5 15.5t19 17t34.5 12.5t53 5q8 0 8 3q0 1 -4 16t-4 18q0 12 5 23t9.5 18.5t4.5 8.5t-4 4t-8 9t-4 14q0 11 8 18.5t20 7.5t20 -7t8 -19q0 -11 -5.5 -17.5t-11.5 -8.5
t-6 -4q0 -1 3 -6.5t6 -14t3 -16.5q0 -12 -8 -27.5t-8 -16.5q0 -5 20 -6q36 -3 65 -17t29 -42q0 -21 -17 -21q-7 0 -13.5 6.5t-6.5 17.5q0 2 2 10t2 9q-4 2 -6 2h-62zM191 308h14l4 -188h68q7 0 7 2l-2 8q-2 9 -2 11q0 12 6 18t13 6q17 0 17 -21q0 -6 -2 -12t-9.5 -15.5
t-19 -17t-34.5 -12.5t-53 -5q-8 0 -8 -3q0 -1 4 -16t4 -18q0 -12 -5 -23t-9.5 -18.5t-4.5 -8.5t4 -4t8 -9t4 -14q0 -11 -8 -18.5t-20 -7.5t-20 7t-8 19q0 11 5.5 17.5t11.5 8.5t6 4q0 1 -3 6.5t-6 14t-3 16.5q0 12 8 27.5t8 16.5q0 5 -20 6q-36 3 -65 17t-29 42q0 21 17 21
q7 0 13.5 -6.5t6.5 -17.5q0 -2 -2 -10t-2 -9q4 -2 6 -2h62z" />
    <glyph glyph-name="bullet" unicode="&#x2022;" 
d="M386 345q0 -71 -51 -122t-122 -51t-122 51t-51 122t51 122t122 51t122 -51t51 -122z" />
    <glyph glyph-name="ellipsis" unicode="&#x2026;" horiz-adv-x="1000" 
d="M185 33q0 -19 -13 -32t-32 -13t-32 13t-13 32t13 32t32 13t32 -13t13 -32zM518 33q0 -19 -13 -32t-32 -13t-32 13t-13 32t13 32t32 13t32 -13t13 -32zM851 33q0 -19 -13 -32t-32 -13t-32 13t-13 32t13 32t32 13t32 -13t13 -32z" />
    <glyph glyph-name="perthousand" unicode="&#x2030;" horiz-adv-x="981" 
d="M121 -12h-41l410 662l-2 2q-59 -36 -129 -36q-3 0 -37 2q7 -101 -60.5 -172.5t-133.5 -71.5q-43 0 -76 30t-33 83q0 81 69 142.5t143 61.5q56 0 85 -54q36 -4 44 -4q94 0 175 75h30zM70 455q0 -28 17.5 -45t42.5 -17q58 0 116.5 66.5t58.5 134.5q0 10 -2 28
q-33 10 -60 46q-63 -9 -118 -85.5t-55 -127.5zM430 8q-41 0 -73 30t-32 81q0 84 68.5 145t140.5 61q48 0 71.5 -28.5t23.5 -70.5q0 -76 -63.5 -147t-135.5 -71zM437 27q55 0 114 65.5t59 134.5q0 40 -18.5 57t-41.5 17q-54 0 -114.5 -77t-60.5 -138q0 -26 18 -42.5t44 -16.5
zM763 8q-41 0 -73 30t-32 81q0 84 68.5 145t140.5 61q48 0 71.5 -28.5t23.5 -70.5q0 -76 -63.5 -147t-135.5 -71zM770 27q55 0 114 65.5t59 134.5q0 40 -18.5 57t-41.5 17q-54 0 -114.5 -77t-60.5 -138q0 -26 18 -42.5t44 -16.5z" />
    <glyph glyph-name="guilsinglleft" unicode="&#x2039;" horiz-adv-x="241" 
d="M4 208v5l177 139q10 7 12 7q9 0 9 -9q0 -5 -48.5 -58t-81.5 -86l64 -125q6 -10 6 -16q0 -8 -8 -8q-2 0 -10 8z" />
    <glyph glyph-name="guilsinglright" unicode="&#x203a;" horiz-adv-x="241" 
d="M208 208v-5l-177 -139q-10 -7 -12 -7q-9 0 -9 9q0 5 48.5 58t81.5 86l-64 125q-6 10 -6 16q0 8 8 8q2 0 10 -8z" />
    <glyph glyph-name="fraction" unicode="&#x2044;" horiz-adv-x="148" 
d="M-148 -12l404 720h40l-404 -720h-40z" />
    <glyph glyph-name="Euro" unicode="&#x20ac;" horiz-adv-x="444" 
d="M408 200l-20 -160q-89 -58 -171 -58q-85 0 -130 85q-23 45 -35 108.5t-11 117.5h-45l10 24h35q2 47 9 86h-43l9 24h38q17 96 66 172q70 109 164 109q29 0 59 -16q19 -11 34 -26q10 -10 14 -10q5 0 10 7t7 14l24 -4l-16 -177l-27 1q-5 74 -29 128q-14 34 -34 49
q-19 14 -44 14q-31 0 -62 -26t-54 -71q-36 -72 -50 -164h236l-9 -24h-230q-6 -47 -6 -86h205l-9 -24h-195q2 -104 31 -189q33 -96 100 -96q21 0 45 14q39 22 61 62q14 25 44 117z" />
    <glyph glyph-name="afii61289" unicode="&#x2113;" horiz-adv-x="339" 
d="M273 95l14 -12q-55 -93 -142 -93q-59 0 -78 39q-21 38 -8 142l13 96l-56 -43l-8 18l67 57l16 120q18 133 33 187t48 89q34 42 70 42q34 0 48 -35t7 -92q-20 -150 -167 -301l-15 -115q-12 -91 3.5 -126.5t54.5 -35.5q53 0 100 63zM153 480l-18 -132q48 57 83 129.5
t43 135.5q12 98 -30 98q-26 0 -44 -54t-34 -177z" />
    <glyph glyph-name="trademark" unicode="&#x2122;" horiz-adv-x="852" 
d="M40 595h-20l7 97q34 -2 149 -2q132 0 192 2l-4 -95h-19q-6 71 -7 72q-3 6 -46 6h-72q-2 -41 -2 -178t2 -178l39 -2v-16q-6 0 -26 0.5t-40 0.5t-40.5 -0.5t-25.5 -0.5v16l38 2q1 37 1 178t-1 178h-52q-43 0 -52 -9q-7 -7 -21 -71zM830 317v-16q-12 0 -36.5 0.5t-35.5 0.5
t-34 -0.5t-32 -0.5v16l41 2q1 108 1 190q0 12 -1.5 77t-1.5 76h-2l-135 -366h-8l-148 358l-2 -2l4 -333l47 -2v-16q-4 0 -21 0.5t-29 0.5q-24 0 -58 -1v16l41 2q2 197 -1 354l-35 2v17q26 -2 49 -2q22 0 46 2l127 -322l118 320q50 0 103 2v-17l-43 -2q0 -142 4 -354z" />
    <glyph glyph-name="Omega" unicode="&#x2126;" horiz-adv-x="581" 
d="M522 121l-34 -121h-186l-2 14l32 54t41.5 73l35.5 71.5t35 89t18 86.5q19 144 -20 217.5t-109 73.5q-74 0 -130.5 -73t-75.5 -222q-9 -68 2 -145.5t23.5 -116.5t37.5 -108l-8 -14h-182l-1 121l18 1q6 -46 17 -60t35 -14h88q-117 162 -94 341q19 143 97 229t178 86
q101 0 154 -83t35 -226q-22 -165 -185 -347h87q28 0 40.5 12t31.5 62z" />
    <glyph glyph-name="estimated" unicode="&#x212e;" horiz-adv-x="913" 
d="M879 337h-646q-6 0 -6 -4v-196q0 -11 9 -22q101 -106 244 -106q75 0 142 32t116 87h57q-54 -64 -137.5 -101.5t-178.5 -37.5q-165 0 -282 105t-117 253q0 149 117 254t282 105q166 0 283 -105t117 -254v-10zM732 363v197q0 14 -9 23q-104 102 -243 102q-140 0 -243 -105
q-10 -10 -10 -25v-192q0 -6 6 -6h495q4 0 4 6z" />
    <glyph glyph-name="partialdiff" unicode="&#x2202;" horiz-adv-x="430" 
d="M225 419h1q72 0 105 -67q11 47 20 105q12 76 -2 159q-8 43 -35.5 76.5t-67.5 33.5q-57 0 -112 -45q-10 -2 -16 15t1 30q54 38 115 38q104 0 146 -140q27 -93 9 -227q-20 -153 -71 -254q-78 -153 -181 -153q-67 0 -100 52t-20 145q10 87 68 158q26 32 64.5 53t75.5 21z
M234 386h-1q-56 0 -104 -59q-46 -68 -60 -173q-8 -54 11 -96.5t58 -42.5q61 0 116 105q37 73 66 192q-7 27 -30 50.5t-56 23.5z" />
    <glyph glyph-name="Delta" unicode="&#x2206;" horiz-adv-x="515" 
d="M438 0h-454l2 18l302 678l25 8l128 -686zM375 37l-102 557l-245 -557h347z" />
    <glyph glyph-name="product" unicode="&#x220f;" horiz-adv-x="596" 
d="M573 692v-21q-53 -4 -64 -13t-11 -45v-615q0 -41 12 -52t61 -15v-20h-198v20q49 4 60 14t11 53v639q0 18 -5.5 23t-23.5 5h-188q-18 0 -23.5 -4.5t-5.5 -21.5v-641q0 -42 8.5 -51.5t57.5 -15.5v-20h-192v20q49 5 60.5 15t11.5 52v615q0 36 -11.5 45t-63.5 13v21h504z" />
    <glyph glyph-name="summation" unicode="&#x2211;" horiz-adv-x="496" 
d="M476 66l-35 -155h-370v18l194 364l-189 381v18h367q0 -8 2 -29.5t4 -54.5t4 -55l-22 -4q-8 57 -24 86q-8 18 -24.5 24t-63.5 6h-172l169 -335l-193 -366h217q54 0 72.5 16.5t42.5 90.5z" />
    <glyph glyph-name="minus" unicode="&#x2212;" horiz-adv-x="600" 
d="M78 191v34h416v-34h-416z" />
    <glyph glyph-name="uni2215" unicode="&#x2215;" horiz-adv-x="148" 
d="M-148 -12l404 720h40l-404 -720h-40z" />
    <glyph glyph-name="uni2219" unicode="&#x2219;" horiz-adv-x="185" 
d="M124 208q0 -19 -13 -32t-32 -13t-32 13t-13 32t13 32t32 13t32 -13t13 -32z" />
    <glyph glyph-name="radical" unicode="&#x221a;" horiz-adv-x="509" 
d="M490 896l-136 -1035l-14 -8l-186 544l-73 -33l-8 26l121 55l147 -447h2l117 906z" />
    <glyph glyph-name="infinity" unicode="&#x221e;" horiz-adv-x="665" 
d="M624 291v-1q0 -60 -38 -97.5t-91 -37.5q-39 0 -74 23.5t-82 76.5q-29 -32 -47.5 -49.5t-50 -34t-63.5 -16.5q-53 0 -90 38t-37 93q0 59 37 97t95 38q44 0 81 -26.5t78 -75.5q53 59 78 76q38 26 81 26q55 -1 89 -37t34 -93zM183 193h1q11 0 22 2.5t22.5 9.5t19 11t20 17
t16.5 16.5t18 19t15 16.5q-19 23 -24.5 29l-23 24.5t-28.5 24.5t-28.5 13t-35.5 7q-39 0 -62 -28.5t-23 -69.5q1 -39 26.5 -65.5t64.5 -26.5zM497 383h-1q-16 0 -32 -6t-32 -19.5t-25 -22t-25.5 -27t-18.5 -20.5q48 -53 75.5 -74t59.5 -21q39 0 62.5 28t23.5 65q0 45 -24 71
t-63 26z" />
    <glyph glyph-name="integral" unicode="&#x222b;" horiz-adv-x="364" 
d="M190 22l-18 424q-4 98 1.5 170t16.5 113.5t30 66.5t37.5 33t42.5 8q18 0 31.5 -10t13.5 -27q0 -15 -9 -23t-23 -8q-13 0 -23.5 16t-21.5 16q-13 0 -23 -12.5t-17.5 -52.5t-5.5 -103l17 -388q4 -107 -1 -185t-16 -123t-29.5 -71.5t-36.5 -35t-42 -8.5q-21 0 -34 11t-13 27
q-1 15 9.5 25t27.5 10q13 0 23.5 -17t20.5 -17q21 0 33 43.5t9 117.5z" />
    <glyph glyph-name="approxequal" unicode="&#x2248;" horiz-adv-x="459" 
d="M397 406l27 -21q-35 -83 -106 -83q-33 0 -93 35q-47 29 -75 29q-45 0 -80 -65l-28 20q39 84 112 84q12 0 23 -2t22 -7t17 -8t17.5 -10t13.5 -8q3 -2 13 -8t13 -7.5l11.5 -5.5t13 -5l11 -2.5t13.5 -1.5q23 0 40 16t35 50zM397 265l27 -21q-37 -84 -105 -84q-34 0 -94 35
q-46 30 -75 30q-44 0 -80 -65l-28 19q18 40 47.5 62.5t64.5 22.5q15 0 30 -4.5t23 -8t23 -12.5t17 -10t11 -6.5t11 -6.5t9.5 -5t11 -5.5t9.5 -3.5t11.5 -2.5t11.5 -0.5q23 0 40 16t35 50z" />
    <glyph glyph-name="notequal" unicode="&#x2260;" horiz-adv-x="470" 
d="M338 465l-36 -82h125v-40h-140l-55 -123h195v-40h-210l-43 -96l-31 14l36 82h-120v40h136l53 123h-189v40h205l42 96z" />
    <glyph glyph-name="lessequal" unicode="&#x2264;" horiz-adv-x="478" 
d="M435 115l-362 198v41l362 198v-50l-318 -166v-3l318 -168v-50zM437 35h-368v42h368v-42z" />
    <glyph glyph-name="greaterequal" unicode="&#x2265;" horiz-adv-x="478" 
d="M74 552l361 -198v-41l-361 -198v50l317 167v2l-317 168v50zM437 35h-367v42h367v-42z" />
    <glyph glyph-name="lozenge" unicode="&#x25ca;" horiz-adv-x="516" 
d="M473 338l-166 -397h-50l-166 397l167 400h49zM428 338l-144 353h-2l-146 -351l146 -354h2z" />
    <glyph glyph-name="fi" unicode="&#xfb01;" 
d="M93 374l-84 -3v21q35 2 90 12q23 108 37 151.5t45 83.5q67 81 134 81q37 0 82 -10l-15 -50q-84 18 -122 18q-23 0 -38 -30q-22 -48 -57 -242q18 -4 55 -4q48 0 82 15q41 15 52 15q18 0 26 -10.5t8 -23.5q0 -14 -8 -48l-69 -288q-1 -3 -2.5 -9.5l-2.5 -10.5t-1 -6
q0 -11 9 -11q11 0 70 38l8 -13q-87 -62 -119 -62q-34 0 -34 37q0 9 6 34l64 266q12 53 12 62q0 11 -8 11q-7 0 -34 -16l-90 -4q-22 -2 -27 -6.5t-10 -30.5l-61 -297l-14 -69.5t-9 -42.5q-11 -49 -25.5 -71t-70.5 -77l-12 8q18 35 30.5 83.5t33.5 155.5zM330 528
q0 31 13.5 58.5t39.5 27.5q14 0 24.5 -11t10.5 -25q0 -24 -26.5 -42t-53.5 -18q-8 0 -8 10z" />
    <glyph glyph-name="fl" unicode="&#xfb02;" 
d="M90 374l-84 -3v21l90 12q23 108 37 151.5t45 83.5q68 81 134 81q34 0 77 -8q14 -4 17 -4l57 12q4 0 4 -4q0 -2 -15 -62l-33 -130t-22 -89l-39 -170q-44 -203 -44 -230q0 -13 8 -13q9 0 84 48l7 -13q-87 -69 -126 -69q-18 0 -28.5 13.5t-10.5 35.5q0 27 24 133l107 476
q2 7 1.5 10t-5.5 4q-8 3 -52.5 10.5t-65.5 7.5q-23 0 -38 -30q-20 -42 -57 -242q17 -4 40 -4q30 0 57 9v-29l-73 -4q-22 -2 -27 -6.5t-10 -30.5l-61 -297q-17 -80 -23 -112q-11 -49 -25.5 -71t-70.5 -77l-12 8q18 35 30.5 83.5t33.5 155.5z" />
    <glyph glyph-name="a.superior" horiz-adv-x="278" 
d="M288 494l8 -13q-68 -43 -87 -43q-20 0 -20 25q0 1 0.5 8.5t0.5 9.5l-26 -18q-39 -25 -64 -25q-28 0 -48 22.5t-20 57.5q0 15 4 33.5t18.5 44t36.5 46t62.5 36.5t93.5 19q6 15 13 18t35 3l-38 -151q-23 -85 -23 -91q0 -7 5 -7q4 0 49 25zM201 539l23 89q8 32 8 38
q0 12 -16 12q-44 0 -87 -44t-43 -107q0 -23 12 -39t32 -16q29 0 55 26q8 8 16 41z" />
    <glyph glyph-name="o.superior" horiz-adv-x="278" 
d="M36 553q0 59 40.5 107t100.5 48q50 0 78.5 -33t28.5 -83q0 -61 -40 -107.5t-100 -46.5q-54 0 -81 34t-27 81zM88 534q0 -36 14 -59t39 -23q36 0 63.5 49.5t27.5 110.5q0 38 -15.5 60t-35.5 22q-36 0 -64.5 -50.5t-28.5 -109.5z" />
    <glyph glyph-name="one.superior" horiz-adv-x="278" 
d="M43 295v18l67 5l46 347l-63 1v25l130 15l-49 -388l67 -5v-18q-30 2 -101 2q-41 0 -97 -2z" />
    <glyph glyph-name="two.superior" horiz-adv-x="296" 
d="M268 297h-109q-121 0 -157 -2v9l2 2q155 149 187 189q38 48 38 84q0 29 -17.5 48.5t-56.5 19.5q-19 0 -44 -6.5t-43 -13.5t-19 -7q-2 0 -2 2q0 3 2 7l19 60q53 20 102 20q61 0 89 -29.5t28 -69.5q0 -56 -60 -116q-20 -20 -150 -137h182l10 42h18z" />
    <glyph glyph-name="three.superior" horiz-adv-x="296" 
d="M71 635l13 57q53 16 94 16q54 0 81 -22t27 -55q0 -25 -19 -45.5t-38 -30.5t-50 -23v-2q45 -5 73 -27t28 -63q0 -35 -24.5 -64t-57.5 -45t-69.5 -27t-58 -14.5t-25.5 -3.5q-10 0 -10 9q0 6 3.5 8t14.5 4q161 31 161 119q0 23 -10 37t-31.5 20.5t-36.5 8t-44 2.5
q-16 2 -16 9q0 5 19 12q135 44 135 102q0 19 -14.5 30t-40.5 11q-40 0 -85 -19q-15 -7 -18 -7q-1 0 -1.5 1t0.5 2z" />
    </font>
</defs>
</svg>
