<?xml version="1.0" standalone="no"?>
<!DOCTYPE svg PUBLIC "-//W3C//DTD SVG 1.1//EN" "http://www.w3.org/Graphics/SVG/1.1/DTD/svg11.dtd" >
<svg>
<metadata>
Created by FontForge 20090622 at Tue May 16 01:31:29 2017
 By deploy user
&#194;&#169; 1992, 1993, 2002 Adobe Systems Incorporated. All rights reserved.
</metadata>
<defs>
<font id="ElectraLTStd-Display" horiz-adv-x="204" >
  <font-face 
    font-family="Electra LT Std Display"
    font-weight="400"
    font-stretch="normal"
    units-per-em="1000"
    panose-1="2 7 5 2 6 5 5 2 9 3"
    ascent="746"
    descent="-254"
    x-height="416"
    cap-height="692"
    bbox="-148 -260 962 930"
    underline-thickness="50"
    underline-position="-50"
    unicode-range="U+0020-U+FB02"
  />
<missing-glyph horiz-adv-x="500" 
d="M0 0v700h500v-700h-500zM250 395l170 255h-340zM280 350l170 -255v510zM80 50h340l-170 255zM50 605v-510l170 255z" />
    <glyph glyph-name="f_i" unicode="fi" horiz-adv-x="444" 
d="M146 413l105 5v-33l-84 -1q-12 0 -16.5 -4t-4.5 -18v-342l73 -2v-18h-203v18l62 2v361l-65 -1v27l65 3q0 59 1 86t5 63.5t14.5 61t28.5 47.5q44 54 111 54q23 0 40 -6t17 -15q0 -7 -5 -27t-10 -20q-3 0 -53 12t-58 12q-10 0 -13.5 -7.5t-5.5 -25.5q-4 -39 -4 -232zM263 0
v18l50 2v317q0 41 -7 46q-4 2 -38 7v20l113 15v-405l49 -2v-18h-167zM390 572q0 -21 -13.5 -35.5t-32.5 -14.5q-15 0 -26.5 10.5t-11.5 31.5q0 20 14 34t32 14q16 0 27 -10.5t11 -29.5z" />
    <glyph glyph-name="f_l" unicode="fl" horiz-adv-x="444" 
d="M146 413l105 5v-33l-84 -1q-12 0 -16.5 -4t-4.5 -18v-342l73 -2v-18h-203v18l62 2v361l-65 -1v27l65 3q0 59 1 86t5 63.5t14.5 61t28.5 47.5q44 54 111 54q27 0 42 -7q61 6 104 9q-2 -67 -2 -205v-499l50 -2v-18h-169v18l51 2v576q0 85 -7 90q-2 2 -14 2q-6 -34 -13 -34
q-3 0 -53 12t-58 12q-10 0 -13.5 -7.5t-5.5 -25.5q-4 -39 -4 -232z" />
    <glyph glyph-name=".notdef" horiz-adv-x="500" 
d="M0 0v700h500v-700h-500zM250 395l170 255h-340zM280 350l170 -255v510zM80 50h340l-170 255zM50 605v-510l170 255z" />
    <glyph glyph-name=".null" horiz-adv-x="0" 
 />
    <glyph glyph-name="nonmarkingreturn" horiz-adv-x="333" 
 />
    <glyph glyph-name="space" unicode=" " horiz-adv-x="167" 
 />
    <glyph glyph-name="exclam" unicode="!" horiz-adv-x="185" 
d="M82 138l-31 486l78 14l-29 -500h-18zM138 33q0 -19 -13 -32t-31 -13q-19 0 -32.5 13t-13.5 32t13.5 32t32.5 13q18 0 31 -13t13 -32z" />
    <glyph glyph-name="quotedbl" unicode="&#x22;" horiz-adv-x="259" 
d="M80 423h-12l-22 204q-3 36 -3 41q0 40 31 40t31 -40q0 -27 -2 -41zM191 423h-12l-22 204q-3 36 -3 41q0 40 31 40t31 -40q0 -27 -2 -41z" />
    <glyph glyph-name="numbersign" unicode="#" horiz-adv-x="426" 
d="M101 45h-42l36 198h-88l4 21h88l32 172h-88l4 21h88l37 198h42l-37 -198h111l37 198h42l-36 -198h88l-4 -21h-88l-32 -172h88l-4 -21h-88l-37 -198h-42l37 198h-111zM141 264h112l31 172h-111z" />
    <glyph glyph-name="dollar" unicode="$" horiz-adv-x="444" 
d="M229 -101h-20v101q-54 3 -96.5 19t-85.5 58l26 32q44 -53 78.5 -70.5t77.5 -20.5v307l-44 19t-44 25.5t-43.5 37.5t-28.5 50.5t-13 68.5q0 27 8.5 54t27 53.5t54 44t83.5 20.5v76h20v-76q57 -5 92 -20.5t68 -46.5l-29 -28q-49 69 -131 77v-291q88 -32 137.5 -76.5
t49.5 -123.5q0 -73 -48.5 -128.5t-138.5 -60.5v-101zM229 317v-299q64 11 96.5 54t32.5 96q0 105 -129 149zM209 396v284q-58 -7 -88.5 -43.5t-30.5 -92.5q0 -35 12.5 -62t35.5 -44.5t37 -25.5t34 -16z" />
    <glyph glyph-name="percent" unicode="%" horiz-adv-x="648" 
d="M121 -11h-41l410 661l-2 2q-59 -36 -129 -36q-3 0 -37 2q7 -101 -60.5 -172.5t-133.5 -71.5q-43 0 -75.5 30t-32.5 83q0 81 68.5 143t142.5 62q56 0 85 -55q36 -4 44 -4q94 0 175 75h30zM70 455q0 -28 17.5 -44.5t42.5 -16.5q58 0 116.5 66t58.5 134q0 10 -2 28
q-33 10 -60 46q-63 -9 -118 -85.5t-55 -127.5zM430 7q-41 0 -73 30t-32 81q0 84 68.5 145t140.5 61q48 0 72 -28.5t24 -70.5q0 -76 -64 -147t-136 -71zM437 27q55 0 114 65t59 134q0 40 -18.5 57t-41.5 17q-54 0 -114.5 -77t-60.5 -138q0 -26 18 -42t44 -16z" />
    <glyph glyph-name="ampersand" unicode="&#x26;" horiz-adv-x="685" 
d="M641 31l9 -13q-46 -36 -100 -36q-80 0 -122 83q-101 -83 -194 -83q-85 0 -142.5 59.5t-57.5 145.5q0 54 19.5 97t54 71.5t56 41t51.5 26.5q-45 87 -45 135q0 64 42.5 102t102.5 38q57 0 88.5 -32.5t31.5 -74.5q0 -30 -13.5 -55t-40 -43.5t-44 -28t-47.5 -22.5
q8 -13 51 -77t49 -74q31 -51 81 -155q37 42 64.5 89.5t38 75.5t10.5 36q0 10 -12 14.5t-52 6.5v18h172v-18q-49 -4 -59 -7.5t-18 -18.5q-31 -62 -46 -89.5t-38 -62t-50 -63.5q29 -52 53 -76t59 -24q25 0 48 14zM104 228q0 -76 47 -141t127 -65q67 0 139 61q-31 65 -91 166
q-5 9 -49.5 76t-52.5 82q-120 -62 -120 -179zM236 587q0 -48 44 -130q46 26 76.5 66t30.5 80q0 38 -22 57.5t-49 19.5q-31 0 -55.5 -24.5t-24.5 -68.5z" />
    <glyph glyph-name="quotesingle" unicode="'" horiz-adv-x="148" 
d="M80 423h-12l-22 204q-3 36 -3 41q0 40 31 40t31 -40q0 -27 -2 -41z" />
    <glyph glyph-name="parenleft" unicode="(" horiz-adv-x="259" 
d="M255 -214h-23q-87 97 -134.5 216.5t-47.5 246.5q0 260 182 463h23q-83 -121 -119 -220.5t-36 -242.5q0 -140 37.5 -249.5t117.5 -213.5z" />
    <glyph glyph-name="parenright" unicode=")" horiz-adv-x="259" 
d="M5 712h23q87 -97 134.5 -216.5t47.5 -246.5q0 -260 -182 -463h-23q83 121 119 220.5t36 242.5q0 140 -37.5 249.5t-117.5 213.5z" />
    <glyph glyph-name="asterisk" unicode="*" horiz-adv-x="407" 
d="M123 572l-48 27q-14 10 -14 18t5.5 14.5t14.5 6.5q4 0 14 -5l47 -28q14 -6 20 -6q22 0 22 31v55q0 23 20 23q19 0 19 -23v-55q0 -31 24 -31q6 0 18 6l48 28q9 5 14 5q8 0 13.5 -7t5.5 -13q0 -10 -14 -19l-48 -27q-17 -11 -17 -23q0 -15 17 -26l48 -27q14 -9 14 -18
q0 -7 -5.5 -14t-13.5 -7q-5 0 -14 5l-48 28q-9 6 -19 6q-8 0 -15.5 -7t-7.5 -23v-56q0 -23 -19 -23q-20 0 -20 23v56q0 30 -24 30q-3 0 -18 -6l-47 -28q-9 -5 -15 -5q-8 0 -13.5 7t-5.5 13q0 9 14 19l48 27q18 13 18 23q0 15 -18 26zM261 506q10 -1 10 7q0 4 -3 6
q-14 19 -14 28q0 11 8 21q9 11 9 15q0 7 -8 7q-1 0 -9 -1.5t-10 -1.5q-23 0 -29 21q-5 15 -12 15q-5 0 -11 -15q-6 -21 -29 -21q-1 0 -8.5 1.5t-9.5 1.5q-9 0 -9 -7q0 -4 3 -7q14 -17 14 -28q0 -12 -8 -21q-9 -11 -9 -14q0 -8 9 -8q1 0 9 1.5t10 1.5q22 0 28 -21
q6 -15 12 -15t11 15q8 21 29 21q5 0 17 -2z" />
    <glyph glyph-name="plus" unicode="+" horiz-adv-x="600" 
d="M283 0v191h-191v34h191v191h34v-191h191v-34h-191v-191h-34z" />
    <glyph glyph-name="comma" unicode="," horiz-adv-x="185" 
d="M31 11l26 63q47 -6 76.5 -23.5t29.5 -40.5q0 -30 -44.5 -89.5t-80.5 -90.5l-11 13q31 34 54.5 71.5t23.5 55.5q0 35 -74 41z" />
    <glyph glyph-name="hyphen" unicode="-" horiz-adv-x="259" 
d="M249 178h-239v60h239v-60z" />
    <glyph glyph-name="period" unicode="." horiz-adv-x="185" 
d="M138 33q0 -19 -13 -32t-31 -13q-19 0 -32.5 13t-13.5 32t13.5 32t32.5 13q18 0 31 -13t13 -32z" />
    <glyph glyph-name="slash" unicode="/" horiz-adv-x="241" 
d="M20 -18l209 726h41l-209 -726h-41z" />
    <glyph glyph-name="zero" unicode="0" horiz-adv-x="444" 
d="M32 349q0 176 54.5 267.5t135.5 91.5q83 0 136.5 -93t53.5 -266q0 -171 -53 -266t-137 -95q-83 0 -136.5 93.5t-53.5 267.5zM102 349q0 -62 2 -107t9.5 -92t20 -76.5t35 -48.5t53.5 -19q37 0 62 25t37 75t16.5 106t4.5 137q0 57 -1.5 98t-8.5 90.5t-19.5 80t-35.5 51.5
t-55 21q-27 0 -47.5 -13.5t-33.5 -40.5t-21 -56.5t-12 -72.5t-5 -77t-1 -81z" />
    <glyph glyph-name="one" unicode="1" horiz-adv-x="296" 
d="M264 16v-18q-91 2 -112 2q-18 0 -55 -1t-55 -1v18l76 6q0 16 1.5 99t1.5 96l1 446l-71 1v26l142 16l-3 -684z" />
    <glyph glyph-name="two" unicode="2" horiz-adv-x="389" 
d="M365 121l-8 -121h-187q-105 -1 -167 -1q0 9 21 40l110 168l77.5 128t58.5 119.5t16 84.5q0 48 -33.5 75.5t-87.5 27.5q-60 0 -122 -33q-3 -1 -6.5 -3l-6 -3.5t-3.5 -1.5q-4 0 -2 5l12 73q75 29 135 29q76 0 123 -39.5t47 -105.5q0 -52 -20 -99t-83 -143l-176 -255h277
l7 55h18z" />
    <glyph glyph-name="three" unicode="3" horiz-adv-x="389" 
d="M42 610l7 75q57 23 113 23q75 0 115.5 -36t40.5 -88q0 -31 -12.5 -59t-37 -52.5t-42.5 -39t-48 -35.5l42.5 -14.5t44 -20.5t44.5 -31.5t29 -43.5t13 -60q0 -51 -36.5 -104.5t-127.5 -95.5q-28 -13 -59.5 -24t-49.5 -16.5t-21 -5.5q-7 0 -7 14q0 3 16 9q221 74 221 205
q0 31 -17 55.5t-38 37.5t-51.5 23t-45.5 12.5t-32 4.5q-12 1 -17 2t-7 2.5t-2 5.5t2.5 6t18.5 10q3 2 5 3q161 87 161 185q0 40 -26 61.5t-71 21.5q-57 0 -125 -30z" />
    <glyph glyph-name="four" unicode="4" horiz-adv-x="463" 
d="M432 284h-84l-1 -284h-69l3 284h-270v9l330 427h9l-2 -384l84 1v-53zM68 332l214 3l2 275l-2 2z" />
    <glyph glyph-name="five" unicode="5" horiz-adv-x="389" 
d="M337 627l-239 -3l-3 -180q38 -5 62 -9.5t64 -17.5t63.5 -30.5t42 -50t18.5 -74.5q0 -53 -28.5 -100.5t-68.5 -79t-83 -55.5t-72.5 -34.5t-37.5 -10.5t-8 10q0 4 22 14q104 46 158.5 110t54.5 127q0 57 -47.5 87.5t-159.5 43.5l-1 316h189q28 0 55 3l3 32h20z" />
    <glyph glyph-name="six" unicode="6" horiz-adv-x="444" 
d="M397 714l1 -14q-118 -31 -178 -96q-86 -96 -110 -221q66 44 136 44q76 0 126 -56.5t50 -156.5q0 -109 -57.5 -167.5t-131.5 -58.5q-81 0 -141 69t-60 214q0 52 10 106t36 113t66 105.5t105.5 79.5t147.5 39zM100 275q0 -125 34.5 -197t101.5 -72q58 0 88 61t30 145
q0 48 -10.5 87.5t-42.5 69.5t-82 30q-60 0 -112 -41q-7 -38 -7 -83z" />
    <glyph glyph-name="seven" unicode="7" horiz-adv-x="389" 
d="M142 -18h-42l244 644l-311 -4l-6 -57h-18l2 125h381q0 -5 -24 -64q-54 -138 -84 -223z" />
    <glyph glyph-name="eight" unicode="8" horiz-adv-x="426" 
d="M28 176q0 68 35 109.5t104 75.5q-24 17 -38 28.5t-35 34t-31.5 52t-10.5 64.5q0 73 48 120.5t121 47.5q76 0 116.5 -48.5t40.5 -106.5q0 -27 -9 -51.5t-20 -39.5t-31.5 -31.5t-32 -23l-32.5 -18.5q28 -17 48 -32t44.5 -40.5t38 -60t13.5 -74.5q0 -83 -54 -138.5
t-132 -55.5q-81 0 -132 55t-51 133zM68 176q0 -76 39 -123t93 -47q53 0 93.5 45.5t40.5 111.5q0 67 -38 107.5t-112 79.5q-21 -11 -35.5 -21t-36 -31t-33 -52t-11.5 -70zM112 560q0 -33 10.5 -59.5t32.5 -46.5t37 -30t43 -25q25 15 37.5 23.5t33 28t29.5 44.5t9 58
q0 57 -32 97t-84 40q-49 0 -82.5 -36.5t-33.5 -93.5z" />
    <glyph glyph-name="nine" unicode="9" horiz-adv-x="444" 
d="M22 483q0 93 55 159t138 66q79 0 138 -64t59 -197q0 -107 -37.5 -205t-109.5 -171q-21 -21 -48 -43t-45.5 -34t-21.5 -12q-7 0 -7 8q0 4 19 23q123 120 164 285q-31 -14 -59 -23t-62 -9q-78 0 -130.5 62.5t-52.5 154.5zM90 492q0 -105 45.5 -151.5t104.5 -46.5
q53 0 91 31q13 59 13 123q0 129 -40 185.5t-94 56.5q-58 0 -89 -58t-31 -140z" />
    <glyph glyph-name="colon" unicode=":" horiz-adv-x="185" 
d="M138 33q0 -19 -13 -32t-31 -13q-19 0 -32.5 13t-13.5 32t13.5 32t32.5 13q18 0 31 -13t13 -32zM138 319q0 -19 -13 -32t-31 -13q-19 0 -32.5 13t-13.5 32t13.5 32t32.5 13q18 0 31 -13t13 -32z" />
    <glyph glyph-name="semicolon" unicode=";" horiz-adv-x="185" 
d="M31 11l26 63q47 -6 76.5 -23.5t29.5 -40.5q0 -30 -44 -89t-81 -92l-11 14q31 34 54.5 71.5t23.5 55.5q0 35 -74 41zM142 319q0 -19 -13 -32t-31 -13q-19 0 -32.5 13t-13.5 32t13.5 32t32.5 13q18 0 31 -13t13 -32z" />
    <glyph glyph-name="less" unicode="&#x3c;" horiz-adv-x="600" 
d="M542 -4l-484 206v13l484 205v-38l-419 -173l419 -175v-38z" />
    <glyph glyph-name="equal" unicode="=" horiz-adv-x="600" 
d="M92 265v34h416v-34h-416zM92 117v34h416v-34h-416z" />
    <glyph glyph-name="greater" unicode="&#x3e;" horiz-adv-x="600" 
d="M58 -4v38l418 175l-418 173v38l484 -205v-13z" />
    <glyph glyph-name="question" unicode="?" horiz-adv-x="296" 
d="M86 143l-8 158q44 32 64 48.5t46 42t36 48.5t10 49q0 39 -26.5 60t-72.5 21q-53 0 -123 -31l9 75q52 24 116 24q71 0 113 -36t42 -92q0 -60 -47 -111t-136 -109l-5 -147h-18zM140 33q0 -19 -13 -32t-31 -13q-19 0 -32.5 13t-13.5 32t13.5 32t32.5 13q18 0 31 -13t13 -32z
" />
    <glyph glyph-name="at" unicode="@" horiz-adv-x="800" 
d="M683 91l10 -15q-127 -94 -281 -94q-157 0 -267.5 95.5t-110.5 248.5q0 155 117 268.5t289 113.5q148 0 237 -83t89 -206q0 -104 -62 -188.5t-133 -84.5q-11 0 -22 2t-27.5 10t-27.5 28t-13 50h-2q-38 -90 -116 -90q-51 0 -89.5 39.5t-38.5 102.5q0 93 67 164.5t140 71.5
q32 0 58 -17.5t34 -56.5h2l17 62h57q-49 -163 -66 -229q-8 -30 -8 -53q0 -27 15.5 -42.5t35.5 -15.5q56 0 107.5 77.5t51.5 167.5q0 120 -86 192.5t-210 72.5q-151 0 -259.5 -105.5t-108.5 -254.5q0 -136 95.5 -228t241.5 -92q135 0 264 89zM376 168q21 0 38.5 10t30.5 30
t17.5 28.5t11.5 25.5q11 29 28 86.5t17 86.5q0 28 -19 48.5t-49 20.5q-38 0 -74.5 -38.5t-58 -93t-21.5 -103.5q0 -44 19 -72.5t60 -28.5z" />
    <glyph glyph-name="A" unicode="A" horiz-adv-x="537" 
d="M102 16v-18q-64 2 -84 2q-15 0 -37 -1t-29 -1v24q36 2 46 11t28 56l232 619h9q61 -171 227 -598q24 -61 34.5 -73.5t37.5 -14.5v-24q-9 0 -39.5 1t-53.5 1q-11 0 -57 -1t-59 -1v18q74 5 74 17q0 6 -8 26l-77 210q-3 9 -7 11t-16 2h-183q-16 0 -23 -19l-68 -199
q-10 -30 -10 -36q0 -8 63 -12zM153 302h163q9 0 11.5 1.5t2.5 6.5q0 3 -4 14l-80 217q-9 24 -12 24t-11 -20l-84 -224q-3 -6 -3 -11q0 -8 17 -8z" />
    <glyph glyph-name="B" unicode="B" horiz-adv-x="556" 
d="M14 -2v18l76 4q2 54 2 320q0 276 -2 330l-70 2v18q41 0 125 4t126 4q200 0 200 -160q0 -57 -30 -100t-78 -62v-2q81 -21 117 -69t36 -109q0 -93 -66 -145.5t-172 -52.5q-13 0 -79.5 1t-77.5 1q-18 0 -54 -1t-53 -1zM174 638l-3 -270q65 0 97 5q63 9 97 51.5t34 96.5
q0 71 -49.5 114t-135.5 43q-24 0 -32 -7t-8 -33zM171 348l1 -264q0 -37 15.5 -51.5t59.5 -14.5q87 0 138 42.5t51 118.5q0 171 -265 169z" />
    <glyph glyph-name="C" unicode="C" horiz-adv-x="704" 
d="M631 229h19l-11 -163q-129 -84 -267 -84q-149 0 -243.5 102t-94.5 264t99 261t237 99q55 0 109.5 -18t87.5 -36t35 -18q10 0 14 18h27v-188h-18q-29 110 -99.5 166t-150.5 56q-102 0 -178.5 -87t-76.5 -240q0 -86 25.5 -155.5t67 -110.5t89 -63t96.5 -22q95 0 153 60.5
t80 158.5z" />
    <glyph glyph-name="D" unicode="D" horiz-adv-x="713" 
d="M20 16l68 4q2 55 2 326t-2 325l-68 2v17q21 0 153.5 4t167.5 4q147 0 242 -95t95 -253q0 -172 -107 -262t-283 -90q-13 0 -82.5 1t-80.5 1q-33 0 -105 -2v18zM170 211q0 -169 5 -177q13 -16 127 -16q133 0 213.5 87t80.5 237q0 162 -98.5 249t-261.5 87q-43 0 -56 -7
q-7 -2 -8 -25q-2 -35 -2 -435z" />
    <glyph glyph-name="E" unicode="E" horiz-adv-x="574" 
d="M547 179l-12 -179h-280q-177 0 -229 -2v18l62 4q2 54 2 326t-2 326l-68 2v19q7 0 53 -2q10 0 39 -0.5t49 -0.5q78 0 352 2v-150h-32q-6 99 -23 113q-20 17 -145 17h-143v-302q139 4 154 17q17 13 23 113h32q-6 -58 -6 -156q0 -55 2 -117h-30q0 4 -1.5 39t-5.5 56t-13 24
q-13 4 -155 4q0 -31 0.5 -105.5t1 -123t1.5 -59.5q2 -24 13.5 -33t44.5 -9h240l47 159h29z" />
    <glyph glyph-name="F" unicode="F" horiz-adv-x="519" 
d="M88 672l-62 2v18q4 0 55 -1t114 -1q137 0 325 2l5 -161h-33q-9 77 -15.5 98.5t-25.5 30.5q-27 12 -150 12h-131v-308q123 0 151 16q8 4 13 15.5t7 27.5t3 30t1.5 27.5t0.5 14.5h32q-6 -84 -6 -159q0 -57 4 -115h-32q-4 73 -9.5 96t-17.5 25q-22 2 -147 2q0 -251 3 -324
l72 -4v-18q-100 2 -115 2q-34 0 -102 -2v18l62 4v280q0 296 -2 372z" />
    <glyph glyph-name="G" unicode="G" horiz-adv-x="722" 
d="M637 467h-19q-29 101 -90.5 161t-154.5 60q-111 0 -182 -96.5t-71 -233.5q0 -152 85 -252t201 -100q96 0 171 78q3 23 3 70q0 40 -3 64l-84 4v18q62 -2 110 -2q18 0 108 2v-18q-36 -2 -43.5 -9t-7.5 -43v-94q-94 -51 -156 -72.5t-131 -21.5q-155 0 -247 103t-92 261
q0 153 92 257.5t239 104.5q59 0 114 -18.5t88 -37t37 -18.5q9 0 14 21h20q0 -2 -0.5 -41.5t-0.5 -74v-72.5z" />
    <glyph glyph-name="H" unicode="H" horiz-adv-x="685" 
d="M26 -2v18l63 4q2 58 2 224v203q0 166 -2 225l-63 2v18q62 -2 108 -2q75 0 109 2v-18l-69 -2q-3 -77 -3 -308h343q0 231 -2 308l-70 2v18q62 -2 109 -2q74 0 109 2v-18l-64 -2q-2 -118 -2 -225v-203q0 -108 2 -224l64 -4v-18q-14 0 -49.5 1t-59.5 1q-41 0 -109 -2v18l70 4
q2 76 2 324h-343q0 -254 3 -324l69 -4v-18q-14 0 -49 1t-60 1q-40 0 -108 -2z" />
    <glyph glyph-name="I" unicode="I" horiz-adv-x="278" 
d="M181 20l67 -4v-18q-14 0 -49.5 1t-59.5 1q-41 0 -109 -2v18l67 4q2 118 2 218v215q0 101 -2 219l-67 2v18q14 0 49 -1t60 -1q39 0 109 2v-18l-67 -2q-2 -59 -2 -225v-203q0 -166 2 -224z" />
    <glyph glyph-name="J" unicode="J" horiz-adv-x="278" 
d="M-18 -212v14q18 9 30 17t33.5 36t34.5 67q16 47 19 97.5t3 239.5q0 33 -2.5 208.5t-2.5 204.5l-65 2v18h17.5t27.5 -0.5l29.5 -1t23.5 -0.5h10q3 0 51 1t58 1v-18l-68 -2q-1 -49 1 -276.5t2 -247.5q0 -113 -19 -182t-68 -118q-47 -47 -115 -60z" />
    <glyph glyph-name="K" unicode="K" horiz-adv-x="556" 
d="M601 0h-129q-29 38 -151 184l-131 158l-20 -20q0 -229 3 -302l80 -4v-18q-66 2 -114 2q-47 0 -113 -2v18l62 4q2 58 2 224v203q0 166 -2 225l-62 2v18q60 -2 104 -2q38 0 112 2v-18l-69 -2q-3 -74 -3 -323l151 155q147 147 147 156q0 12 -81 14v16q136 0 189 2v-22
q-26 -5 -43 -12.5t-61 -44t-117 -109.5l-108 -106l134 -165q139 -165 166 -189q28 -24 54 -28v-16z" />
    <glyph glyph-name="L" unicode="L" horiz-adv-x="537" 
d="M544 187l-19 -189q-139 2 -364 2q-46 0 -90 -1t-50 -1v18l77 4q2 54 2 326t-2 326l-69 2v18q14 0 50.5 -1t64.5 -1q43 0 113 2v-18l-74 -2q-3 -88 -3 -219v-328q1 -58 4 -74.5t19 -21.5q20 -7 167 -7q38 0 90 2l56 163h28z" />
    <glyph glyph-name="M" unicode="M" horiz-adv-x="815" 
d="M800 16v-18q-88 2 -113 2q-16 0 -54 -1t-58 -1v18l69 4q2 116 2 282q0 28 -2 171.5t-2 167.5h-2l-248 -653h-8l-272 642l-2 -2l7 -608l81 -4v-18q-11 0 -42 1t-47 1q-8 0 -47 -1t-50 -1v18l74 4q5 400 1 652l-73 2v18q22 0 47.5 -1t33.5 -1q12 0 78 2l239 -591l223 589
q94 2 160 2v-18l-73 -2q0 -26 2 -163t2 -159q0 -26 1 -166t2 -164z" />
    <glyph glyph-name="N" unicode="N" horiz-adv-x="685" 
d="M592 -12h-7l-247 328q-197 253 -218 282l-2 -2l2 -321q0 -67 4 -255l77 -4v-18q-9 0 -38.5 1t-53.5 1q-25 0 -54.5 -1t-38.5 -1v18l73 4l1 46q1 77 2.5 141.5t1.5 102.5l2 304q0 19 -24.5 38t-56.5 22v18q30 0 55.5 -0.5t42.5 -1t41 -0.5q334 -450 417 -548l-1 530l-80 2
v18q8 0 47 -1t44 -1t44 1t46 1v-18l-69 -2q0 -20 -2 -105t-3.5 -159t-1.5 -88z" />
    <glyph glyph-name="O" unicode="O" horiz-adv-x="741" 
d="M34 339q0 166 94.5 267.5t243.5 101.5q154 0 244 -96.5t90 -253.5q0 -70 -22 -136t-62.5 -120t-106.5 -87t-146 -33q-150 0 -242.5 103t-92.5 254zM120 340q0 -151 76.5 -245.5t181.5 -94.5q110 0 176 105t66 249q0 154 -72 245t-172 91q-31 0 -63.5 -9.5t-67.5 -35
t-62.5 -63.5t-45 -101t-17.5 -141z" />
    <glyph glyph-name="P" unicode="P" horiz-adv-x="500" 
d="M174 20l74 -4v-18q-64 2 -113 2q-44 0 -114 -2v18l68 4q2 54 2 325q0 273 -2 327l-68 3v17q11 0 45 -1t49 -1t93 4t90 4q70 0 117 -28.5t65 -67t18 -81.5q0 -64 -40 -115t-116 -67q-49 -10 -171 -9q0 -232 3 -310zM172 640l-1 -290q52 -2 63 -2q84 0 136 42.5t52 124.5
q0 48 -17.5 81.5t-49.5 50t-67.5 23.5t-80.5 7q-23 0 -28.5 -6t-6.5 -31z" />
    <glyph glyph-name="Q" unicode="Q" horiz-adv-x="741" 
d="M700 -104l8 -11q-58 -52 -90 -69.5t-64 -17.5q-49 0 -133 15.5t-184.5 38.5t-126.5 28q-35 -22 -44 -22q-10 0 -13 15q-7 40 -7 58q0 24 30 24q21 0 55.5 -6.5t35.5 -6.5l172 37q12 3 12 7q0 6 -16 7q-79 7 -137.5 39.5t-88.5 71t-48 89.5t-22.5 83t-4.5 63
q0 166 94.5 267.5t243.5 101.5q154 0 244 -96.5t90 -253.5q0 -78 -23 -142.5t-51.5 -101t-71 -66t-63.5 -39t-47 -18.5q-96 -33 -241 -58v-2q318 -59 352 -62q14 -1 31 -1q58 0 108 28zM120 340q0 -150 76 -241t182 -91q111 0 176.5 101.5t65.5 244.5q0 154 -72 245t-172 91
q-31 0 -63.5 -9.5t-67.5 -35t-62.5 -63.5t-45 -101t-17.5 -141z" />
    <glyph glyph-name="R" unicode="R" horiz-adv-x="556" 
d="M174 20l66 -4v-18q-14 0 -49 1t-60 1q-39 0 -109 -2v18l67 4q2 54 2 325t-2 326l-67 3v18q13 0 46 -1t44 -1q15 0 85 4q72 4 83 4q88 0 143.5 -43.5t55.5 -130.5q0 -108 -116 -168q-6 -4 -6 -6t31 -51l75.5 -116t73.5 -107q38 -53 67 -64v-12q-28 -2 -63 -2
q-41 0 -66.5 28t-105.5 156q-91 145 -98 151q-6 6 -37 7q-22 0 -63 -1q0 -216 3 -319zM171 357l59 2q88 3 102 12q27 16 49 58t22 93q0 74 -45 114.5t-135 40.5q-45 0 -48 -10q-4 -13 -4 -310z" />
    <glyph glyph-name="S" unicode="S" horiz-adv-x="500" 
d="M50 0v182h18q21 -78 67 -129t119 -51q57 0 96.5 38.5t39.5 101.5q0 46 -25.5 82.5t-64 59l-83.5 48t-83.5 49.5t-64 63.5t-25.5 89.5q0 69 52 121.5t145 52.5q30 0 65 -7.5t58.5 -15t26.5 -7.5q9 0 18 12h27v-166h-18q-25 76 -65 120t-113 44q-59 0 -92.5 -36.5
t-33.5 -84.5q0 -37 19.5 -67t50 -51.5t68 -41.5l75 -41t68 -45.5t50 -61.5t19.5 -82q0 -80 -61 -137.5t-144 -57.5q-33 0 -72.5 8.5t-66.5 17.5t-31 9q-5 0 -7.5 -2.5t-6.5 -14.5h-25z" />
    <glyph glyph-name="T" unicode="T" horiz-adv-x="556" 
d="M13 527h-30l12 165q38 0 147.5 -1t139.5 -1q1 0 135 1t158 1l-9 -165h-28q-6 124 -12 133q-5 8 -21.5 10t-72.5 2h-109q-3 -81 -3 -201q0 -371 3 -451l64 -4v-18q-14 0 -48.5 1t-58.5 1q-39 0 -107 -2v18l65 4q2 55 2 334q0 265 -2 318h-90q-30 0 -44 -0.5t-30 -6.5
t-22 -12t-14.5 -26t-12.5 -39.5z" />
    <glyph glyph-name="U" unicode="U" horiz-adv-x="667" 
d="M648 674l-56 -3l-9 -406q-1 -51 -14 -98.5t-39 -90t-73 -68.5t-109 -26q-132 0 -199 78.5t-66 205.5l3 405l-61 3v18q83 -2 107 -2q12 0 49.5 1t58.5 1v-18l-69 -3l-8 -402q-1 -53 8.5 -99t31 -84t60 -60t91.5 -22q192 0 192 283l-3 384l-66 3v18q67 -2 86 -2q7 0 41.5 1
t43.5 1v-18z" />
    <glyph glyph-name="V" unicode="V" horiz-adv-x="556" 
d="M598 692v-22q-28 -3 -37 -7.5t-15 -18.5q-41 -92 -265 -662h-8l-275 690l-40 2v18q102 -2 207 -2v-18q-46 -1 -58 -2.5t-12 -6.5q0 -12 38 -107l175 -449l136 361q68 182 68 192t-70 12v18q23 0 42.5 0.5t50 1t63.5 0.5z" />
    <glyph glyph-name="W" unicode="W" horiz-adv-x="833" 
d="M310 674v18q11 0 45.5 -1t57.5 -1t59 1t47 1v-18q-51 -4 -62.5 -6t-11.5 -9q0 -8 5 -21l158 -512h2l92 274q84 249 84 260q0 7 -11.5 9t-58.5 3v18q48 0 94.5 1t57.5 1v-22q-40 -2 -45 -15q-7 -17 -19 -51l-26.5 -75.5t-21.5 -59.5l-175 -487h-9l-155 500h-2l-166 -500
h-8l-229 689l-40 3v18q74 -2 97 -2q7 0 50 1t54 1v-18q-48 -2 -58.5 -4t-10.5 -9t45 -147l125 -388h2l126 401l-48 143z" />
    <glyph glyph-name="X" unicode="X" horiz-adv-x="519" 
d="M560 20v-22q-10 0 -47 1t-67 1t-65 -1t-46 -1v18q44 2 57 4.5t13 9.5q0 6 -18 34l-155 249l-161 -258q-9 -18 -9 -22q0 -9 16.5 -11.5t76.5 -3.5v-18q-141 0 -191 -2v22q14 2 21.5 4t20.5 11t26 25q26 32 58 78.5l77.5 115.5l52.5 80l-113 174q-87 131 -111 151
q-8 7 -32 11v22q124 -2 220 -2v-18q-26 0 -40 -0.5t-22 -2t-10 -3t-2 -5.5t10.5 -22l22.5 -37l25 -39t14 -22l87 -135l96 142q12 17 42.5 64.5t30.5 50.5t-2 5t-9.5 3t-22 1h-40.5v18q124 0 186 2v-22q-50 -2 -64.5 -11t-51.5 -60l-153 -213q2 -3 37 -58.5l69 -109l72 -108
t55 -71.5q12 -12 46 -19z" />
    <glyph glyph-name="Y" unicode="Y" horiz-adv-x="463" 
d="M171 692v-18q-49 1 -61.5 -0.5t-12.5 -7.5q0 -7 59 -109l104 -177l159 249q17 26 17 32q0 3 -2 5t-10.5 3t-24.5 2t-45 1v18q120 0 166 2v-22q-29 -1 -46 -20q-15 -16 -55.5 -72.5t-56.5 -81.5l-92 -138q0 -262 3 -338l81 -4v-18q-20 0 -62 1t-59 1q-29 0 -127 -2v18
l82 4q2 78 2 318l-105 174q-81 136 -96 151q-11 11 -46 11v18q27 0 61.5 -1t40.5 -1q21 0 70 1t56 1z" />
    <glyph glyph-name="Z" unicode="Z" horiz-adv-x="537" 
d="M535 185l-3 -187q-134 2 -323 2h-219v9l435 663l-223 -2q-40 -1 -61.5 -2t-43 -6.5t-30 -14t-16.5 -26t-10.5 -39.5t-4.5 -58h-33l6 168q71 -2 303 -2q5 0 102.5 1t117.5 1v-7l-217.5 -328l-216.5 -337h115q202 4 230 13q16 5 28 25t16.5 40.5t10 49.5t7.5 37h30z" />
    <glyph glyph-name="bracketleft" unicode="[" horiz-adv-x="259" 
d="M85 -214v926h148q12 0 12 -9t-8.5 -16.5t-24.5 -7.5q-13 0 -37 9.5t-37 9.5q-7 0 -11 -1v-895q8 -2 10 -2q12 0 36.5 10t38.5 10q17 0 25 -8t8 -16q0 -10 -12 -10h-148z" />
    <glyph glyph-name="backslash" unicode="\" horiz-adv-x="241" 
d="M222 -18h-41l-209 726h41z" />
    <glyph glyph-name="bracketright" unicode="]" horiz-adv-x="259" 
d="M175 712v-926h-148q-12 0 -12 9t8.5 16.5t24.5 7.5q13 0 37 -9.5t37 -9.5q7 0 11 1v895q-8 2 -10 2q-12 0 -36.5 -10t-38.5 -10q-17 0 -25 8t-8 16q0 10 12 10h148z" />
    <glyph glyph-name="asciicircum" unicode="^" horiz-adv-x="333" 
d="M40 385h-18l140 323h9l141 -323h-18l-127 222z" />
    <glyph glyph-name="underscore" unicode="_" horiz-adv-x="500" 
d="M0 -125v50h500v-50h-500z" />
    <glyph glyph-name="grave" unicode="`" 
d="M149 468l-162 97q-21 13 -21 32q0 13 9 21t20 8q16 0 38 -22l136 -136h-20z" />
    <glyph glyph-name="a" unicode="a" horiz-adv-x="389" 
d="M262 212l1 126q1 39 -13.5 52.5t-54.5 13.5q-34 0 -57.5 -7t-25.5 -14q-1 -3 -4 -33t-5 -35q-5 -12 -16 -19.5t-21 -7.5q-22 0 -22 37q0 27 11.5 41.5t34.5 26.5q74 39 148 39q50 0 71 -23.5t21 -69.5l-1 -311h46v-17q-72 -23 -86 -23q-27 0 -29 34q-1 21 -5 21l-26 -15
q-26 -15 -62 -29.5t-60 -14.5q-35 0 -60.5 28t-25.5 65q0 69 63 99.5t178 35.5zM260 83l1 95q0 12 -2 15t-9 3q-57 0 -110 -31t-53 -79q0 -27 16 -43.5t40 -16.5q29 0 102 28q10 4 12.5 9t2.5 20z" />
    <glyph glyph-name="b" unicode="b" horiz-adv-x="444" 
d="M-1 684v22q65 4 126 18q-3 -81 -3 -324q71 28 118 28q82 0 132 -56.5t50 -157.5q0 -98 -62.5 -162t-166.5 -64q-7 0 -63.5 5t-62.5 6q-13 2 -13 22v661zM122 318v-258q0 -33 9 -42.5t40 -9.5q78 0 128.5 57t50.5 146q0 79 -42 134t-116 55q-24 0 -42 -7.5t-23 -16.5
t-5 -58z" />
    <glyph glyph-name="c" unicode="c" horiz-adv-x="407" 
d="M363 104l14 -9q-60 -111 -167 -111q-81 0 -133.5 63t-52.5 154t53.5 161t144.5 70q68 0 112.5 -40t44.5 -88q0 -10 -4 -12.5t-20 -2.5q-23 0 -32 7t-14 30q-10 51 -22 68.5t-47 17.5q-59 0 -103.5 -52t-44.5 -140q0 -90 47 -141t105 -51q31 0 57.5 15t37 28t24.5 33z" />
    <glyph glyph-name="d" unicode="d" horiz-adv-x="450" 
d="M252 683v23q50 3 139 18v-704l48 1v-18q-7 -1 -31.5 -5.5l-45 -8t-27.5 -3.5q-12 0 -12 18q0 13 -6 13q-2 0 -20.5 -7.5t-45 -14.5t-47.5 -7q-77 0 -129 63t-52 158q0 97 56.5 158t142.5 61q21 0 42.5 -4t35.5 -8t16 -4q7 0 7 14v256zM323 67v296q0 25 -6 29
q-16 14 -63 14q-67 0 -113 -47t-46 -144q0 -80 40 -137.5t122 -57.5q49 0 62 20q4 6 4 27z" />
    <glyph glyph-name="e" unicode="e" horiz-adv-x="407" 
d="M367 105l15 -9q-58 -112 -163 -112q-82 0 -139 61t-57 156q0 90 54 160.5t147 70.5q43 0 76 -17.5t49 -43t23.5 -48t7.5 -40.5q0 -11 -3.5 -15t-14.5 -4h-257q-10 0 -13 -8t-3 -34q0 -32 9.5 -64.5t28 -62t51 -47.5t72.5 -18q41 0 66.5 18.5t50.5 56.5zM110 282h185
q12 0 15.5 2.5t3.5 10.5q0 13 -3 29t-10.5 38t-26.5 37t-46 15q-55 0 -92 -48t-37 -77q0 -7 11 -7z" />
    <glyph glyph-name="f" unicode="f" horiz-adv-x="241" 
d="M145 413l105 5v-33l-84 -1q-12 0 -16.5 -4t-4.5 -18v-342l73 -2v-18h-203v18l62 2v361l-65 -1v27l65 3q0 59 1 86t5 63.5t14.5 61t28.5 47.5q44 54 111 54q23 0 40 -6t17 -15q0 -7 -5 -27t-10 -20q-3 0 -53 12t-58 12q-10 0 -13.5 -7.5t-5.5 -25.5q-4 -39 -4 -232z" />
    <glyph glyph-name="g" unicode="g" horiz-adv-x="407" 
d="M308 407l93 11v-25q0 -10 -6 -14t-26 -7q-31 -4 -31 -11q0 -5 2 -31.5t2 -30.5q0 -66 -34 -104.5t-114 -51.5q-27 -4 -39.5 -6.5l-31 -6.5t-26 -8t-16.5 -10t-12 -14t-3 -19q0 -24 15.5 -32.5t67.5 -12.5l118 -8q139 -10 139 -109q0 -77 -70 -127t-164 -50
q-76 0 -117 39.5t-41 94.5q0 59 50 114q-46 27 -46 71q0 71 112 90v2q-90 36 -90 132q0 68 43.5 108.5t103.5 40.5q30 0 61 -13t39 -13q12 0 21 1zM100 280q0 -60 29 -88.5t69 -28.5q43 0 62.5 34t19.5 116q0 60 -10 74q-4 6 -21.5 12.5t-36.5 6.5q-52 0 -82 -37t-30 -89z
M354 -101q0 18 -6.5 29t-27.5 21.5t-67.5 15.5t-120.5 5q-29 0 -37 -6q-11 -8 -23 -20t-25 -34.5t-13 -44.5q0 -41 35 -67t91 -26q76 0 135 37.5t59 89.5z" />
    <glyph glyph-name="h" unicode="h" horiz-adv-x="463" 
d="M15 0v18l51 2v510q0 26 -0.5 78t-0.5 78l-58 2v22q36 1 129 14q0 -16 -1 -99t-1 -97v-111q0 -28 8 -28q1 0 23 9.5t56 19.5t64 10q53 0 85 -30t32 -87v-291l47 -2v-18h-163v18l48 2v296q0 45 -20.5 63.5t-66.5 18.5q-65 0 -102 -24q-11 -7 -11 -41v-313l47 -2v-18h-166z
" />
    <glyph glyph-name="i" unicode="i" 
d="M22 0v18l50 2v317q0 41 -7 46q-4 2 -38 7v20l113 15v-405l49 -2v-18h-167zM149 572q0 -21 -13.5 -35.5t-32.5 -14.5q-15 0 -26.5 10.5t-11.5 31.5q0 20 13.5 34t32.5 14q16 0 27 -10.5t11 -29.5z" />
    <glyph glyph-name="j" unicode="j" 
d="M49 -216h-21q30 35 38 85q8 51 8 195v265q0 45 -4 50q-5 9 -46 11v24l118 11v-274q1 -123 -8.5 -193t-28 -105.5t-56.5 -68.5zM152 572q0 -21 -13.5 -35.5t-32.5 -14.5q-15 0 -26.5 10.5t-11.5 31.5q0 20 14 34t32 14q16 0 27 -10.5t11 -29.5z" />
    <glyph glyph-name="k" unicode="k" horiz-adv-x="389" 
d="M408 0h-92l-157 190q-9 10 -16 10q-9 0 -9 -17v-163l49 -2v-18h-169v18l52 2v636q0 25 -5 28q-7 3 -65 3v24q53 3 139 13q-1 -63 -1 -190v-311q0 -7 3 -7q4 0 77 83t73 86q0 5 -37 5v22l130 8v-24q-50 -8 -63 -16q-15 -9 -116 -119q-6 -8 -6 -10q0 -1 5 -8l90 -109
q91 -112 118 -119v-15z" />
    <glyph glyph-name="l" unicode="l" 
d="M186 0h-169v18l51 2v576q0 85 -7 90q-4 4 -60 4v22q115 11 137 12q-2 -67 -2 -205v-499l50 -2v-18z" />
    <glyph glyph-name="m" unicode="m" horiz-adv-x="722" 
d="M20 0v18l48 2v359l-51 2v29l113 15q1 -35 6 -37q2 -1 5 -1q1 0 23 10.5t55 20.5t63 10q31 0 54.5 -10t31 -18.5t19.5 -23.5q90 52 151 52q126 0 126 -121v-287l47 -2v-18h-162v18l47 2v295q0 48 -20 65.5t-65 17.5q-65 0 -100 -24q-8 -6 -9.5 -13t-1.5 -41v-300l48 -2
v-18h-164v18l48 2v292q0 49 -18.5 67.5t-66.5 18.5q-65 0 -100 -24q-8 -6 -9.5 -13t-1.5 -41v-300l47 -2v-18h-163z" />
    <glyph glyph-name="n" unicode="n" horiz-adv-x="463" 
d="M21 0v18l47 2v359l-51 3v28l113 16q0 -39 11 -39q4 2 20 8.5t21.5 8.5l19.5 7t21.5 7l19.5 5t22.5 4t21.5 1q53 0 85 -30t32 -87v-291l47 -2v-18h-163v18l48 2v296q0 45 -20.5 63.5t-66.5 18.5q-65 0 -102 -24q-11 -7 -11 -41v-313l47 -2v-18h-162z" />
    <glyph glyph-name="o" unicode="o" horiz-adv-x="444" 
d="M22 204q0 62 19 108t51 71t67 37t72 12q44 0 78 -14t55 -36t34.5 -51.5t18.5 -56.5t5 -55q0 -95 -54 -165t-145 -70q-80 0 -140.5 58t-60.5 162zM96 208q0 -89 34.5 -147.5t91.5 -58.5q61 0 93.5 61t32.5 147q0 88 -31.5 146t-88.5 58q-51 0 -91.5 -54t-40.5 -152z" />
    <glyph glyph-name="p" unicode="p" horiz-adv-x="449" 
d="M4 -227l53 2q2 48 2 287q0 53 -1 159.5t-1 159.5l-53 2v27l113 15q5 -31 17 -31l41 17q41 17 75 17q76 0 126 -60t50 -154q0 -105 -59.5 -165.5t-143.5 -60.5q-30 0 -96 18v-231l65 -2v-17h-188v17zM127 353v-335q26 -6 50 -6q82 0 129.5 52.5t47.5 144.5q0 86 -43 135.5
t-105 49.5q-38 0 -65 -12q-10 -4 -12 -9.5t-2 -19.5z" />
    <glyph glyph-name="q" unicode="q" horiz-adv-x="444" 
d="M441 -244h-174v17l55 2q0 41 1 124.5t1 124.5q-67 -36 -117 -36q-81 0 -132 63t-51 155q0 93 56 157.5t158 64.5q9 0 59 -4.5t58 -4.5t20.5 0.5t16.5 0.5v-645l49 -2v-17zM324 106v211q0 65 -6 75q-11 18 -63 18q-76 0 -117.5 -54t-41.5 -142t45.5 -140t116.5 -52
q18 0 38 5.5t24 15.5q4 12 4 63z" />
    <glyph glyph-name="r" unicode="r" horiz-adv-x="278" 
d="M20 0v18l48 2v222q0 134 -5 139q-2 2 -46 5v24l113 15q1 -5 2.5 -19.5t3 -23t4.5 -8.5q1 0 17 14.5t42.5 29t52.5 14.5q27 0 27 -10q0 -44 -5 -52q-2 -3 -19 -2q-74 0 -97 -4q-14 -2 -18 -7.5t-4 -24.5v-312l61 -2v-18h-177z" />
    <glyph glyph-name="s" unicode="s" horiz-adv-x="296" 
d="M22 17l-7 98h23q24 -115 99 -115q36 0 55.5 25t19.5 58q0 32 -19 57t-46 42l-54 34.5t-46 44t-19 60.5q0 46 35 78.5t85 32.5q22 0 38.5 -4.5t39 -15t34.5 -15.5l1 -79h-19q-7 25 -12 38t-14.5 29.5t-23.5 23.5t-34 7q-32 0 -55 -21t-23 -50q0 -25 20 -46.5t48.5 -38.5
l57 -35.5t48.5 -47t20 -63.5q0 -56 -40 -93t-93 -37q-43 0 -119 33z" />
    <glyph glyph-name="t" unicode="t" horiz-adv-x="241" 
d="M68 380l-61 -4v28l44 2q17 0 17 14l2 157h68l-2 -167q70 4 107 10v-35l-72 -1q-26 0 -30 -5q-6 -6 -6 -58l-2 -219q-1 -84 59 -84q15 0 51 8v-14q-62 -24 -93 -24q-46 0 -66 29.5t-19 93.5z" />
    <glyph glyph-name="u" unicode="u" horiz-adv-x="463" 
d="M16 388v26l114 11v-290q0 -75 19 -97t81 -22q65 0 90 18q10 7 10 38v280q0 26 -10 32q-8 4 -48 4v26l126 11v-395h46v-23q-66 -15 -80 -15q-18 0 -26 14.5t-12 14.5l-9 -3q-9 -4 -24 -9t-32.5 -9.5t-39 -8t-40.5 -3.5q-64 0 -91.5 35t-27.5 110v251z" />
    <glyph glyph-name="v" unicode="v" horiz-adv-x="370" 
d="M188 -18h-9l-140 354q-16 43 -20 47q-5 7 -26 9v24h142v-24q-39 -2 -39 -8q0 -9 24 -73l89 -235l106 266q13 30 13 39q0 6 -38 9v26h96v-25q-21 -4 -30 -15.5t-31 -65.5z" />
    <glyph glyph-name="w" unicode="w" horiz-adv-x="593" 
d="M602 416v-27q-15 -1 -21 -9t-21 -45l-146 -353h-8l-107 291l-122 -291h-9l-135 370q-9 25 -15.5 31t-21.5 7v26h136v-24q-22 0 -28.5 -3.5t-6.5 -11.5q0 -1 9 -33l93 -264l89 221l-19 56q-9 25 -16 30t-29 5v24h160v-24q-29 -1 -39 -5t-10 -15q0 -13 9 -37l93 -255
l106 272q8 22 8 27q0 7 -6.5 9t-30.5 2v26h88z" />
    <glyph glyph-name="x" unicode="x" horiz-adv-x="333" 
d="M360 0h-152v24q38 0 38 4t-5 11l-93 143l-91 -135q-9 -13 -9 -18t8 -5h42v-24h-122v24q29 1 37.5 5.5t25.5 28.5l99 140l-98 149q-18 28 -29 34.5t-35 8.5v26h152v-24q-31 -1 -31 -8q0 -2 10 -19l72 -112l67 93q25 36 25 39q0 5 -37 5v26h114v-26q-33 -2 -43 -6t-27 -26
l-80 -109l-6 -12q0 -3 6 -12l109 -169q15 -22 22 -26t31 -6v-24z" />
    <glyph glyph-name="y" unicode="y" horiz-adv-x="370" 
d="M386 416v-27q-20 -2 -25 -6q-9 -7 -38 -76l-146 -358q-68 -158 -75 -167q-18 -26 -34 -26q-19 0 -40.5 7.5t-21.5 18.5q0 6 5 24t11 18q3 0 24.5 -4t25.5 -4q16 0 26 13t25 46l52 119l-133 332q-18 46 -24.5 54.5t-25.5 11.5v24h160v-24q-55 0 -55 -12q0 -8 8 -29
l104 -276l99 250q18 41 18 53q0 6 -36 11v27h96z" />
    <glyph glyph-name="z" unicode="z" horiz-adv-x="370" 
d="M344 0h-349v7l267 392l-159 -3q-25 -1 -31 -7t-11 -33l-6 -38h-28l1 98h321v-7l-267 -392l210 3q11 0 14 3t4 14l7 62q2 10 5 12.5t16 2.5q10 0 13 -2.5t2 -10.5z" />
    <glyph glyph-name="braceleft" unicode="{" horiz-adv-x="278" 
d="M0 243v9q68 17 90 47.5t22 102.5v93q0 111 36 161.5t130 55.5v-18q-77 -9 -100.5 -49t-23.5 -128v-55q0 -46 -1 -68t-7 -53t-18.5 -46t-37 -28.5t-60.5 -18.5v-2q30 -4 52 -12t35.5 -24.5t21 -30t11 -42t4 -47t0.5 -57.5v-55q0 -88 23.5 -128t100.5 -48v-18
q-93 4 -129.5 54.5t-36.5 161.5v93q0 72 -22 102.5t-90 47.5z" />
    <glyph glyph-name="bar" unicode="|" horiz-adv-x="222" 
d="M94 -214v1000h34v-1000h-34z" />
    <glyph glyph-name="braceright" unicode="}" horiz-adv-x="278" 
d="M278 253v-9q-68 -17 -90 -47.5t-22 -102.5v-93q0 -111 -36 -161.5t-130 -55.5v18q77 9 100.5 49t23.5 128v55q0 46 1 68t7 53t18.5 46t37 28.5t60.5 18.5v2q-30 4 -52 12t-35.5 24.5t-21 30t-11 42t-4 47t-0.5 57.5v55q0 88 -23.5 128t-100.5 48v18q93 -4 129.5 -54.5
t36.5 -161.5v-93q0 -72 22 -102.5t90 -47.5z" />
    <glyph glyph-name="asciitilde" unicode="~" horiz-adv-x="600" 
d="M78 136h-18q16 72 49 101t67 29q36 0 129.5 -38t124.5 -38q61 0 92 92h18q-7 -24 -13 -40.5t-19.5 -41t-35.5 -37.5t-50 -13q-37 0 -128 38t-125 38q-39 0 -60.5 -28t-30.5 -62z" />
    <glyph glyph-name="uni00A0" unicode="&#xa0;" horiz-adv-x="167" 
 />
    <glyph glyph-name="exclamdown" unicode="&#xa1;" horiz-adv-x="185" 
d="M104 282l31 -486l-78 -14l29 500h18zM48 387q0 19 13 32t31 13q19 0 32.5 -13t13.5 -32t-13.5 -32t-32.5 -13q-18 0 -31 13t-13 32z" />
    <glyph glyph-name="cent" unicode="&#xa2;" horiz-adv-x="426" 
d="M159 83l142 317q-14 28 -53 28q-59 0 -103.5 -52t-44.5 -140q0 -97 59 -153zM309 373l-134 -303q35 -26 77 -26q31 0 57.5 15t37 28t24.5 33l14 -9q-60 -111 -167 -111q-38 0 -68 15l-52 -116h-21l56 125q-47 25 -74 77t-27 116q0 91 53.5 161t144.5 70q46 0 83 -20
l43 95h21l-47 -106q57 -40 57 -97q0 -10 -4 -12.5t-20 -2.5q-23 0 -32 7t-14 30q-4 18 -6 31h-2z" />
    <glyph glyph-name="sterling" unicode="&#xa3;" horiz-adv-x="426" 
d="M2 338v26h90q-22 95 -22 147q0 95 53 146t130 51q46 0 89.5 -20t71.5 -58l-31 -46q-19 54 -54.5 80t-77.5 26q-53 0 -89 -35.5t-36 -112.5q0 -35 14 -98t16 -80h129v-26h-125q4 -32 4 -58q0 -68 -13.5 -112t-40.5 -88q32 -2 98.5 -21t91.5 -19q31 0 60.5 21.5t34.5 66.5
l48 -28q-11 -50 -47.5 -81t-85.5 -31q-41 0 -106.5 37t-101.5 37q-7 -17 -10.5 -23.5t-13 -22t-21 -22t-26.5 -6.5q-12 0 -21 9t-9 21q0 20 20.5 39t68.5 23q28 56 28 118q0 37 -20 140h-96z" />
    <glyph glyph-name="currency" unicode="&#xa4;" horiz-adv-x="370" 
d="M272 345q0 36 -25.5 61.5t-61.5 25.5t-61.5 -25.5t-25.5 -61.5t25.5 -61.5t61.5 -25.5t61.5 25.5t25.5 61.5zM90 427l-43 43l13 13l43 -43q38 31 82 31q43 0 83 -31l43 43l12 -13l-42 -43q30 -39 30 -82t-30 -82l42 -43l-12 -13l-43 43q-40 -31 -83 -31q-44 0 -82 31
l-43 -43l-13 13l43 43q-31 38 -31 82t31 82z" />
    <glyph glyph-name="yen" unicode="&#xa5;" horiz-adv-x="444" 
d="M329 672v18q74 0 144 2v-23q-10 -1 -15.5 -4t-16.5 -16.5t-28 -40.5l-90 -144h94v-24h-107l-55 -87v-17h144v-24h-144q-1 -142 2 -292l79 -4v-18q-108 2 -113 2q-16 0 -56 -1t-61 -1v18l78 4q4 108 3 292h-151v24h151l-58 104h-110v24h98l-23 42q-9 18 -43.5 78t-45.5 72
q-9 10 -33 13v23q4 0 39.5 -1t44.5 -1q3 0 48.5 1t53.5 1v-18q-46 0 -57 -1.5t-11 -7.5t81 -160l22 -41h104l17 29q93 161 93 168t-13 8.5t-65 2.5zM244 369l41 71h-80z" />
    <glyph glyph-name="brokenbar" unicode="&#xa6;" horiz-adv-x="222" 
d="M94 -89v250h34v-250h-34zM94 411v250h34v-250h-34z" />
    <glyph glyph-name="section" unicode="&#xa7;" horiz-adv-x="407" 
d="M243 -116l-7 8q21 34 21 85t-28 126.5t-61.5 141t-61.5 145.5t-28 140q0 69 39.5 123.5t100.5 54.5q46 0 73 -32t27 -74q0 -27 -11.5 -48t-30.5 -21q-20 0 -20 25q0 15 6.5 39t13 42.5t6.5 19.5q0 5 -7 12.5t-22 15t-34 7.5q-52 0 -84.5 -42t-32.5 -109q0 -59 28 -137
t62 -142t62 -139.5t28 -130.5q0 -66 -39 -110zM155 615l11 -3q-4 -16 -4 -43q0 -51 29 -123.5t64 -135.5t64 -143.5t29 -145.5q0 -81 -42.5 -147t-115.5 -66q-44 0 -75 29t-31 79q0 29 12 52t34 23t22 -21q0 -19 -17 -59.5t-17 -48.5q0 -16 22.5 -28t49.5 -12q65 0 99.5 56
t34.5 124q0 63 -28.5 141.5t-63 141t-63 136t-28.5 127.5q0 33 14 67z" />
    <glyph glyph-name="dieresis" unicode="&#xa8;" 
d="M-27 525q0 16 11.5 31.5t31.5 15.5q15 0 26 -10.5t11 -28.5q0 -19 -13 -33t-31 -14q-12 0 -24 9t-12 30zM152 525q0 16 11 31.5t31 15.5q15 0 26.5 -10.5t11.5 -28.5q0 -19 -13.5 -33t-30.5 -14q-13 0 -24.5 9.5t-11.5 29.5z" />
    <glyph glyph-name="copyright" unicode="&#xa9;" horiz-adv-x="800" 
d="M545 263l15 -7q-55 -110 -162 -110q-82 0 -137 56.5t-55 141.5q0 86 56 148t138 62q37 0 74 -17t39 -17q14 0 17 23h16l3 -138h-16q-27 131 -128 131q-60 0 -99.5 -53.5t-39.5 -137.5q0 -75 37.5 -126t109.5 -51q35 0 64 18t41.5 35t26.5 42zM763 346
q0 -151 -106.5 -257.5t-256.5 -106.5t-256.5 106.5t-106.5 257.5q0 150 106.5 256t256.5 106t256.5 -106t106.5 -256zM735 346q0 139 -98 236.5t-237 97.5t-237 -97.5t-98 -236.5t98 -237.5t237 -98.5t237 98.5t98 237.5z" />
    <glyph glyph-name="ordfeminine" unicode="&#xaa;" horiz-adv-x="278" 
d="M258 466v-14q-52 -12 -59 -12q-19 0 -21 19q-1 12 -3 12q-1 0 -16.5 -8.5t-37.5 -16.5t-39 -8q-26 0 -41 17t-15 38q0 34 37 56.5t113 26.5l1 63q1 31 -6.5 39t-33.5 8q-45 0 -48 -11q-1 -2 -3.5 -21.5t-4.5 -22.5q-8 -11 -23 -11q-17 0 -17 23q0 17 7 25t23 16
q48 24 95 24q32 0 46.5 -13.5t13.5 -42.5v-186h32zM176 497v54q0 11 -6 11q-31 0 -63.5 -16.5t-32.5 -46.5q0 -33 33 -33q24 0 59 15q7 3 8 5t2 11z" />
    <glyph glyph-name="guillemotleft" unicode="&#xab;" horiz-adv-x="370" 
d="M26 205v6l156 147q6 6 11 6q7 0 7 -7t-38.5 -62.5t-63.5 -86.5q19 -23 60.5 -82t41.5 -66q0 -8 -8 -8q-4 0 -11 7zM156 205v6l156 147q6 6 11 6q7 0 7 -7t-38.5 -62.5t-63.5 -86.5q19 -23 60.5 -82t41.5 -66q0 -8 -8 -8q-4 0 -11 7z" />
    <glyph glyph-name="logicalnot" unicode="&#xac;" horiz-adv-x="600" 
d="M92 265v34h416v-183h-34v149h-382z" />
    <glyph glyph-name="uni00AD" unicode="&#xad;" horiz-adv-x="259" 
d="M249 178h-239v60h239v-60z" />
    <glyph glyph-name="registered" unicode="&#xae;" horiz-adv-x="800" 
d="M388 155h-170v17q37 3 48 12.5t11 37.5v256q0 29 -10.5 38.5t-48.5 10.5v16h167q79 0 125 -26t46 -75q0 -28 -14.5 -48t-38.5 -30t-38 -13.5t-29 -5.5v-3q76 -21 93 -107q11 -44 19 -51q5 -3 12 -3q25 0 34 56h16q-7 -89 -71 -89q-33 0 -44.5 21.5t-23.5 85.5
q-5 25 -14 41t-18 25t-29 13t-34.5 4.5t-46.5 0.5v-121q0 -21 13 -31.5t46 -14.5v-17zM329 455v-100h44q63 0 95.5 24t33.5 65q0 43 -26.5 63t-84.5 20q-39 0 -50.5 -13.5t-11.5 -58.5zM763 346q0 -151 -106.5 -257.5t-256.5 -106.5t-256.5 106.5t-106.5 257.5
q0 150 106.5 256t256.5 106t256.5 -106t106.5 -256zM735 346q0 139 -98 236.5t-237 97.5t-237 -97.5t-98 -236.5t98 -237.5t237 -98.5t237 98.5t98 237.5z" />
    <glyph glyph-name="macron" unicode="&#xaf;" 
d="M-38 508v44h280v-44h-280z" />
    <glyph glyph-name="degree" unicode="&#xb0;" horiz-adv-x="259" 
d="M239 599q0 -46 -32 -78t-77 -32q-46 0 -78 32t-32 78q0 45 32 77t78 32q45 0 77 -32t32 -77zM209 599q0 33 -23 56t-56 23t-56.5 -23t-23.5 -56t23.5 -56.5t56.5 -23.5t56 23.5t23 56.5z" />
    <glyph glyph-name="plusminus" unicode="&#xb1;" horiz-adv-x="600" 
d="M283 68v156h-191v34h191v158h34v-158h191v-34h-191v-156h-34zM92 0v34h416v-34h-416z" />
    <glyph glyph-name="twosuperior" unicode="&#xb2;" horiz-adv-x="296" 
d="M269 297h-104q-121 0 -157 -2v9q104 112 151 172q49 63 46 101q1 30 -20 48.5t-57 18.5q-16 0 -41.5 -6.5t-44 -13t-19.5 -6.5q-3 0 -1 9l12 62q55 19 102 19q58 0 92 -30.5t34 -74.5q0 -55 -69 -130q-42 -45 -116 -114h176l5 40h18z" />
    <glyph glyph-name="threesuperior" unicode="&#xb3;" horiz-adv-x="296" 
d="M35 631l8 60q57 17 101 17q49 0 79 -21.5t30 -56.5q0 -59 -92 -98v-2q108 -9 108 -94q0 -37 -28.5 -68t-68 -47.5t-72.5 -25.5t-49 -9q-10 0 -10 8q0 7 19 11q149 33 149 111q0 76 -133 76q-19 0 -19 9q0 6 19 12q127 42 127 97q0 20 -16 34t-48 14q-39 0 -104 -27z" />
    <glyph glyph-name="acute" unicode="&#xb4;" 
d="M55 468h-20l135 136q22 22 39 22q12 0 20.5 -8.5t8.5 -20.5q0 -19 -22 -32z" />
    <glyph glyph-name="mu" unicode="&#xb5;" horiz-adv-x="463" 
d="M16 414l114 11v-290q0 -75 19 -97t81 -22q65 0 90 18q10 7 10 38v280q0 26 -10 32q-8 4 -48 4v26l126 11v-395h46v-23q-66 -15 -80 -15q-18 0 -26 14.5t-12 14.5l-9 -3q-9 -4 -23.5 -9t-32 -9.5t-38.5 -8t-39 -3.5t-34 6q-3 1 -6 2.5l-5 2.5t-3 1q-6 0 -6 -15v-213
q0 -16 -16 -16h-38q-14 0 -14 21v607l-46 4v26z" />
    <glyph glyph-name="paragraph" unicode="&#xb6;" horiz-adv-x="481" 
d="M390 -216h-104v30h82v876h90v-28h-68v-878zM290 686v-518q-119 19 -190.5 89t-71.5 170t70.5 170t191.5 89z" />
    <glyph glyph-name="periodcentered" unicode="&#xb7;" horiz-adv-x="185" 
d="M138 208q0 -19 -13 -32t-31 -13q-19 0 -32.5 13t-13.5 32t13.5 32t32.5 13q18 0 31 -13t13 -32z" />
    <glyph glyph-name="cedilla" unicode="&#xb8;" 
d="M87 0h19l-28 -65q24 9 40 9q30 0 53 -18t23 -50q0 -37 -31 -57.5t-78 -20.5q-40 0 -79 16l7 17q36 -11 58 -11q32 0 46.5 15t14.5 33t-13 30t-34 12q-15 0 -31 -7l-7 5z" />
    <glyph glyph-name="onesuperior" unicode="&#xb9;" horiz-adv-x="278" 
d="M45 295v18l67 5q0 80 2 138v209l-66 1v25l129 15l-2 -388l68 -5v-18q-30 2 -101 2q-41 0 -97 -2z" />
    <glyph glyph-name="ordmasculine" unicode="&#xba;" horiz-adv-x="296" 
d="M17 571q0 71 40.5 104t96.5 33q65 0 95 -38t30 -90q0 -58 -35 -100t-95 -42q-53 0 -92.5 35t-39.5 98zM73 573q0 -12 2.5 -28t9 -39t23 -38.5t40.5 -15.5q37 0 56 36t19 87t-18.5 85t-52.5 34q-28 0 -53.5 -29t-25.5 -92z" />
    <glyph glyph-name="guillemotright" unicode="&#xbb;" horiz-adv-x="370" 
d="M214 211v-6l-156 -147q-6 -6 -11 -6q-7 0 -7 7t38.5 62.5t63.5 86.5q-19 23 -60.5 82t-41.5 66q0 8 8 8q4 0 11 -7zM344 211v-6l-156 -147q-6 -6 -11 -6q-7 0 -7 7t38.5 62.5t63.5 86.5q-19 23 -60.5 82t-41.5 66q0 8 8 8q4 0 11 -7z" />
    <glyph glyph-name="onequarter" unicode="&#xbc;" horiz-adv-x="685" 
d="M524 -11l3 137h-190v9l246 277h9l-1 -237h69v-49h-69l-1 -137h-66zM529 174l3 153l-138 -154zM121 -11l404 719h40l-404 -719h-40zM46 295v18l67 5q0 80 2 138v209l-66 1v25l129 15l-2 -388l68 -5v-18q-30 2 -101 2q-41 0 -97 -2z" />
    <glyph glyph-name="onehalf" unicode="&#xbd;" horiz-adv-x="685" 
d="M650 0h-104q-121 0 -157 -2v9q104 112 151 172q48 62 48 101q0 30 -21.5 48.5t-57.5 18.5q-16 0 -41.5 -6.5t-44 -13t-19.5 -6.5q-2 0 -1 9l12 62q55 19 102 19q58 0 92 -30.5t34 -74.5q0 -55 -69 -130q-9 -10 -58.5 -58.5t-57.5 -57.5h176l5 42h18zM113 -11l404 719h40
l-404 -719h-40zM44 295v18l67 5q0 80 2 138v209l-66 1v25l129 15l-2 -388l68 -5v-18q-30 2 -101 2q-41 0 -97 -2z" />
    <glyph glyph-name="threequarters" unicode="&#xbe;" horiz-adv-x="685" 
d="M524 -11l3 137h-190v9l246 277h9l-1 -237h69v-49h-69l-1 -137h-66zM529 174l3 153l-138 -154zM121 -11l404 719h40l-404 -719h-40zM35 631l8 60q57 17 101 17q49 0 79 -21.5t30 -56.5q0 -59 -92 -98v-2q108 -9 108 -94q0 -37 -28.5 -68t-68 -47.5t-72.5 -25.5t-49 -9
q-10 0 -10 8q0 7 19 11q149 33 149 111q0 76 -133 76q-19 0 -19 9q0 6 19 12q127 42 127 97q0 20 -16 34t-48 14q-39 0 -104 -27z" />
    <glyph glyph-name="questiondown" unicode="&#xbf;" horiz-adv-x="296" 
d="M210 277l8 -158q-44 -32 -64 -48.5t-46 -42t-36 -48.5t-10 -49q0 -39 26.5 -60t72.5 -21q53 0 123 31l-9 -75q-52 -24 -116 -24q-71 0 -113 36t-42 92q0 60 47 111t136 109l5 147h18zM156 387q0 19 13 32t31 13q19 0 32.5 -13t13.5 -32t-13.5 -32t-32.5 -13q-18 0 -31 13
t-13 32z" />
    <glyph glyph-name="Agrave" unicode="&#xc0;" horiz-adv-x="537" 
d="M102 16v-18q-64 2 -84 2q-15 0 -37 -1t-29 -1v24q36 2 46 11t28 56l232 619h9q61 -171 227 -598q24 -61 34.5 -73.5t37.5 -14.5v-24q-9 0 -39.5 1t-53.5 1q-11 0 -57 -1t-59 -1v18q74 5 74 17q0 6 -8 26l-77 210q-3 9 -7 11t-16 2h-183q-16 0 -23 -19l-68 -199
q-10 -30 -10 -36q0 -8 63 -12zM153 302h163q9 0 11.5 1.5t2.5 6.5q0 3 -4 14l-80 217q-9 24 -12 24t-11 -20l-84 -224q-3 -6 -3 -11q0 -8 17 -8zM316 744l-162 97q-21 13 -21 32q0 13 9 21t20 8q16 0 38 -22l136 -136h-20z" />
    <glyph glyph-name="Aacute" unicode="&#xc1;" horiz-adv-x="537" 
d="M102 16v-18q-64 2 -84 2q-15 0 -37 -1t-29 -1v24q36 2 46 11t28 56l232 619h9q61 -171 227 -598q24 -61 34.5 -73.5t37.5 -14.5v-24q-9 0 -39.5 1t-53.5 1q-11 0 -57 -1t-59 -1v18q74 5 74 17q0 6 -8 26l-77 210q-3 9 -7 11t-16 2h-183q-16 0 -23 -19l-68 -199
q-10 -30 -10 -36q0 -8 63 -12zM153 302h163q9 0 11.5 1.5t2.5 6.5q0 3 -4 14l-80 217q-9 24 -12 24t-11 -20l-84 -224q-3 -6 -3 -11q0 -8 17 -8zM222 744h-20l135 136q22 22 39 22q12 0 20.5 -8.5t8.5 -20.5q0 -19 -22 -32z" />
    <glyph glyph-name="Acircumflex" unicode="&#xc2;" horiz-adv-x="537" 
d="M102 16v-18q-64 2 -84 2q-15 0 -37 -1t-29 -1v24q36 2 46 11t28 56l232 619h9q61 -171 227 -598q24 -61 34.5 -73.5t37.5 -14.5v-24q-9 0 -39.5 1t-53.5 1q-11 0 -57 -1t-59 -1v18q74 5 74 17q0 6 -8 26l-77 210q-3 9 -7 11t-16 2h-183q-16 0 -23 -19l-68 -199
q-10 -30 -10 -36q0 -8 63 -12zM153 302h163q9 0 11.5 1.5t2.5 6.5q0 3 -4 14l-80 217q-9 24 -12 24t-11 -20l-84 -224q-3 -6 -3 -11q0 -8 17 -8zM265 842l-122 -98h-18l116 156h48l116 -156h-18z" />
    <glyph glyph-name="Atilde" unicode="&#xc3;" horiz-adv-x="537" 
d="M102 16v-18q-64 2 -84 2q-15 0 -37 -1t-29 -1v24q36 2 46 11t28 56l232 619h9q61 -171 227 -598q24 -61 34.5 -73.5t37.5 -14.5v-24q-9 0 -39.5 1t-53.5 1q-11 0 -57 -1t-59 -1v18q74 5 74 17q0 6 -8 26l-77 210q-3 9 -7 11t-16 2h-183q-16 0 -23 -19l-68 -199
q-10 -30 -10 -36q0 -8 63 -12zM153 302h163q9 0 11.5 1.5t2.5 6.5q0 3 -4 14l-80 217q-9 24 -12 24t-11 -20l-84 -224q-3 -6 -3 -11q0 -8 17 -8zM400 864h17q-24 -96 -97 -96q-24 0 -66 22q-40 22 -63 22q-36 0 -54 -44h-16q8 41 36 66.5t55 25.5q29 0 73 -22q42 -24 59 -24
q35 0 56 50z" />
    <glyph glyph-name="Adieresis" unicode="&#xc4;" horiz-adv-x="537" 
d="M102 16v-18q-64 2 -84 2q-15 0 -37 -1t-29 -1v24q36 2 46 11t28 56l232 619h9q61 -171 227 -598q24 -61 34.5 -73.5t37.5 -14.5v-24q-9 0 -39.5 1t-53.5 1q-11 0 -57 -1t-59 -1v18q74 5 74 17q0 6 -8 26l-77 210q-3 9 -7 11t-16 2h-183q-16 0 -23 -19l-68 -199
q-10 -30 -10 -36q0 -8 63 -12zM153 302h163q9 0 11.5 1.5t2.5 6.5q0 3 -4 14l-80 217q-9 24 -12 24t-11 -20l-84 -224q-3 -6 -3 -11q0 -8 17 -8zM140 801q0 16 11.5 31.5t31.5 15.5q15 0 26 -10.5t11 -28.5q0 -19 -13 -33t-31 -14q-12 0 -24 9t-12 30zM319 801q0 16 11 31.5
t31 15.5q15 0 26.5 -10.5t11.5 -28.5q0 -19 -13.5 -33t-30.5 -14q-13 0 -24.5 9.5t-11.5 29.5z" />
    <glyph glyph-name="Aring" unicode="&#xc5;" horiz-adv-x="537" 
d="M102 16v-18q-64 2 -84 2q-15 0 -37 -1t-29 -1v24q36 2 46 11t28 56l232 619h9q61 -171 227 -598q24 -61 34.5 -73.5t37.5 -14.5v-24q-9 0 -39.5 1t-53.5 1q-11 0 -57 -1t-59 -1v18q74 5 74 17q0 6 -8 26l-77 210q-3 9 -7 11t-16 2h-183q-16 0 -23 -19l-68 -199
q-10 -30 -10 -36q0 -8 63 -12zM153 302h163q9 0 11.5 1.5t2.5 6.5q0 3 -4 14l-80 217q-9 24 -12 24t-11 -20l-84 -224q-3 -6 -3 -11q0 -8 17 -8zM362 837q0 -38 -27.5 -65.5t-65.5 -27.5t-65.5 27.5t-27.5 65.5q0 39 27.5 66t65.5 27t65.5 -27t27.5 -66zM336 837
q0 28 -19.5 47.5t-47.5 19.5t-47.5 -19.5t-19.5 -47.5t19.5 -47.5t47.5 -19.5t47.5 19.5t19.5 47.5z" />
    <glyph glyph-name="AE" unicode="&#xc6;" horiz-adv-x="815" 
d="M351 326h-186l-126 -230q-32 -58 -32 -66q0 -2 5.5 -4t15.5 -3t19 -2t20 -2t15 -1v-18q-130 0 -170 -2v22q32 4 51 23t63 91q41 66 173.5 296.5t132.5 234.5q0 5 -73 9v18q11 0 68.5 -1t66.5 -1q120 0 362 2v-150h-32q-5 98 -23 113q-20 17 -145 17h-124v-302
q120 0 142 17q7 6 11.5 23t6.5 33t3.5 35.5t1.5 21.5h31q-6 -87 -6 -156q0 -70 3 -117h-31q-2 70 -8 94.5t-18 26.5q-21 2 -136 2q0 -264 3 -288q5 -42 58 -42h221l47 159h29l-12 -179h-261q-178 0 -230 -2v18l62 4q2 75 2 306zM176 346h175l-1 290h-9z" />
    <glyph glyph-name="Ccedilla" unicode="&#xc7;" horiz-adv-x="704" 
d="M631 229h19l-11 -163q-129 -84 -267 -84q-16 0 -23 2l-21 -49q24 9 40 9q30 0 53 -18t23 -50q0 -37 -31 -57.5t-78 -20.5q-40 0 -79 16l7 17q36 -11 58 -11q32 0 46.5 15t14.5 33t-13 30t-34 12q-15 0 -31 -7l-7 5l33 77q-133 14 -214.5 114t-81.5 249q0 162 99 261
t237 99q55 0 109.5 -18t87.5 -36t35 -18q10 0 14 18h27v-188h-18q-29 110 -99.5 166t-150.5 56q-102 0 -178.5 -87t-76.5 -240q0 -86 25.5 -155.5t67 -110.5t89 -63t96.5 -22q95 0 153 60.5t80 158.5z" />
    <glyph glyph-name="Egrave" unicode="&#xc8;" horiz-adv-x="574" 
d="M547 179l-12 -179h-280q-177 0 -229 -2v18l62 4q2 54 2 326t-2 326l-68 2v19q7 0 53 -2q10 0 39 -0.5t49 -0.5q78 0 352 2v-150h-32q-6 99 -23 113q-20 17 -145 17h-143v-302q139 4 154 17q17 13 23 113h32q-6 -58 -6 -156q0 -55 2 -117h-30q0 4 -1.5 39t-5.5 56t-13 24
q-13 4 -155 4q0 -31 0.5 -105.5t1 -123t1.5 -59.5q2 -24 13.5 -33t44.5 -9h240l47 159h29zM334 744l-162 97q-21 13 -21 32q0 13 9 21t20 8q16 0 38 -22l136 -136h-20z" />
    <glyph glyph-name="Eacute" unicode="&#xc9;" horiz-adv-x="574" 
d="M547 179l-12 -179h-280q-177 0 -229 -2v18l62 4q2 54 2 326t-2 326l-68 2v19q7 0 53 -2q10 0 39 -0.5t49 -0.5q78 0 352 2v-150h-32q-6 99 -23 113q-20 17 -145 17h-143v-302q139 4 154 17q17 13 23 113h32q-6 -58 -6 -156q0 -55 2 -117h-30q0 4 -1.5 39t-5.5 56t-13 24
q-13 4 -155 4q0 -31 0.5 -105.5t1 -123t1.5 -59.5q2 -24 13.5 -33t44.5 -9h240l47 159h29zM240 744h-20l135 136q22 22 39 22q12 0 20.5 -8.5t8.5 -20.5q0 -19 -22 -32z" />
    <glyph glyph-name="Ecircumflex" unicode="&#xca;" horiz-adv-x="574" 
d="M547 179l-12 -179h-280q-177 0 -229 -2v18l62 4q2 54 2 326t-2 326l-68 2v19q7 0 53 -2q10 0 39 -0.5t49 -0.5q78 0 352 2v-150h-32q-6 99 -23 113q-20 17 -145 17h-143v-302q139 4 154 17q17 13 23 113h32q-6 -58 -6 -156q0 -55 2 -117h-30q0 4 -1.5 39t-5.5 56t-13 24
q-13 4 -155 4q0 -31 0.5 -105.5t1 -123t1.5 -59.5q2 -24 13.5 -33t44.5 -9h240l47 159h29zM287 842l-122 -98h-18l116 156h48l116 -156h-18z" />
    <glyph glyph-name="Edieresis" unicode="&#xcb;" horiz-adv-x="574" 
d="M547 179l-12 -179h-280q-177 0 -229 -2v18l62 4q2 54 2 326t-2 326l-68 2v19q7 0 53 -2q10 0 39 -0.5t49 -0.5q78 0 352 2v-150h-32q-6 99 -23 113q-20 17 -145 17h-143v-302q139 4 154 17q17 13 23 113h32q-6 -58 -6 -156q0 -55 2 -117h-30q0 4 -1.5 39t-5.5 56t-13 24
q-13 4 -155 4q0 -31 0.5 -105.5t1 -123t1.5 -59.5q2 -24 13.5 -33t44.5 -9h240l47 159h29zM158 801q0 16 11.5 31.5t31.5 15.5q15 0 26 -10.5t11 -28.5q0 -19 -13 -33t-31 -14q-12 0 -24 9t-12 30zM337 801q0 16 11 31.5t31 15.5q15 0 26.5 -10.5t11.5 -28.5
q0 -19 -13.5 -33t-30.5 -14q-13 0 -24.5 9.5t-11.5 29.5z" />
    <glyph glyph-name="Igrave" unicode="&#xcc;" horiz-adv-x="278" 
d="M181 20l67 -4v-18q-14 0 -49.5 1t-59.5 1q-41 0 -109 -2v18l67 4q2 118 2 218v215q0 101 -2 219l-67 2v18q14 0 49 -1t60 -1q39 0 109 2v-18l-67 -2q-2 -59 -2 -225v-203q0 -166 2 -224zM186 744l-162 97q-21 13 -21 32q0 13 9 21t20 8q16 0 38 -22l136 -136h-20z" />
    <glyph glyph-name="Iacute" unicode="&#xcd;" horiz-adv-x="278" 
d="M181 20l67 -4v-18q-14 0 -49.5 1t-59.5 1q-41 0 -109 -2v18l67 4q2 118 2 218v215q0 101 -2 219l-67 2v18q14 0 49 -1t60 -1q39 0 109 2v-18l-67 -2q-2 -59 -2 -225v-203q0 -166 2 -224zM92 744h-20l135 136q22 22 39 22q12 0 20.5 -8.5t8.5 -20.5q0 -19 -22 -32z" />
    <glyph glyph-name="Icircumflex" unicode="&#xce;" horiz-adv-x="278" 
d="M181 20l67 -4v-18q-14 0 -49.5 1t-59.5 1q-41 0 -109 -2v18l67 4q2 118 2 218v215q0 101 -2 219l-67 2v18q14 0 49 -1t60 -1q39 0 109 2v-18l-67 -2q-2 -59 -2 -225v-203q0 -166 2 -224zM139 842l-122 -98h-18l116 156h48l116 -156h-18z" />
    <glyph glyph-name="Idieresis" unicode="&#xcf;" horiz-adv-x="278" 
d="M181 20l67 -4v-18q-14 0 -49.5 1t-59.5 1q-41 0 -109 -2v18l67 4q2 118 2 218v215q0 101 -2 219l-67 2v18q14 0 49 -1t60 -1q39 0 109 2v-18l-67 -2q-2 -59 -2 -225v-203q0 -166 2 -224zM10 801q0 16 11.5 31.5t31.5 15.5q15 0 26 -10.5t11 -28.5q0 -19 -13 -33t-31 -14
q-12 0 -24 9t-12 30zM189 801q0 16 11 31.5t31 15.5q15 0 26.5 -10.5t11.5 -28.5q0 -19 -13.5 -33t-30.5 -14q-13 0 -24.5 9.5t-11.5 29.5z" />
    <glyph glyph-name="Eth" unicode="&#xd0;" horiz-adv-x="713" 
d="M2 340v28h88q0 252 -2 303l-68 2v17q21 0 153.5 4t167.5 4q147 0 242 -95t95 -253q0 -172 -107 -262t-283 -90q-13 0 -82.5 1t-80.5 1q-33 0 -105 -2v18l68 4q2 54 2 320h-88zM402 368v-28h-231q-1 -44 -1 -129q0 -169 5 -177q13 -16 127 -16q133 0 213.5 87t80.5 237
q0 162 -98.5 249t-261.5 87q-43 0 -56 -7q-7 -2 -8 -25q-3 -61 -1 -278h231z" />
    <glyph glyph-name="Ntilde" unicode="&#xd1;" horiz-adv-x="685" 
d="M592 -12h-7l-247 328q-197 253 -218 282l-2 -2l2 -321q0 -67 4 -255l77 -4v-18q-9 0 -38.5 1t-53.5 1q-25 0 -54.5 -1t-38.5 -1v18l73 4l1 46q1 77 2.5 141.5t1.5 102.5l2 304q0 19 -24.5 38t-56.5 22v18q30 0 55.5 -0.5t42.5 -1t41 -0.5q334 -450 417 -548l-1 530l-80 2
v18q8 0 47 -1t44 -1t44 1t46 1v-18l-69 -2q0 -20 -2 -105t-3.5 -159t-1.5 -88zM474 864h17q-24 -96 -97 -96q-24 0 -66 22q-40 22 -63 22q-36 0 -54 -44h-16q8 41 36 66.5t55 25.5q29 0 73 -22q42 -24 59 -24q35 0 56 50z" />
    <glyph glyph-name="Ograve" unicode="&#xd2;" horiz-adv-x="741" 
d="M34 339q0 166 94.5 267.5t243.5 101.5q154 0 244 -96.5t90 -253.5q0 -70 -22 -136t-62.5 -120t-106.5 -87t-146 -33q-150 0 -242.5 103t-92.5 254zM120 340q0 -151 76.5 -245.5t181.5 -94.5q110 0 176 105t66 249q0 154 -72 245t-172 91q-31 0 -63.5 -9.5t-67.5 -35
t-62.5 -63.5t-45 -101t-17.5 -141zM418 744l-162 97q-21 13 -21 32q0 13 9 21t20 8q16 0 38 -22l136 -136h-20z" />
    <glyph glyph-name="Oacute" unicode="&#xd3;" horiz-adv-x="741" 
d="M34 339q0 166 94.5 267.5t243.5 101.5q154 0 244 -96.5t90 -253.5q0 -70 -22 -136t-62.5 -120t-106.5 -87t-146 -33q-150 0 -242.5 103t-92.5 254zM120 340q0 -151 76.5 -245.5t181.5 -94.5q110 0 176 105t66 249q0 154 -72 245t-172 91q-31 0 -63.5 -9.5t-67.5 -35
t-62.5 -63.5t-45 -101t-17.5 -141zM324 744h-20l135 136q22 22 39 22q12 0 20.5 -8.5t8.5 -20.5q0 -19 -22 -32z" />
    <glyph glyph-name="Ocircumflex" unicode="&#xd4;" horiz-adv-x="741" 
d="M34 339q0 166 94.5 267.5t243.5 101.5q154 0 244 -96.5t90 -253.5q0 -70 -22 -136t-62.5 -120t-106.5 -87t-146 -33q-150 0 -242.5 103t-92.5 254zM120 340q0 -151 76.5 -245.5t181.5 -94.5q110 0 176 105t66 249q0 154 -72 245t-172 91q-31 0 -63.5 -9.5t-67.5 -35
t-62.5 -63.5t-45 -101t-17.5 -141zM371 842l-122 -98h-18l116 156h48l116 -156h-18z" />
    <glyph glyph-name="Otilde" unicode="&#xd5;" horiz-adv-x="741" 
d="M34 339q0 166 94.5 267.5t243.5 101.5q154 0 244 -96.5t90 -253.5q0 -70 -22 -136t-62.5 -120t-106.5 -87t-146 -33q-150 0 -242.5 103t-92.5 254zM120 340q0 -151 76.5 -245.5t181.5 -94.5q110 0 176 105t66 249q0 154 -72 245t-172 91q-31 0 -63.5 -9.5t-67.5 -35
t-62.5 -63.5t-45 -101t-17.5 -141zM502 864h17q-24 -96 -97 -96q-24 0 -66 22q-40 22 -63 22q-36 0 -54 -44h-16q8 41 36 66.5t55 25.5q29 0 73 -22q42 -24 59 -24q35 0 56 50z" />
    <glyph glyph-name="Odieresis" unicode="&#xd6;" horiz-adv-x="741" 
d="M34 339q0 166 94.5 267.5t243.5 101.5q154 0 244 -96.5t90 -253.5q0 -70 -22 -136t-62.5 -120t-106.5 -87t-146 -33q-150 0 -242.5 103t-92.5 254zM120 340q0 -151 76.5 -245.5t181.5 -94.5q110 0 176 105t66 249q0 154 -72 245t-172 91q-31 0 -63.5 -9.5t-67.5 -35
t-62.5 -63.5t-45 -101t-17.5 -141zM242 801q0 16 11.5 31.5t31.5 15.5q15 0 26 -10.5t11 -28.5q0 -19 -13 -33t-31 -14q-12 0 -24 9t-12 30zM421 801q0 16 11 31.5t31 15.5q15 0 26.5 -10.5t11.5 -28.5q0 -19 -13.5 -33t-30.5 -14q-13 0 -24.5 9.5t-11.5 29.5z" />
    <glyph glyph-name="multiply" unicode="&#xd7;" horiz-adv-x="600" 
d="M471 13l-171 171l-171 -171l-24 24l171 171l-171 171l24 24l171 -171l171 171l24 -24l-171 -171l171 -171z" />
    <glyph glyph-name="Oslash" unicode="&#xd8;" horiz-adv-x="741" 
d="M190 103l336 521q-65 66 -150 66q-31 0 -63.5 -9.5t-67.5 -35t-62.5 -63.5t-45 -101t-17.5 -141q0 -141 70 -237zM548 599l-336 -523q71 -76 166 -76q110 0 176 105t66 249q0 153 -72 245zM186 35l-78 -122h-40l91 142q-60 49 -92.5 123t-32.5 161q0 166 94.5 267.5
t243.5 101.5q104 0 179 -46l60 94h39l-72 -111q62 -46 95 -120t33 -167q0 -70 -22 -136t-62.5 -120t-106.5 -87t-146 -33q-103 0 -183 53z" />
    <glyph glyph-name="Ugrave" unicode="&#xd9;" horiz-adv-x="667" 
d="M648 674l-56 -3l-9 -406q-1 -51 -14 -98.5t-39 -90t-73 -68.5t-109 -26q-132 0 -199 78.5t-66 205.5l3 405l-61 3v18q83 -2 107 -2q12 0 49.5 1t58.5 1v-18l-69 -3l-8 -402q-1 -53 8.5 -99t31 -84t60 -60t91.5 -22q192 0 192 283l-3 384l-66 3v18q67 -2 86 -2q7 0 41.5 1
t43.5 1v-18zM381 744l-162 97q-21 13 -21 32q0 13 9 21t20 8q16 0 38 -22l136 -136h-20z" />
    <glyph glyph-name="Uacute" unicode="&#xda;" horiz-adv-x="667" 
d="M648 674l-56 -3l-9 -406q-1 -51 -14 -98.5t-39 -90t-73 -68.5t-109 -26q-132 0 -199 78.5t-66 205.5l3 405l-61 3v18q83 -2 107 -2q12 0 49.5 1t58.5 1v-18l-69 -3l-8 -402q-1 -53 8.5 -99t31 -84t60 -60t91.5 -22q192 0 192 283l-3 384l-66 3v18q67 -2 86 -2q7 0 41.5 1
t43.5 1v-18zM287 744h-20l135 136q22 22 39 22q12 0 20.5 -8.5t8.5 -20.5q0 -19 -22 -32z" />
    <glyph glyph-name="Ucircumflex" unicode="&#xdb;" horiz-adv-x="667" 
d="M648 674l-56 -3l-9 -406q-1 -51 -14 -98.5t-39 -90t-73 -68.5t-109 -26q-132 0 -199 78.5t-66 205.5l3 405l-61 3v18q83 -2 107 -2q12 0 49.5 1t58.5 1v-18l-69 -3l-8 -402q-1 -53 8.5 -99t31 -84t60 -60t91.5 -22q192 0 192 283l-3 384l-66 3v18q67 -2 86 -2q7 0 41.5 1
t43.5 1v-18zM334 842l-122 -98h-18l116 156h48l116 -156h-18z" />
    <glyph glyph-name="Udieresis" unicode="&#xdc;" horiz-adv-x="667" 
d="M648 674l-56 -3l-9 -406q-1 -51 -14 -98.5t-39 -90t-73 -68.5t-109 -26q-132 0 -199 78.5t-66 205.5l3 405l-61 3v18q83 -2 107 -2q12 0 49.5 1t58.5 1v-18l-69 -3l-8 -402q-1 -53 8.5 -99t31 -84t60 -60t91.5 -22q192 0 192 283l-3 384l-66 3v18q67 -2 86 -2q7 0 41.5 1
t43.5 1v-18zM205 801q0 16 11.5 31.5t31.5 15.5q15 0 26 -10.5t11 -28.5q0 -19 -13 -33t-31 -14q-12 0 -24 9t-12 30zM384 801q0 16 11 31.5t31 15.5q15 0 26.5 -10.5t11.5 -28.5q0 -19 -13.5 -33t-30.5 -14q-13 0 -24.5 9.5t-11.5 29.5z" />
    <glyph glyph-name="Yacute" unicode="&#xdd;" horiz-adv-x="463" 
d="M171 692v-18q-49 1 -61.5 -0.5t-12.5 -7.5q0 -7 59 -109l104 -177l159 249q17 26 17 32q0 3 -2 5t-10.5 3t-24.5 2t-45 1v18q120 0 166 2v-22q-29 -1 -46 -20q-15 -16 -55.5 -72.5t-56.5 -81.5l-92 -138q0 -262 3 -338l81 -4v-18q-20 0 -62 1t-59 1q-29 0 -127 -2v18
l82 4q2 78 2 318l-105 174q-81 136 -96 151q-11 11 -46 11v18q27 0 61.5 -1t40.5 -1q21 0 70 1t56 1zM195 744h-20l135 136q22 22 39 22q12 0 20.5 -8.5t8.5 -20.5q0 -19 -22 -32z" />
    <glyph glyph-name="Thorn" unicode="&#xde;" horiz-adv-x="519" 
d="M174 20l74 -4v-18q-64 2 -113 2q-44 0 -114 -2v18l68 4q2 54 2 325t-2 326l-68 3v18q14 0 50 -1t64 -1q43 0 113 2v-18l-74 -3q-2 -45 -3 -142q72 5 125 5q100 0 151 -48.5t51 -129.5q0 -63 -40 -114t-116 -67q-55 -11 -171 -9q1 -101 3 -146zM171 510v-324q52 -2 62 -2
q84 0 136.5 42.5t52.5 124.5q0 84 -55.5 122.5t-143.5 38.5q-20 0 -52 -2z" />
    <glyph glyph-name="germandbls" unicode="&#xdf;" horiz-adv-x="444" 
d="M13 0v18l51 2v427q0 78 5 125t23 79q22 38 58.5 54.5t71.5 16.5q68 0 111 -46t43 -113q0 -62 -34.5 -99t-83.5 -51q-11 -3 -11 -8t12 -8q24 -7 39.5 -13t41.5 -22t42 -36.5t28 -55.5t12 -79q0 -84 -43.5 -142.5t-102.5 -58.5q-39 0 -65.5 25t-26.5 65q0 20 30 20t30 -24
q0 -3 -1.5 -15.5t-1.5 -14.5q0 -16 8.5 -26t24.5 -10q37 0 56.5 47.5t19.5 128.5q0 101 -31.5 148t-103.5 55q-29 3 -34.5 5t-5.5 9q0 8 6.5 10.5t29.5 4.5q99 10 99 145q0 67 -25.5 103t-66.5 36q-29 2 -50 -19.5t-27 -48.5q-9 -40 -9 -206v-408l37 -2v-18h-156z" />
    <glyph glyph-name="agrave" unicode="&#xe0;" horiz-adv-x="389" 
d="M262 212l1 126q1 39 -13.5 52.5t-54.5 13.5q-34 0 -57.5 -7t-25.5 -14q-1 -3 -4 -33t-5 -35q-5 -12 -16 -19.5t-21 -7.5q-22 0 -22 37q0 27 11.5 41.5t34.5 26.5q74 39 148 39q50 0 71 -23.5t21 -69.5l-1 -311h46v-17q-72 -23 -86 -23q-27 0 -29 34q-1 21 -5 21l-26 -15
q-26 -15 -62 -29.5t-60 -14.5q-35 0 -60.5 28t-25.5 65q0 69 63 99.5t178 35.5zM260 83l1 95q0 12 -2 15t-9 3q-57 0 -110 -31t-53 -79q0 -27 16 -43.5t40 -16.5q29 0 102 28q10 4 12.5 9t2.5 20zM242 468l-162 97q-21 13 -21 32q0 13 9 21t20 8q16 0 38 -22l136 -136h-20z
" />
    <glyph glyph-name="aacute" unicode="&#xe1;" horiz-adv-x="389" 
d="M262 212l1 126q1 39 -13.5 52.5t-54.5 13.5q-34 0 -57.5 -7t-25.5 -14q-1 -3 -4 -33t-5 -35q-5 -12 -16 -19.5t-21 -7.5q-22 0 -22 37q0 27 11.5 41.5t34.5 26.5q74 39 148 39q50 0 71 -23.5t21 -69.5l-1 -311h46v-17q-72 -23 -86 -23q-27 0 -29 34q-1 21 -5 21l-26 -15
q-26 -15 -62 -29.5t-60 -14.5q-35 0 -60.5 28t-25.5 65q0 69 63 99.5t178 35.5zM260 83l1 95q0 12 -2 15t-9 3q-57 0 -110 -31t-53 -79q0 -27 16 -43.5t40 -16.5q29 0 102 28q10 4 12.5 9t2.5 20zM148 468h-20l135 136q22 22 39 22q12 0 20.5 -8.5t8.5 -20.5q0 -19 -22 -32z
" />
    <glyph glyph-name="acircumflex" unicode="&#xe2;" horiz-adv-x="389" 
d="M262 212l1 126q1 39 -13.5 52.5t-54.5 13.5q-34 0 -57.5 -7t-25.5 -14q-1 -3 -4 -33t-5 -35q-5 -12 -16 -19.5t-21 -7.5q-22 0 -22 37q0 27 11.5 41.5t34.5 26.5q74 39 148 39q50 0 71 -23.5t21 -69.5l-1 -311h46v-17q-72 -23 -86 -23q-27 0 -29 34q-1 21 -5 21l-26 -15
q-26 -15 -62 -29.5t-60 -14.5q-35 0 -60.5 28t-25.5 65q0 69 63 99.5t178 35.5zM260 83l1 95q0 12 -2 15t-9 3q-57 0 -110 -31t-53 -79q0 -27 16 -43.5t40 -16.5q29 0 102 28q10 4 12.5 9t2.5 20zM195 566l-122 -98h-18l116 156h48l116 -156h-18z" />
    <glyph glyph-name="atilde" unicode="&#xe3;" horiz-adv-x="389" 
d="M262 212l1 126q1 39 -13.5 52.5t-54.5 13.5q-34 0 -57.5 -7t-25.5 -14q-1 -3 -4 -33t-5 -35q-5 -12 -16 -19.5t-21 -7.5q-22 0 -22 37q0 27 11.5 41.5t34.5 26.5q74 39 148 39q50 0 71 -23.5t21 -69.5l-1 -311h46v-17q-72 -23 -86 -23q-27 0 -29 34q-1 21 -5 21l-26 -15
q-26 -15 -62 -29.5t-60 -14.5q-35 0 -60.5 28t-25.5 65q0 69 63 99.5t178 35.5zM260 83l1 95q0 12 -2 15t-9 3q-57 0 -110 -31t-53 -79q0 -27 16 -43.5t40 -16.5q29 0 102 28q10 4 12.5 9t2.5 20zM326 588h17q-24 -96 -97 -96q-24 0 -66 22q-40 22 -63 22q-36 0 -54 -44h-16
q8 41 36 66.5t55 25.5q29 0 73 -22q42 -24 59 -24q35 0 56 50z" />
    <glyph glyph-name="adieresis" unicode="&#xe4;" horiz-adv-x="389" 
d="M262 212l1 126q1 39 -13.5 52.5t-54.5 13.5q-34 0 -57.5 -7t-25.5 -14q-1 -3 -4 -33t-5 -35q-5 -12 -16 -19.5t-21 -7.5q-22 0 -22 37q0 27 11.5 41.5t34.5 26.5q74 39 148 39q50 0 71 -23.5t21 -69.5l-1 -311h46v-17q-72 -23 -86 -23q-27 0 -29 34q-1 21 -5 21l-26 -15
q-26 -15 -62 -29.5t-60 -14.5q-35 0 -60.5 28t-25.5 65q0 69 63 99.5t178 35.5zM260 83l1 95q0 12 -2 15t-9 3q-57 0 -110 -31t-53 -79q0 -27 16 -43.5t40 -16.5q29 0 102 28q10 4 12.5 9t2.5 20zM66 525q0 16 11.5 31.5t31.5 15.5q15 0 26 -10.5t11 -28.5q0 -19 -13 -33
t-31 -14q-12 0 -24 9t-12 30zM245 525q0 16 11 31.5t31 15.5q15 0 26.5 -10.5t11.5 -28.5q0 -19 -13.5 -33t-30.5 -14q-13 0 -24.5 9.5t-11.5 29.5z" />
    <glyph glyph-name="aring" unicode="&#xe5;" horiz-adv-x="389" 
d="M262 212l1 126q1 39 -13.5 52.5t-54.5 13.5q-34 0 -57.5 -7t-25.5 -14q-1 -3 -4 -33t-5 -35q-5 -12 -16 -19.5t-21 -7.5q-22 0 -22 37q0 27 11.5 41.5t34.5 26.5q74 39 148 39q50 0 71 -23.5t21 -69.5l-1 -311h46v-17q-72 -23 -86 -23q-27 0 -29 34q-1 21 -5 21l-26 -15
q-26 -15 -62 -29.5t-60 -14.5q-35 0 -60.5 28t-25.5 65q0 69 63 99.5t178 35.5zM260 83l1 95q0 12 -2 15t-9 3q-57 0 -110 -31t-53 -79q0 -27 16 -43.5t40 -16.5q29 0 102 28q10 4 12.5 9t2.5 20zM298 561q0 -38 -27.5 -65.5t-65.5 -27.5t-65.5 27.5t-27.5 65.5
q0 39 27.5 66t65.5 27t65.5 -27t27.5 -66zM272 561q0 28 -19.5 47.5t-47.5 19.5t-47.5 -19.5t-19.5 -47.5t19.5 -47.5t47.5 -19.5t47.5 19.5t19.5 47.5z" />
    <glyph glyph-name="ae" unicode="&#xe6;" horiz-adv-x="593" 
d="M238 82l2 122q1 12 -7 12q-29 0 -65.5 -14.5t-67 -46t-30.5 -69.5q0 -30 19 -46t46 -16q20 0 44 8.5t36 15.5t17 11q6 4 6 23zM307 236l182 7q6 1 9 2.5t5 11t2 28.5q0 129 -81 129q-50 0 -85.5 -45t-35.5 -115q0 -16 4 -18zM503 224l-191 -8q-11 0 -11 -15
q0 -83 38 -127t97 -44q25 0 44 6t34.5 20t22 22.5l19.5 26.5l14 -9q-15 -24 -23.5 -36.5t-28.5 -34t-47 -31.5t-60 -10q-27 0 -51.5 8.5t-40.5 20t-28.5 23.5t-18.5 20l-7 9q-1 0 -11 -8.5t-26.5 -20.5t-36 -23.5t-43.5 -20t-46 -8.5q-42 0 -70 27.5t-28 71.5q0 35 16.5 62
t39 41.5t58.5 24.5t61 13t61 6l3 95q1 44 -16 61.5t-57 17.5q-31 0 -53 -8.5t-25 -17.5q-1 -4 -5 -32t-6 -32q-13 -28 -35 -28q-18 0 -18 33q0 36 23 55q23 20 66.5 39t90.5 19q21 0 38 -5.5t26.5 -13t15.5 -15t9 -12.5l3 -6q1 0 6.5 5.5t15.5 13t23 15t33 13t41 5.5
q68 0 110 -45.5t42 -109.5q0 -44 -9 -48q-15 -5 -59 -5z" />
    <glyph glyph-name="ccedilla" unicode="&#xe7;" horiz-adv-x="407" 
d="M363 104l14 -9q-60 -111 -167 -111q-6 0 -8 1l-22 -50q24 9 40 9q30 0 53 -18t23 -50q0 -37 -31 -57.5t-78 -20.5q-40 0 -79 16l7 17q36 -11 58 -11q32 0 46.5 15t14.5 33t-13 30t-34 12q-15 0 -31 -7l-7 5l34 79q-71 10 -115 70.5t-44 143.5q0 91 53.5 161t144.5 70
q68 0 112.5 -40t44.5 -88q0 -10 -4 -12.5t-20 -2.5q-23 0 -32 7t-14 30q-10 51 -22 68.5t-47 17.5q-59 0 -103.5 -52t-44.5 -140q0 -90 47 -141t105 -51q31 0 57.5 15t37 28t24.5 33z" />
    <glyph glyph-name="egrave" unicode="&#xe8;" horiz-adv-x="407" 
d="M367 105l15 -9q-58 -112 -163 -112q-82 0 -139 61t-57 156q0 90 54 160.5t147 70.5q43 0 76 -17.5t49 -43t23.5 -48t7.5 -40.5q0 -11 -3.5 -15t-14.5 -4h-257q-10 0 -13 -8t-3 -34q0 -32 9.5 -64.5t28 -62t51 -47.5t72.5 -18q41 0 66.5 18.5t50.5 56.5zM110 282h185
q12 0 15.5 2.5t3.5 10.5q0 13 -3 29t-10.5 38t-26.5 37t-46 15q-55 0 -92 -48t-37 -77q0 -7 11 -7zM251 468l-162 97q-21 13 -21 32q0 13 9 21t20 8q16 0 38 -22l136 -136h-20z" />
    <glyph glyph-name="eacute" unicode="&#xe9;" horiz-adv-x="407" 
d="M367 105l15 -9q-58 -112 -163 -112q-82 0 -139 61t-57 156q0 90 54 160.5t147 70.5q43 0 76 -17.5t49 -43t23.5 -48t7.5 -40.5q0 -11 -3.5 -15t-14.5 -4h-257q-10 0 -13 -8t-3 -34q0 -32 9.5 -64.5t28 -62t51 -47.5t72.5 -18q41 0 66.5 18.5t50.5 56.5zM110 282h185
q12 0 15.5 2.5t3.5 10.5q0 13 -3 29t-10.5 38t-26.5 37t-46 15q-55 0 -92 -48t-37 -77q0 -7 11 -7zM157 468h-20l135 136q22 22 39 22q12 0 20.5 -8.5t8.5 -20.5q0 -19 -22 -32z" />
    <glyph glyph-name="ecircumflex" unicode="&#xea;" horiz-adv-x="407" 
d="M367 105l15 -9q-58 -112 -163 -112q-82 0 -139 61t-57 156q0 90 54 160.5t147 70.5q43 0 76 -17.5t49 -43t23.5 -48t7.5 -40.5q0 -11 -3.5 -15t-14.5 -4h-257q-10 0 -13 -8t-3 -34q0 -32 9.5 -64.5t28 -62t51 -47.5t72.5 -18q41 0 66.5 18.5t50.5 56.5zM110 282h185
q12 0 15.5 2.5t3.5 10.5q0 13 -3 29t-10.5 38t-26.5 37t-46 15q-55 0 -92 -48t-37 -77q0 -7 11 -7zM204 566l-122 -98h-18l116 156h48l116 -156h-18z" />
    <glyph glyph-name="edieresis" unicode="&#xeb;" horiz-adv-x="407" 
d="M367 105l15 -9q-58 -112 -163 -112q-82 0 -139 61t-57 156q0 90 54 160.5t147 70.5q43 0 76 -17.5t49 -43t23.5 -48t7.5 -40.5q0 -11 -3.5 -15t-14.5 -4h-257q-10 0 -13 -8t-3 -34q0 -32 9.5 -64.5t28 -62t51 -47.5t72.5 -18q41 0 66.5 18.5t50.5 56.5zM110 282h185
q12 0 15.5 2.5t3.5 10.5q0 13 -3 29t-10.5 38t-26.5 37t-46 15q-55 0 -92 -48t-37 -77q0 -7 11 -7zM75 525q0 16 11.5 31.5t31.5 15.5q15 0 26 -10.5t11 -28.5q0 -19 -13 -33t-31 -14q-12 0 -24 9t-12 30zM254 525q0 16 11 31.5t31 15.5q15 0 26.5 -10.5t11.5 -28.5
q0 -19 -13.5 -33t-30.5 -14q-13 0 -24.5 9.5t-11.5 29.5z" />
    <glyph glyph-name="igrave" unicode="&#xec;" 
d="M22 0v18l50 2v317q0 41 -7 46q-4 2 -38 7v20l113 15v-405l49 -2v-18h-167zM149 468l-162 97q-21 13 -21 32q0 13 9 21t20 8q16 0 38 -22l136 -136h-20z" />
    <glyph glyph-name="iacute" unicode="&#xed;" 
d="M22 0v18l50 2v317q0 41 -7 46q-4 2 -38 7v20l113 15v-405l49 -2v-18h-167zM55 468h-20l135 136q22 22 39 22q12 0 20.5 -8.5t8.5 -20.5q0 -19 -22 -32z" />
    <glyph glyph-name="icircumflex" unicode="&#xee;" 
d="M22 0v18l50 2v317q0 41 -7 46q-4 2 -38 7v20l113 15v-405l49 -2v-18h-167zM102 566l-122 -98h-18l116 156h48l116 -156h-18z" />
    <glyph glyph-name="idieresis" unicode="&#xef;" 
d="M22 0v18l50 2v317q0 41 -7 46q-4 2 -38 7v20l113 15v-405l49 -2v-18h-167zM-27 525q0 16 11.5 31.5t31.5 15.5q15 0 26 -10.5t11 -28.5q0 -19 -13 -33t-31 -14q-12 0 -24 9t-12 30zM152 525q0 16 11 31.5t31 15.5q15 0 26.5 -10.5t11.5 -28.5q0 -19 -13.5 -33t-30.5 -14
q-13 0 -24.5 9.5t-11.5 29.5z" />
    <glyph glyph-name="eth" unicode="&#xf0;" horiz-adv-x="444" 
d="M96 208q0 -89 34.5 -147.5t91.5 -58.5q61 0 93.5 61t32.5 147q0 88 -31.5 146t-88.5 58q-51 0 -91.5 -54t-40.5 -152zM206 568l-133 -56l-8 22l129 54l-67 111l59 25l68 -111l130 54l8 -22l-126 -52l34.5 -56l37.5 -61.5t31 -57.5t29 -65t16.5 -62t7.5 -70
q0 -96 -54 -166.5t-145 -70.5q-80 0 -140.5 58t-60.5 162q0 61 19 108t49.5 71.5t62.5 36.5t64 12q20 0 44 -6q23 -7 25 -7q5 0 5 4q0 3 -7 16z" />
    <glyph glyph-name="ntilde" unicode="&#xf1;" horiz-adv-x="463" 
d="M21 0v18l47 2v359l-51 3v28l113 16q0 -39 11 -39q4 2 20 8.5t21.5 8.5l19.5 7t21.5 7l19.5 5t22.5 4t21.5 1q53 0 85 -30t32 -87v-291l47 -2v-18h-163v18l48 2v296q0 45 -20.5 63.5t-66.5 18.5q-65 0 -102 -24q-11 -7 -11 -41v-313l47 -2v-18h-162zM363 588h17
q-24 -96 -97 -96q-24 0 -66 22q-40 22 -63 22q-36 0 -54 -44h-16q8 41 36 66.5t55 25.5q29 0 73 -22q42 -24 59 -24q35 0 56 50z" />
    <glyph glyph-name="ograve" unicode="&#xf2;" horiz-adv-x="444" 
d="M22 204q0 62 19 108t51 71t67 37t72 12q44 0 78 -14t55 -36t34.5 -51.5t18.5 -56.5t5 -55q0 -95 -54 -165t-145 -70q-80 0 -140.5 58t-60.5 162zM96 208q0 -89 34.5 -147.5t91.5 -58.5q61 0 93.5 61t32.5 147q0 88 -31.5 146t-88.5 58q-51 0 -91.5 -54t-40.5 -152z
M269 468l-162 97q-21 13 -21 32q0 13 9 21t20 8q16 0 38 -22l136 -136h-20z" />
    <glyph glyph-name="oacute" unicode="&#xf3;" horiz-adv-x="444" 
d="M22 204q0 62 19 108t51 71t67 37t72 12q44 0 78 -14t55 -36t34.5 -51.5t18.5 -56.5t5 -55q0 -95 -54 -165t-145 -70q-80 0 -140.5 58t-60.5 162zM96 208q0 -89 34.5 -147.5t91.5 -58.5q61 0 93.5 61t32.5 147q0 88 -31.5 146t-88.5 58q-51 0 -91.5 -54t-40.5 -152z
M175 468h-20l135 136q22 22 39 22q12 0 20.5 -8.5t8.5 -20.5q0 -19 -22 -32z" />
    <glyph glyph-name="ocircumflex" unicode="&#xf4;" horiz-adv-x="444" 
d="M22 204q0 62 19 108t51 71t67 37t72 12q44 0 78 -14t55 -36t34.5 -51.5t18.5 -56.5t5 -55q0 -95 -54 -165t-145 -70q-80 0 -140.5 58t-60.5 162zM96 208q0 -89 34.5 -147.5t91.5 -58.5q61 0 93.5 61t32.5 147q0 88 -31.5 146t-88.5 58q-51 0 -91.5 -54t-40.5 -152z
M222 566l-122 -98h-18l116 156h48l116 -156h-18z" />
    <glyph glyph-name="otilde" unicode="&#xf5;" horiz-adv-x="444" 
d="M22 204q0 62 19 108t51 71t67 37t72 12q44 0 78 -14t55 -36t34.5 -51.5t18.5 -56.5t5 -55q0 -95 -54 -165t-145 -70q-80 0 -140.5 58t-60.5 162zM96 208q0 -89 34.5 -147.5t91.5 -58.5q61 0 93.5 61t32.5 147q0 88 -31.5 146t-88.5 58q-51 0 -91.5 -54t-40.5 -152z
M353 588h17q-24 -96 -97 -96q-24 0 -66 22q-40 22 -63 22q-36 0 -54 -44h-16q8 41 36 66.5t55 25.5q29 0 73 -22q42 -24 59 -24q35 0 56 50z" />
    <glyph glyph-name="odieresis" unicode="&#xf6;" horiz-adv-x="444" 
d="M22 204q0 62 19 108t51 71t67 37t72 12q44 0 78 -14t55 -36t34.5 -51.5t18.5 -56.5t5 -55q0 -95 -54 -165t-145 -70q-80 0 -140.5 58t-60.5 162zM96 208q0 -89 34.5 -147.5t91.5 -58.5q61 0 93.5 61t32.5 147q0 88 -31.5 146t-88.5 58q-51 0 -91.5 -54t-40.5 -152z
M93 525q0 16 11.5 31.5t31.5 15.5q15 0 26 -10.5t11 -28.5q0 -19 -13 -33t-31 -14q-12 0 -24 9t-12 30zM272 525q0 16 11 31.5t31 15.5q15 0 26.5 -10.5t11.5 -28.5q0 -19 -13.5 -33t-30.5 -14q-13 0 -24.5 9.5t-11.5 29.5z" />
    <glyph glyph-name="divide" unicode="&#xf7;" horiz-adv-x="600" 
d="M337 356q0 -15 -10.5 -25.5t-25.5 -10.5t-25.5 10.5t-10.5 25.5q0 14 10.5 25t25.5 11t25.5 -11t10.5 -25zM337 59q0 -14 -10.5 -24.5t-25.5 -10.5t-25.5 10.5t-10.5 24.5q0 15 10.5 26t25.5 11t25.5 -11t10.5 -26zM92 191v34h416v-34h-416z" />
    <glyph glyph-name="oslash" unicode="&#xf8;" horiz-adv-x="444" 
d="M123 75l184 296q-32 43 -79 43q-51 0 -91.5 -54t-40.5 -152q0 -79 27 -133zM323 343l-183 -296q31 -45 82 -45q61 0 93.5 61t32.5 147q0 82 -25 133zM119 14l-63 -101h-33l73 118q-74 59 -74 173q0 62 19 108t51 71t67 37t72 12q56 0 99 -24l51 83h33l-61 -99
q69 -59 69 -173q0 -95 -54 -165t-145 -70q-57 0 -104 30z" />
    <glyph glyph-name="ugrave" unicode="&#xf9;" horiz-adv-x="463" 
d="M16 388v26l114 11v-290q0 -75 19 -97t81 -22q65 0 90 18q10 7 10 38v280q0 26 -10 32q-8 4 -48 4v26l126 11v-395h46v-23q-66 -15 -80 -15q-18 0 -26 14.5t-12 14.5l-9 -3q-9 -4 -24 -9t-32.5 -9.5t-39 -8t-40.5 -3.5q-64 0 -91.5 35t-27.5 110v251zM279 468l-162 97
q-21 13 -21 32q0 13 9 21t20 8q16 0 38 -22l136 -136h-20z" />
    <glyph glyph-name="uacute" unicode="&#xfa;" horiz-adv-x="463" 
d="M16 388v26l114 11v-290q0 -75 19 -97t81 -22q65 0 90 18q10 7 10 38v280q0 26 -10 32q-8 4 -48 4v26l126 11v-395h46v-23q-66 -15 -80 -15q-18 0 -26 14.5t-12 14.5l-9 -3q-9 -4 -24 -9t-32.5 -9.5t-39 -8t-40.5 -3.5q-64 0 -91.5 35t-27.5 110v251zM185 468h-20l135 136
q22 22 39 22q12 0 20.5 -8.5t8.5 -20.5q0 -19 -22 -32z" />
    <glyph glyph-name="ucircumflex" unicode="&#xfb;" horiz-adv-x="463" 
d="M16 388v26l114 11v-290q0 -75 19 -97t81 -22q65 0 90 18q10 7 10 38v280q0 26 -10 32q-8 4 -48 4v26l126 11v-395h46v-23q-66 -15 -80 -15q-18 0 -26 14.5t-12 14.5l-9 -3q-9 -4 -24 -9t-32.5 -9.5t-39 -8t-40.5 -3.5q-64 0 -91.5 35t-27.5 110v251zM232 566l-122 -98
h-18l116 156h48l116 -156h-18z" />
    <glyph glyph-name="udieresis" unicode="&#xfc;" horiz-adv-x="463" 
d="M16 388v26l114 11v-290q0 -75 19 -97t81 -22q65 0 90 18q10 7 10 38v280q0 26 -10 32q-8 4 -48 4v26l126 11v-395h46v-23q-66 -15 -80 -15q-18 0 -26 14.5t-12 14.5l-9 -3q-9 -4 -24 -9t-32.5 -9.5t-39 -8t-40.5 -3.5q-64 0 -91.5 35t-27.5 110v251zM103 525
q0 16 11.5 31.5t31.5 15.5q15 0 26 -10.5t11 -28.5q0 -19 -13 -33t-31 -14q-12 0 -24 9t-12 30zM282 525q0 16 11 31.5t31 15.5q15 0 26.5 -10.5t11.5 -28.5q0 -19 -13.5 -33t-30.5 -14q-13 0 -24.5 9.5t-11.5 29.5z" />
    <glyph glyph-name="yacute" unicode="&#xfd;" horiz-adv-x="370" 
d="M386 416v-27q-20 -2 -25 -6q-9 -7 -38 -76l-146 -358q-68 -158 -75 -167q-18 -26 -34 -26q-19 0 -40.5 7.5t-21.5 18.5q0 6 5 24t11 18q3 0 24.5 -4t25.5 -4q16 0 26 13t25 46l52 119l-133 332q-18 46 -24.5 54.5t-25.5 11.5v24h160v-24q-55 0 -55 -12q0 -8 8 -29
l104 -276l99 250q18 41 18 53q0 6 -36 11v27h96zM148 468h-20l135 136q22 22 39 22q12 0 20.5 -8.5t8.5 -20.5q0 -19 -22 -32z" />
    <glyph glyph-name="thorn" unicode="&#xfe;" horiz-adv-x="449" 
d="M4 -227l53 2q2 54 2 168v587q0 26 -0.5 78t-0.5 78l-58 1v23q35 1 130 14q-3 -107 -3 -320q0 -11 6 -11q3 0 20 8.5t44 17.5t53 9q76 0 126 -60t50 -154q0 -105 -59.5 -165.5t-143.5 -60.5q-30 0 -96 18v-231l65 -2v-17h-188v17zM127 353v-335q26 -6 50 -6
q82 0 129.5 52.5t47.5 144.5q0 86 -43 135.5t-105 49.5q-38 0 -65 -12q-10 -4 -12 -9.5t-2 -19.5z" />
    <glyph glyph-name="ydieresis" unicode="&#xff;" horiz-adv-x="370" 
d="M386 416v-27q-20 -2 -25 -6q-9 -7 -38 -76l-146 -358q-68 -158 -75 -167q-18 -26 -34 -26q-19 0 -40.5 7.5t-21.5 18.5q0 6 5 24t11 18q3 0 24.5 -4t25.5 -4q16 0 26 13t25 46l52 119l-133 332q-18 46 -24.5 54.5t-25.5 11.5v24h160v-24q-55 0 -55 -12q0 -8 8 -29
l104 -276l99 250q18 41 18 53q0 6 -36 11v27h96zM66 525q0 16 11.5 31.5t31.5 15.5q15 0 26 -10.5t11 -28.5q0 -19 -13 -33t-31 -14q-12 0 -24 9t-12 30zM245 525q0 16 11 31.5t31 15.5q15 0 26.5 -10.5t11.5 -28.5q0 -19 -13.5 -33t-30.5 -14q-13 0 -24.5 9.5t-11.5 29.5z
" />
    <glyph glyph-name="dotlessi" unicode="&#x131;" 
d="M22 0v18l50 2v317q0 41 -7 46q-4 2 -38 7v20l113 15v-405l49 -2v-18h-167z" />
    <glyph glyph-name="Lslash" unicode="&#x141;" horiz-adv-x="537" 
d="M544 187l-19 -189q-139 2 -364 2q-46 0 -90 -1t-50 -1v18l77 4q2 44 2 265l-86 -57v33l86 57v28q0 272 -2 326l-69 2v18q14 0 50.5 -1t64.5 -1q43 0 113 2v-18l-74 -2q-3 -88 -3 -219v-82l166 110v-33l-166 -110v-70v-81.5v-61.5q1 -58 4 -74.5t19 -21.5q20 -7 167 -7
q38 0 90 2l56 163h28z" />
    <glyph glyph-name="lslash" unicode="&#x142;" 
d="M136 387v-367l50 -2v-18h-169v18l51 2v322l-79 -52v27l79 52v227q0 85 -7 90q-4 4 -60 4v22q115 11 137 12q-2 -67 -2 -205v-105l87 57v-27z" />
    <glyph glyph-name="OE" unicode="&#x152;" horiz-adv-x="963" 
d="M928 0h-313q-41 0 -123 -8t-123 -8q-146 0 -240.5 101.5t-94.5 260.5q0 96 38.5 176.5t116.5 132t181 51.5q46 0 140 -8q92 -8 139 -8q93 0 257 2v-150h-32q-3 97 -23 113q-20 17 -145 17h-124v-302q119 0 141 17q17 13 23 113h32q-6 -58 -6 -156q0 -55 2 -117h-30
q-2 15 -3 35.5t-1.5 33t-2.5 25.5t-6.5 19.5t-12.5 7.5q-21 2 -136 2q0 -252 3 -288q2 -24 13.5 -33t49.5 -9h216l47 159h29zM379 688q-112 0 -185.5 -91t-73.5 -251q0 -87 23.5 -155.5t62 -108.5t84 -60t94.5 -20q38 0 65.5 8t38.5 16t12 15q2 10 2 303q0 285 -2 301
q-2 17 -34 30t-87 13z" />
    <glyph glyph-name="oe" unicode="&#x153;" horiz-adv-x="726" 
d="M428 282h185q12 0 15.5 2.5t3.5 10.5q0 13 -3 29t-10.5 38t-26.5 37t-46 15q-55 0 -92 -48t-37 -77q0 -7 11 -7zM680 264h-257q-10 0 -12.5 -8t-2.5 -34q0 -44 15.5 -86t53.5 -74t91 -32q41 0 66.5 18.5t50.5 56.5l15 -9q-58 -112 -163 -112q-48 0 -89.5 22.5t-68.5 63.5
q-56 -86 -156 -86q-80 0 -140.5 58t-60.5 162q0 62 19 108t51 71t67 37t72 12q107 0 156 -81q57 81 155 81q43 0 76 -17.5t49 -43t23.5 -48t7.5 -40.5q0 -11 -3.5 -15t-14.5 -4zM96 208q0 -89 34.5 -147.5t91.5 -58.5q61 0 93.5 61t32.5 147q0 88 -31.5 146t-88.5 58
q-51 0 -91.5 -54t-40.5 -152z" />
    <glyph glyph-name="Scaron" unicode="&#x160;" horiz-adv-x="500" 
d="M50 0v182h18q21 -78 67 -129t119 -51q57 0 96.5 38.5t39.5 101.5q0 46 -25.5 82.5t-64 59l-83.5 48t-83.5 49.5t-64 63.5t-25.5 89.5q0 69 52 121.5t145 52.5q30 0 65 -7.5t58.5 -15t26.5 -7.5q9 0 18 12h27v-166h-18q-25 76 -65 120t-113 44q-59 0 -92.5 -36.5
t-33.5 -84.5q0 -37 19.5 -67t50 -51.5t68 -41.5l75 -41t68 -45.5t50 -61.5t19.5 -82q0 -80 -61 -137.5t-144 -57.5q-33 0 -72.5 8.5t-66.5 17.5t-31 9q-5 0 -7.5 -2.5t-6.5 -14.5h-25zM250 802l122 98h18l-116 -156h-48l-116 156h18z" />
    <glyph glyph-name="scaron" unicode="&#x161;" horiz-adv-x="296" 
d="M22 17l-7 98h23q24 -115 99 -115q36 0 55.5 25t19.5 58q0 32 -19 57t-46 42l-54 34.5t-46 44t-19 60.5q0 46 35 78.5t85 32.5q22 0 38.5 -4.5t39 -15t34.5 -15.5l1 -79h-19q-7 25 -12 38t-14.5 29.5t-23.5 23.5t-34 7q-32 0 -55 -21t-23 -50q0 -25 20 -46.5t48.5 -38.5
l57 -35.5t48.5 -47t20 -63.5q0 -56 -40 -93t-93 -37q-43 0 -119 33zM148 526l122 98h18l-116 -156h-48l-116 156h18z" />
    <glyph glyph-name="Ydieresis" unicode="&#x178;" horiz-adv-x="463" 
d="M171 692v-18q-49 1 -61.5 -0.5t-12.5 -7.5q0 -7 59 -109l104 -177l159 249q17 26 17 32q0 3 -2 5t-10.5 3t-24.5 2t-45 1v18q120 0 166 2v-22q-29 -1 -46 -20q-15 -16 -55.5 -72.5t-56.5 -81.5l-92 -138q0 -262 3 -338l81 -4v-18q-20 0 -62 1t-59 1q-29 0 -127 -2v18
l82 4q2 78 2 318l-105 174q-81 136 -96 151q-11 11 -46 11v18q27 0 61.5 -1t40.5 -1q21 0 70 1t56 1zM119 801q0 16 11.5 31.5t31.5 15.5q15 0 26 -10.5t11 -28.5q0 -19 -13 -33t-31 -14q-12 0 -24 9t-12 30zM298 801q0 16 11 31.5t31 15.5q15 0 26.5 -10.5t11.5 -28.5
q0 -19 -13.5 -33t-30.5 -14q-13 0 -24.5 9.5t-11.5 29.5z" />
    <glyph glyph-name="Zcaron" unicode="&#x17d;" horiz-adv-x="537" 
d="M535 185l-3 -187q-134 2 -323 2h-219v9l435 663l-223 -2q-40 -1 -61.5 -2t-43 -6.5t-30 -14t-16.5 -26t-10.5 -39.5t-4.5 -58h-33l6 168q71 -2 303 -2q5 0 102.5 1t117.5 1v-7l-217.5 -328l-216.5 -337h115q202 4 230 13q16 5 28 25t16.5 40.5t10 49.5t7.5 37h30z
M269 802l122 98h18l-116 -156h-48l-116 156h18z" />
    <glyph glyph-name="zcaron" unicode="&#x17e;" horiz-adv-x="370" 
d="M344 0h-349v7l267 392l-159 -3q-25 -1 -31 -7t-11 -33l-6 -38h-28l1 98h321v-7l-267 -392l210 3q11 0 14 3t4 14l7 62q2 10 5 12.5t16 2.5q10 0 13 -2.5t2 -10.5zM185 526l122 98h18l-116 -156h-48l-116 156h18z" />
    <glyph glyph-name="florin" unicode="&#x192;" horiz-adv-x="352" 
d="M34 360v34h98q9 67 15 100.5t21.5 74.5t40.5 73q63 80 138 80q16 0 32 -2l-10 -51q-52 7 -80 7q-21 0 -30.5 -8t-17.5 -34q-16 -54 -38 -240h97v-34h-101l-37 -295q-12 -92 -33.5 -142t-64.5 -90q-18 -18 -48.5 -33.5t-56.5 -15.5q-22 0 -62 6l9 51q4 0 51 -5.5t59 -5.5
q18 0 26 7.5t15 32.5q13 36 26 133l45 357h-94z" />
    <glyph glyph-name="circumflex" unicode="&#x2c6;" 
d="M102 566l-122 -98h-18l116 156h48l116 -156h-18z" />
    <glyph glyph-name="caron" unicode="&#x2c7;" 
d="M102 526l122 98h18l-116 -156h-48l-116 156h18z" />
    <glyph glyph-name="uni02C9" unicode="&#x2c9;" 
d="M-38 508v44h280v-44h-280z" />
    <glyph glyph-name="breve" unicode="&#x2d8;" 
d="M-25 613h18q3 -14 6.5 -24.5t14 -28.5t33.5 -28.5t55 -10.5t55 10.5t33.5 28.5t14 28.5t6.5 24.5h18q0 -66 -31.5 -105.5t-95.5 -39.5q-36 0 -61.5 13t-38 29.5t-19 40.5t-7.5 36t-1 26z" />
    <glyph glyph-name="dotaccent" unicode="&#x2d9;" 
d="M61 525q0 17 11.5 32.5t32.5 15.5q15 0 26.5 -10.5t11.5 -28.5q0 -21 -13.5 -35t-31.5 -14q-13 0 -25 9t-12 31z" />
    <glyph glyph-name="ring" unicode="&#x2da;" 
d="M195 561q0 -38 -27.5 -65.5t-65.5 -27.5t-65.5 27.5t-27.5 65.5q0 39 27.5 66t65.5 27t65.5 -27t27.5 -66zM169 561q0 28 -19.5 47.5t-47.5 19.5t-47.5 -19.5t-19.5 -47.5t19.5 -47.5t47.5 -19.5t47.5 19.5t19.5 47.5z" />
    <glyph glyph-name="ogonek" unicode="&#x2db;" 
d="M192 10v-9q-142 -51 -142 -120q0 -22 16 -34.5t38 -12.5q31 0 97 32l8 -15q-83 -53 -136 -53q-37 0 -60 19.5t-23 51.5q0 17 7 34t26.5 38t62.5 39.5t106 29.5z" />
    <glyph glyph-name="tilde" unicode="&#x2dc;" 
d="M233 588h17q-24 -96 -97 -96q-24 0 -66 22q-40 22 -63 22q-36 0 -54 -44h-16q8 41 36 66.5t55 25.5q29 0 73 -22q42 -24 59 -24q35 0 56 50z" />
    <glyph glyph-name="hungarumlaut" unicode="&#x2dd;" 
d="M-30 460l127 142q22 24 38 24q13 0 21.5 -8.5t8.5 -20.5q0 -17 -22 -32l-153 -105h-20zM129 467h-20l136 137q22 22 38 22q12 0 20.5 -8t8.5 -21q0 -19 -21 -32z" />
    <glyph glyph-name="uni03A9" unicode="&#x3a9;" horiz-adv-x="581" 
d="M552 125l-18 -125h-187l-5 14l25 56t31 74t25.5 72.5t22 88t6.5 84.5q-1 144 -48 216.5t-115 72.5q-71 0 -116 -71.5t-45 -221.5q0 -66 20.5 -142.5t38 -118t50.5 -109.5l-7 -15h-185l-18 125l21 1q11 -46 24.5 -60t37.5 -14h86q-139 166 -139 338q0 142 67 228t167 86
q101 0 166 -83t65 -225q0 -163 -141 -344h88q27 0 38 12.5t24 61.5z" />
    <glyph glyph-name="uni03BC" unicode="&#x3bc;" horiz-adv-x="463" 
d="M16 414l114 11v-290q0 -75 19 -97t81 -22q65 0 90 18q10 7 10 38v280q0 26 -10 32q-8 4 -48 4v26l126 11v-395h46v-23q-66 -15 -80 -15q-18 0 -26 14.5t-12 14.5l-9 -3q-9 -4 -23.5 -9t-32 -9.5t-38.5 -8t-39 -3.5t-34 6q-3 1 -6 2.5l-5 2.5t-3 1q-6 0 -6 -15v-213
q0 -16 -16 -16h-38q-14 0 -14 21v607l-46 4v26z" />
    <glyph glyph-name="pi" unicode="&#x3c0;" horiz-adv-x="473" 
d="M427 462l21 -8q-8 -37 -29 -72q-15 -4 -62 -4q-4 -48 -4 -248q0 -94 40 -94q21 0 46 32l12 -17q-32 -63 -85 -63q-35 0 -54 27.5t-19 97.5q0 98 10 268q-102 2 -135 2v-23q0 -104 -12.5 -188.5t-25 -119.5t-21.5 -47q-26 -15 -50 -17l-5 15q45 60 63.5 168.5t18.5 212.5
q-29 0 -50.5 -6.5t-32 -13.5t-30.5 -24l-12 18q1 1 7 8.5t8.5 10t9 9.5t11 10.5l12.5 10t15 9.5t16.5 7.5t19 6.5t21.5 3.5t25 1.5q28 0 100 -1.5t119 -1.5q22 0 32 5.5t20 24.5z" />
    <glyph glyph-name="uni2010" unicode="&#x2010;" horiz-adv-x="259" 
d="M249 178h-239v60h239v-60z" />
    <glyph glyph-name="endash" unicode="&#x2013;" horiz-adv-x="500" 
d="M500 185h-500v46h500v-46z" />
    <glyph glyph-name="emdash" unicode="&#x2014;" horiz-adv-x="1000" 
d="M870 185h-740v46h740v-46z" />
    <glyph glyph-name="quoteleft" unicode="&#x2018;" horiz-adv-x="167" 
d="M139 551l-25 -61q-38 7 -66 22.5t-28 38.5q0 39 114 169l12 -12q-67 -87 -67 -115q0 -15 11 -24.5t21.5 -12t27.5 -5.5z" />
    <glyph glyph-name="quoteright" unicode="&#x2019;" horiz-adv-x="167" 
d="M27 648l26 60q37 -6 65 -22.5t28 -38.5q0 -21 -28.5 -63.5t-51.5 -68.5t-34 -37l-12 13q68 81 68 114q0 15 -11.5 24.5t-21 12t-28.5 6.5z" />
    <glyph glyph-name="quotesinglbase" unicode="&#x201a;" horiz-adv-x="167" 
d="M27 13l26 61q38 -7 65.5 -23t27.5 -39q0 -29 -44.5 -86.5t-69.5 -82.5l-12 13q68 81 68 115q0 33 -61 42z" />
    <glyph glyph-name="quotedblleft" unicode="&#x201c;" horiz-adv-x="315" 
d="M139 551l-25 -61q-38 7 -66 22.5t-28 38.5q0 39 114 169l12 -12q-67 -87 -67 -115q0 -15 11 -24.5t21.5 -12t27.5 -5.5zM287 551l-25 -61q-38 7 -66 22.5t-28 38.5q0 39 114 169l12 -12q-67 -87 -67 -115q0 -15 11 -24.5t21.5 -12t27.5 -5.5z" />
    <glyph glyph-name="quotedblright" unicode="&#x201d;" horiz-adv-x="315" 
d="M27 648l26 60q37 -6 65 -22.5t28 -38.5q0 -21 -28.5 -63.5t-51.5 -68.5t-34 -37l-12 13q68 81 68 114q0 15 -11.5 24.5t-21 12t-28.5 6.5zM175 648l26 60q37 -6 65.5 -22.5t28.5 -38.5q0 -21 -29 -63.5t-51.5 -68t-34.5 -37.5l-12 13q68 81 68 114q0 15 -11.5 24.5
t-21 12t-28.5 6.5z" />
    <glyph glyph-name="quotedblbase" unicode="&#x201e;" horiz-adv-x="315" 
d="M27 13l26 61q38 -7 65.5 -23t27.5 -39q0 -29 -44.5 -86.5t-69.5 -82.5l-12 13q68 81 68 115q0 33 -61 42zM175 13l26 61q38 -7 66 -23t28 -39q0 -21 -29 -63t-52 -68.5t-34 -37.5l-12 13q68 81 68 115q0 33 -61 42z" />
    <glyph glyph-name="dagger" unicode="&#x2020;" horiz-adv-x="407" 
d="M308 442h-211q9 -23 9 -32q0 -25 -19 -25t-19 27q0 63 125 68q-23 47 -23 81q0 31 21 78q-29 7 -29 34q0 14 10 24.5t30 10.5q23 0 32 -11t9 -23q0 -27 -29 -35q21 -44 21 -78q0 -35 -23 -81q126 -5 126 -68q0 -27 -20 -27q-18 0 -18 25q0 15 8 32zM211 -54h-17l-28 464
h74z" />
    <glyph glyph-name="daggerdbl" unicode="&#x2021;" horiz-adv-x="407" 
d="M195 342l-22 191h-60q3 -12 3 -20q0 -15 -7 -20.5t-14 -5.5q-17 0 -17 21q0 25 30.5 41.5t80.5 15.5q-10 35 -10 44q0 17 13 46q-16 8 -16 26q0 27 28 27q13 0 20.5 -7.5t7.5 -19.5q0 -18 -16 -26q12 -31 12 -46q0 -14 -10 -44q51 1 81.5 -16t30.5 -41q0 -21 -17 -21
q-7 0 -14 5.5t-7 19.5q0 9 2 21h-60l-22 -191h-17zM173 118l22 191h17l22 -191h60q-2 12 -2 21q0 14 7 19.5t14 5.5q17 0 17 -21q0 -24 -30.5 -41t-81.5 -16q10 -30 10 -44q0 -15 -12 -46q16 -8 16 -26q0 -12 -7.5 -19.5t-20.5 -7.5q-28 0 -28 27q0 18 16 26q-13 29 -13 46
q0 9 10 44q-50 -1 -80.5 15.5t-30.5 41.5q0 21 17 21q4 0 8 -1.5t8.5 -8t4.5 -16.5q0 -8 -3 -20h60z" />
    <glyph glyph-name="bullet" unicode="&#x2022;" horiz-adv-x="426" 
d="M386 345q0 -71 -51 -122t-122 -51t-122 51t-51 122t51 122t122 51t122 -51t51 -122z" />
    <glyph glyph-name="ellipsis" unicode="&#x2026;" horiz-adv-x="1000" 
d="M212 33q0 -19 -13 -32t-31 -13q-19 0 -32.5 13t-13.5 32t13.5 32t32.5 13q18 0 31 -13t13 -32zM545 33q0 -19 -13 -32t-31 -13q-19 0 -32.5 13t-13.5 32t13.5 32t32.5 13q18 0 31 -13t13 -32zM878 33q0 -19 -13 -32t-31 -13q-19 0 -32.5 13t-13.5 32t13.5 32t32.5 13
q18 0 31 -13t13 -32z" />
    <glyph glyph-name="perthousand" unicode="&#x2030;" horiz-adv-x="981" 
d="M437 27q55 0 114 65t59 134q0 40 -18.5 57t-41.5 17q-54 0 -114.5 -77t-60.5 -138q0 -26 18 -42t44 -16zM763 7q-41 0 -73 30t-32 81q0 84 68.5 145t140.5 61q48 0 71.5 -28.5t23.5 -70.5q0 -76 -63.5 -147t-135.5 -71zM430 7q-41 0 -73 30t-32 81q0 84 68.5 145
t140.5 61q48 0 72 -28.5t24 -70.5q0 -76 -64 -147t-136 -71zM770 26q55 0 114 65.5t59 134.5q0 40 -18.5 57t-41.5 17q-54 0 -114.5 -77t-60.5 -138q0 -26 18 -42.5t44 -16.5zM121 -11h-41l410 661l-2 2q-59 -36 -129 -36q-3 0 -37 2q7 -101 -60.5 -172.5t-133.5 -71.5
q-43 0 -75.5 30t-32.5 83q0 81 68.5 143t142.5 62q56 0 85 -55q36 -4 44 -4q94 0 175 75h30zM70 455q0 -28 17.5 -44.5t42.5 -16.5q58 0 116.5 66t58.5 134q0 10 -2 28q-33 10 -60 46q-63 -9 -118 -85.5t-55 -127.5z" />
    <glyph glyph-name="guilsinglleft" unicode="&#x2039;" horiz-adv-x="241" 
d="M26 205v6l156 147q6 6 11 6q7 0 7 -7t-38.5 -62.5t-63.5 -86.5q19 -23 60.5 -82t41.5 -66q0 -8 -8 -8q-4 0 -11 7z" />
    <glyph glyph-name="guilsinglright" unicode="&#x203a;" horiz-adv-x="241" 
d="M214 211v-6l-156 -147q-6 -6 -11 -6q-7 0 -7 7t38.5 62.5t63.5 86.5q-19 23 -60.5 82t-41.5 66q0 8 8 8q4 0 11 -7z" />
    <glyph glyph-name="fraction" unicode="&#x2044;" horiz-adv-x="148" 
d="M-148 -11l404 719h40l-404 -719h-40z" />
    <glyph glyph-name="Euro" unicode="&#x20ac;" horiz-adv-x="444" 
d="M402 199h18l-10 -153q-70 -64 -143 -64q-96 0 -155 97q-55 90 -59 214h-52l7 24h44v6q0 5 -0.5 14t-0.5 13q0 11 2 31q1 7 1 22h-52l6 24h48q13 124 67 200q28 39 65 60t74 21q34 0 70 -22q8 -5 17.5 -13t15.5 -12.5t9 -4.5q11 0 13 18h27v-168h-18q-10 69 -44 124
q-38 58 -84 58q-25 0 -49 -16q-36 -24 -60 -82q-30 -72 -35 -163h229l-6 -24h-224q-2 -20 -2 -38q0 -7 0.5 -22t0.5 -22v-4h199l-6 -24h-191q3 -91 37 -167q23 -55 58 -85.5t70 -30.5q24 0 44 14t37 52q23 51 32 123z" />
    <glyph glyph-name="afii61289" unicode="&#x2113;" horiz-adv-x="344" 
d="M311 99l16 -14q-44 -95 -133 -95q-58 0 -85 39q-27 40 -27 142v94l-49 -42l-11 20l60 55v123q0 130 8.5 183.5t35.5 88.5q30 44 69 44q34 0 53.5 -35.5t19.5 -92.5q0 -152 -126 -298v-112q0 -92 19 -128t58 -36q53 0 92 64zM142 480v-128q39 53 63 124.5t24 134.5
q0 99 -41 99q-25 0 -35.5 -52.5t-10.5 -177.5z" />
    <glyph glyph-name="trademark" unicode="&#x2122;" horiz-adv-x="852" 
d="M20 595h-20l7 97q34 -2 149 -2q132 0 192 2l-4 -95h-19q-6 71 -7 72q-3 6 -46 6h-72q-2 -41 -2 -178t2 -178l39 -2v-16q-6 0 -26 0.5t-40 0.5t-40.5 -0.5t-25.5 -0.5v16l38 2q1 37 1 178t-1 178h-52q-43 0 -52 -9q-7 -7 -21 -71zM810 317v-16q-12 0 -36 0.5t-36 0.5
q-11 0 -34 -0.5t-32 -0.5v16l41 2q1 108 1 190q0 12 -1.5 77t-1.5 76h-2l-135 -366h-8l-148 358l-2 -2l4 -333l47 -2v-16q-4 0 -21 0.5t-29 0.5q-24 0 -58 -1v16l41 2q2 197 -1 354l-35 2v17q26 -2 49 -2q22 0 46 2l127 -322l118 320q50 0 103 2v-17l-43 -2q0 -142 4 -354z
" />
    <glyph glyph-name="Omega" unicode="&#x2126;" horiz-adv-x="581" 
d="M552 125l-18 -125h-187l-5 14l25 56t31 74t25.5 72.5t22 88t6.5 84.5q-1 144 -48 216.5t-115 72.5q-71 0 -116 -71.5t-45 -221.5q0 -66 20.5 -142.5t38 -118t50.5 -109.5l-7 -15h-185l-18 125l21 1q11 -46 24.5 -60t37.5 -14h86q-139 166 -139 338q0 142 67 228t167 86
q101 0 166 -83t65 -225q0 -163 -141 -344h88q27 0 38 12.5t24 61.5z" />
    <glyph glyph-name="estimated" unicode="&#x212e;" horiz-adv-x="867" 
d="M832 337h-646q-6 0 -6 -4v-196q0 -11 9 -22q103 -106 244 -106q154 0 258 119h57q-54 -64 -137.5 -101.5t-178.5 -37.5q-165 0 -281.5 105t-116.5 253q0 149 116.5 254t281.5 105q166 0 283 -105t117 -254v-10zM685 363v197q0 14 -9 23q-104 102 -243 102
q-140 0 -243 -105q-10 -10 -10 -25v-192q0 -6 6 -6h495q4 0 4 6z" />
    <glyph glyph-name="partialdiff" unicode="&#x2202;" horiz-adv-x="434" 
d="M218 419h1q71 0 111 -65q6 62 7 106q2 81 -23 158q-13 42 -44.5 73.5t-71.5 31.5q-55 0 -107 -45q-10 -2 -18.5 16t-3.5 32q51 38 111 38q107 0 167 -140q41 -94 41 -229q0 -148 -39 -252q-58 -153 -164 -153q-67 0 -107 51.5t-40 144.5q0 90 48 160q22 31 58 52t74 21z
M232 386h-1q-56 0 -93 -60q-39 -70 -39 -177q0 -53 23 -93t62 -40q60 0 99 106q27 71 41 192q-10 26 -35.5 49t-56.5 23z" />
    <glyph glyph-name="Delta" unicode="&#x2206;" horiz-adv-x="518" 
d="M488 0h-459v19l214 676l26 9l219 -685v-19zM412 39l-172 546l-169 -546h341z" />
    <glyph glyph-name="product" unicode="&#x220f;" horiz-adv-x="558" 
d="M534 692v-22q-53 -4 -64.5 -14t-11.5 -48v-606q0 -42 12 -53.5t62 -15.5v-22h-203v22q48 3 58.5 13.5t10.5 55.5v633q0 19 -5.5 24t-24.5 5h-179q-19 0 -24 -4.5t-5 -22.5v-635q0 -44 8.5 -54t55.5 -15v-22h-198v22q50 4 61.5 14.5t11.5 54.5v606q0 38 -11.5 48t-64.5 14
v22h511z" />
    <glyph glyph-name="summation" unicode="&#x2211;" horiz-adv-x="454" 
d="M434 70l-35 -159h-373v19l193 358l-189 385v19h370q0 -8 2 -30t4 -55t4 -56l-23 -4q-8 56 -24 86q-9 19 -25.5 25t-63.5 6h-166l167 -332l-193 -363h214q54 0 72.5 16.5t42.5 90.5z" />
    <glyph glyph-name="minus" unicode="&#x2212;" horiz-adv-x="600" 
d="M92 191v34h416v-34h-416z" />
    <glyph glyph-name="uni2215" unicode="&#x2215;" horiz-adv-x="148" 
d="M-148 -11l404 719h40l-404 -719h-40z" />
    <glyph glyph-name="uni2219" unicode="&#x2219;" horiz-adv-x="185" 
d="M138 208q0 -19 -13 -32t-31 -13q-19 0 -32.5 13t-13.5 32t13.5 32t32.5 13q18 0 31 -13t13 -32z" />
    <glyph glyph-name="radical" unicode="&#x221a;" horiz-adv-x="467" 
d="M447 893l-138 -1035l-16 -9l-184 544l-74 -34l-9 28l126 56l144 -441h2l118 899z" />
    <glyph glyph-name="infinity" unicode="&#x221e;" horiz-adv-x="660" 
d="M618 290v-1q0 -61 -38.5 -99t-91.5 -38q-39 0 -75 23.5t-82 76.5q-28 -32 -47 -50t-50 -34t-64 -16q-53 0 -91 38.5t-38 95.5q0 59 38 97.5t96 38.5q44 0 81.5 -26.5t77.5 -74.5q23 26 34.5 37.5t33 30t43.5 26t48 7.5q56 0 90.5 -36.5t34.5 -95.5zM175 193h1
q9 0 17.5 1.5t17.5 5.5t15.5 7.5t15.5 11l14 11.5t14 13.5l12.5 13t13 14.5t11.5 13q-20 26 -30 37t-29 28.5t-37.5 25t-40.5 7.5q-39 0 -61.5 -28t-22.5 -69q0 -39 25 -65.5t64 -26.5zM489 382h-1q-20 0 -42 -12t-32.5 -21.5t-33.5 -34.5t-24 -26q48 -54 74.5 -74.5
t59.5 -20.5q38 0 61 28.5t23 64.5q0 45 -23.5 70.5t-61.5 25.5z" />
    <glyph glyph-name="integral" unicode="&#x222b;" horiz-adv-x="323" 
d="M143 18l-18 421q-5 122 4 205t30 122.5t44 54.5t54 15q18 0 32.5 -10.5t15.5 -28.5q0 -16 -10 -25t-25 -9q-14 0 -25 17.5t-21 17.5q-12 0 -22 -12.5t-17 -52t-4 -101.5l16 -384q6 -131 -2.5 -220t-29 -132t-43.5 -59.5t-55 -16.5q-22 0 -35.5 11.5t-13.5 28.5
q-1 16 11 26.5t29 10.5q13 0 24.5 -18.5t20.5 -18.5q21 0 32 43t8 115z" />
    <glyph glyph-name="approxequal" unicode="&#x2248;" horiz-adv-x="452" 
d="M388 410l29 -23q-37 -85 -107 -85q-36 0 -93 34q-46 30 -74 30q-45 0 -79 -65l-30 22q40 86 113 86q26 0 53.5 -13t38.5 -22q49 -30 74 -30q23 0 40 16t35 50zM388 266l29 -23q-38 -86 -107 -86q-33 0 -93 35q-46 30 -74 30q-45 0 -79 -65l-30 21q39 86 113 86
q12 0 23 -2t22 -7t17 -7.5t17 -9.5t13 -8t11 -6.5t11 -6.5t9.5 -5t11 -5.5t9.5 -3.5t11 -2.5t11 -0.5q23 0 40 16t35 50z" />
    <glyph glyph-name="notequal" unicode="&#x2260;" horiz-adv-x="452" 
d="M322 467l-35 -81h122v-44h-138l-54 -122h192v-43h-208l-42 -96l-34 15l35 81h-118v43h135l53 122h-188v44h204l42 96z" />
    <glyph glyph-name="lessequal" unicode="&#x2264;" horiz-adv-x="452" 
d="M408 113l-362 199v45l362 199v-54l-316 -165v-3l316 -167v-54zM410 30h-367v46h367v-46z" />
    <glyph glyph-name="greaterequal" unicode="&#x2265;" horiz-adv-x="452" 
d="M47 556l362 -199v-45l-362 -199v54l315 166v2l-315 167v54zM410 30h-367v46h367v-46z" />
    <glyph glyph-name="lozenge" unicode="&#x25ca;" horiz-adv-x="472" 
d="M428 338l-165 -397h-54l-165 397l166 400h53zM379 338l-141 350h-2l-143 -349l143 -350h2z" />
    <glyph glyph-name="fi" unicode="&#xfb01;" horiz-adv-x="444" 
d="M146 413l105 5v-33l-84 -1q-12 0 -16.5 -4t-4.5 -18v-342l73 -2v-18h-203v18l62 2v361l-65 -1v27l65 3q0 59 1 86t5 63.5t14.5 61t28.5 47.5q44 54 111 54q23 0 40 -6t17 -15q0 -7 -5 -27t-10 -20q-3 0 -53 12t-58 12q-10 0 -13.5 -7.5t-5.5 -25.5q-4 -39 -4 -232zM263 0
v18l50 2v317q0 41 -7 46q-4 2 -38 7v20l113 15v-405l49 -2v-18h-167zM390 572q0 -21 -13.5 -35.5t-32.5 -14.5q-15 0 -26.5 10.5t-11.5 31.5q0 20 14 34t32 14q16 0 27 -10.5t11 -29.5z" />
    <glyph glyph-name="fl" unicode="&#xfb02;" horiz-adv-x="444" 
d="M146 413l105 5v-33l-84 -1q-12 0 -16.5 -4t-4.5 -18v-342l73 -2v-18h-203v18l62 2v361l-65 -1v27l65 3q0 59 1 86t5 63.5t14.5 61t28.5 47.5q44 54 111 54q27 0 42 -7q61 6 104 9q-2 -67 -2 -205v-499l50 -2v-18h-169v18l51 2v576q0 85 -7 90q-2 2 -14 2q-6 -34 -13 -34
q-3 0 -53 12t-58 12q-10 0 -13.5 -7.5t-5.5 -25.5q-4 -39 -4 -232z" />
    <glyph glyph-name="a.superior" horiz-adv-x="278" 
d="M258 466v-14q-52 -12 -59 -12q-19 0 -21 19q-1 12 -3 12q-1 0 -16.5 -8.5t-37.5 -16.5t-39 -8q-26 0 -41 17t-15 38q0 34 37 56.5t113 26.5l1 63q1 31 -6.5 39t-33.5 8q-45 0 -48 -11q-1 -2 -3.5 -21.5t-4.5 -22.5q-8 -11 -23 -11q-17 0 -17 23q0 17 7 25t23 16
q48 24 95 24q32 0 46.5 -13.5t13.5 -42.5v-186h32zM176 497v54q0 11 -6 11q-31 0 -63.5 -16.5t-32.5 -46.5q0 -33 33 -33q24 0 59 15q7 3 8 5t2 11z" />
    <glyph glyph-name="o.superior" horiz-adv-x="296" 
d="M17 571q0 71 40.5 104t96.5 33q65 0 95 -38t30 -90q0 -58 -35 -100t-95 -42q-53 0 -92.5 35t-39.5 98zM73 573q0 -12 2.5 -28t9 -39t23 -38.5t40.5 -15.5q37 0 56 36t19 87t-18.5 85t-52.5 34q-28 0 -53.5 -29t-25.5 -92z" />
    <glyph glyph-name="one.superior" horiz-adv-x="278" 
d="M45 295v18l67 5q0 80 2 138v209l-66 1v25l129 15l-2 -388l68 -5v-18q-30 2 -101 2q-41 0 -97 -2z" />
    <glyph glyph-name="two.superior" horiz-adv-x="296" 
d="M269 297h-104q-121 0 -157 -2v9q104 112 151 172q49 63 46 101q1 30 -20 48.5t-57 18.5q-16 0 -41.5 -6.5t-44 -13t-19.5 -6.5q-3 0 -1 9l12 62q55 19 102 19q58 0 92 -30.5t34 -74.5q0 -55 -69 -130q-42 -45 -116 -114h176l5 40h18z" />
    <glyph glyph-name="three.superior" horiz-adv-x="296" 
d="M35 631l8 60q57 17 101 17q49 0 79 -21.5t30 -56.5q0 -59 -92 -98v-2q108 -9 108 -94q0 -37 -28.5 -68t-68 -47.5t-72.5 -25.5t-49 -9q-10 0 -10 8q0 7 19 11q149 33 149 111q0 76 -133 76q-19 0 -19 9q0 6 19 12q127 42 127 97q0 20 -16 34t-48 14q-39 0 -104 -27z" />
    </font>
</defs>
</svg>
